<svg width="62" height="42" viewBox="0 0 62 42" fill="none" xmlns="http://www.w3.org/2000/svg">
<g clip-path="url(#clip0_1635_5432)">
<path d="M21.3125 19.6583C21.3125 20.7284 22.1799 21.5997 23.25 21.5997C24.3201 21.5997 25.1875 20.7284 25.1875 19.6583C25.1875 18.5883 24.3201 17.7169 23.25 17.7169C22.1799 17.7169 21.3125 18.5883 21.3125 19.6583Z" fill="url(#paint0_linear_1635_5432)"/>
<path d="M36.8125 19.6583C36.8125 20.7284 37.6799 21.5997 38.75 21.5997C39.8201 21.5997 40.6875 20.7284 40.6875 19.6583C40.6875 18.5883 39.8201 17.7169 38.75 17.7169C37.6799 17.7169 36.8125 18.5883 36.8125 19.6583Z" fill="url(#paint1_linear_1635_5432)"/>
<path d="M52.3125 25.4826C52.3092 19.4797 48.7762 12.7576 44.3375 8.72611L51.0006 2.04767C52.5 0.499965 51.0006 -1.00004 49.259 0.302522L42.2181 7.35953C35.3578 3.04973 26.6422 3.04973 19.7819 7.35953L12.741 0.302522C11.5 -1.00004 9.6875 0.302524 11.0014 2.04767L17.6625 8.72611C13.2238 12.7576 9.69077 19.4797 9.6875 25.4826H0.941406C0.421482 25.4826 0 25.904 0 26.424C0 26.9439 0.421482 27.3654 0.941406 27.3654H61.0586C61.5785 27.3654 62 26.9439 62 26.424C62 25.904 61.5785 25.4826 61.0586 25.4826H52.3125ZM12.5625 25.4826C12.5625 15.8327 21.3695 7.00991 31 7.00991C40.6305 7.00991 49.4375 15.8327 49.4375 25.4826H12.5625Z" fill="url(#paint2_linear_1635_5432)"/>
<path d="M61 31H59C58.4477 31 58 31.4477 58 32C58 32.5523 58.4477 33 59 33H61C61.5523 33 62 32.5523 62 32C62 31.4477 61.5523 31 61 31Z" fill="url(#paint3_linear_1635_5432)"/>
<path d="M3 31H1C0.447715 31 0 31.4477 0 32C0 32.5523 0.447715 33 1 33H3C3.55228 33 4 32.5523 4 32C4 31.4477 3.55228 31 3 31Z" fill="url(#paint4_linear_1635_5432)"/>
<path d="M53 31H9C8.44772 31 8 31.4477 8 32C8 32.5523 8.44772 33 9 33H53C53.5523 33 54 32.5523 54 32C54 31.4477 53.5523 31 53 31Z" fill="url(#paint5_linear_1635_5432)"/>
</g>
<defs>
<linearGradient id="paint0_linear_1635_5432" x1="23.25" y1="17.7169" x2="23.25" y2="21.5997" gradientUnits="userSpaceOnUse">
<stop offset="0.0694443" stop-color="white"/>
<stop offset="1" stop-color="#47F258"/>
</linearGradient>
<linearGradient id="paint1_linear_1635_5432" x1="38.75" y1="17.7169" x2="38.75" y2="21.5997" gradientUnits="userSpaceOnUse">
<stop offset="0.0694443" stop-color="white"/>
<stop offset="1" stop-color="#47F258"/>
</linearGradient>
<linearGradient id="paint2_linear_1635_5432" x1="31" y1="-0.22644" x2="31" y2="27.3654" gradientUnits="userSpaceOnUse">
<stop offset="0.0694443" stop-color="white"/>
<stop offset="1" stop-color="#47F258"/>
</linearGradient>
<linearGradient id="paint3_linear_1635_5432" x1="60" y1="31" x2="60" y2="33" gradientUnits="userSpaceOnUse">
<stop offset="0.0694443" stop-color="white"/>
<stop offset="1" stop-color="#47F258"/>
</linearGradient>
<linearGradient id="paint4_linear_1635_5432" x1="2" y1="31" x2="2" y2="33" gradientUnits="userSpaceOnUse">
<stop offset="0.0694443" stop-color="white"/>
<stop offset="1" stop-color="#47F258"/>
</linearGradient>
<linearGradient id="paint5_linear_1635_5432" x1="31" y1="31" x2="31" y2="33" gradientUnits="userSpaceOnUse">
<stop offset="0.0694443" stop-color="white"/>
<stop offset="1" stop-color="#47F258"/>
</linearGradient>
<clipPath id="clip0_1635_5432">
<rect width="62" height="42" fill="white"/>
</clipPath>
</defs>
</svg>
