<svg width="1536" height="1310" viewBox="0 0 1536 1310" fill="none" xmlns="http://www.w3.org/2000/svg">
<path d="M235.926 708.141C212.745 735.282 171.597 738.209 144.018 714.654C116.439 691.099 112.893 650.001 136.074 622.859C159.255 595.718 200.403 592.791 227.982 616.346C255.561 639.901 259.107 680.999 235.926 708.141Z" stroke="url(#paint0_linear_1742_1578)"/>
<path d="M1227.85 116.681C1256.7 90.7046 1301.58 93.4635 1328.08 122.9C1354.59 152.336 1352.64 197.253 1323.79 223.23C1294.94 249.206 1250.06 246.447 1223.56 217.011C1197.06 187.575 1199 142.657 1227.85 116.681Z" stroke="url(#paint1_linear_1742_1578)" stroke-width="2"/>
<path d="M1314.57 821.66C1256.85 880.4 1161.48 880.358 1101.57 821.481C1041.66 762.604 1039.95 667.255 1097.67 608.515C1155.4 549.774 1250.76 549.816 1310.68 608.694C1370.59 667.571 1372.3 762.919 1314.57 821.66Z" stroke="url(#paint2_linear_1742_1578)" stroke-width="3"/>
<path d="M1347.8 383.491C1333.59 382.995 1322.44 370.844 1322.95 356.313C1323.46 341.782 1335.42 330.438 1349.64 330.934C1363.85 331.43 1374.99 343.581 1374.49 358.112C1373.98 372.644 1362.01 383.988 1347.8 383.491Z" stroke="url(#paint3_linear_1742_1578)" stroke-width="2"/>
<path d="M187.172 373.94C198.678 382.299 201.122 398.604 192.575 410.367C184.029 422.13 167.766 424.845 156.261 416.486C144.756 408.126 142.312 391.821 150.858 380.058C159.405 368.295 175.667 365.581 187.172 373.94Z" stroke="url(#paint4_linear_1742_1578)" stroke-width="2"/>
<path d="M362.581 183.853C354.122 172.421 356.694 156.136 368.382 147.487C380.07 138.838 396.396 141.14 404.855 152.572C413.314 164.004 410.742 180.289 399.054 188.938C387.366 197.586 371.04 195.285 362.581 183.853Z" stroke="url(#paint5_linear_1742_1578)" stroke-width="2"/>
<g filter="url(#filter0_f_1742_1578)">
<ellipse cx="1499.5" cy="961" rx="141.5" ry="149" fill="#02D77C" fill-opacity="0.3"/>
</g>
<g filter="url(#filter1_f_1742_1578)">
<ellipse cx="30.5" cy="235" rx="141.5" ry="149" fill="#02D77C" fill-opacity="0.2"/>
</g>
<defs>
<filter id="filter0_f_1742_1578" x="1158" y="612" width="683" height="698" filterUnits="userSpaceOnUse" color-interpolation-filters="sRGB">
<feFlood flood-opacity="0" result="BackgroundImageFix"/>
<feBlend mode="normal" in="SourceGraphic" in2="BackgroundImageFix" result="shape"/>
<feGaussianBlur stdDeviation="100" result="effect1_foregroundBlur_1742_1578"/>
</filter>
<filter id="filter1_f_1742_1578" x="-311" y="-114" width="683" height="698" filterUnits="userSpaceOnUse" color-interpolation-filters="sRGB">
<feFlood flood-opacity="0" result="BackgroundImageFix"/>
<feBlend mode="normal" in="SourceGraphic" in2="BackgroundImageFix" result="shape"/>
<feGaussianBlur stdDeviation="100" result="effect1_foregroundBlur_1742_1578"/>
</filter>
<linearGradient id="paint0_linear_1742_1578" x1="228.306" y1="615.966" x2="143.694" y2="715.034" gradientUnits="userSpaceOnUse">
<stop stop-color="white"/>
<stop offset="1" stop-color="white" stop-opacity="0"/>
</linearGradient>
<linearGradient id="paint1_linear_1742_1578" x1="1222.82" y1="217.68" x2="1328.83" y2="122.23" gradientUnits="userSpaceOnUse">
<stop stop-color="white"/>
<stop offset="1" stop-color="white" stop-opacity="0"/>
</linearGradient>
<linearGradient id="paint2_linear_1742_1578" x1="1311.73" y1="607.624" x2="1126" y2="798" gradientUnits="userSpaceOnUse">
<stop stop-color="white"/>
<stop offset="0.840278" stop-color="white" stop-opacity="0"/>
</linearGradient>
<linearGradient id="paint3_linear_1742_1578" x1="1375.48" y1="358.147" x2="1321.95" y2="356.278" gradientUnits="userSpaceOnUse">
<stop stop-color="white"/>
<stop offset="1" stop-color="white" stop-opacity="0"/>
</linearGradient>
<linearGradient id="paint4_linear_1742_1578" x1="150.049" y1="379.47" x2="193.384" y2="410.955" gradientUnits="userSpaceOnUse">
<stop stop-color="white"/>
<stop offset="1" stop-color="white" stop-opacity="0"/>
</linearGradient>
<linearGradient id="paint5_linear_1742_1578" x1="399.649" y1="189.742" x2="367.787" y2="146.683" gradientUnits="userSpaceOnUse">
<stop stop-color="white"/>
<stop offset="1" stop-color="white" stop-opacity="0"/>
</linearGradient>
</defs>
</svg>
