<svg width="43" height="43" viewBox="0 0 43 43" fill="none" xmlns="http://www.w3.org/2000/svg">
<path d="M34.4839 4H20.8672V5.43333H34.4839V4Z" fill="url(#paint0_linear_1742_1383)"/>
<path d="M31.6167 7H18V8.43333H31.6167V7Z" fill="url(#paint1_linear_1742_1383)"/>
<path d="M26 10H18V11.4333H26V10Z" fill="url(#paint2_linear_1742_1383)"/>
<path d="M19.4333 4H18V5.43333H19.4333V4Z" fill="url(#paint3_linear_1742_1383)"/>
<path d="M22.2165 28.6667H20.7832V30.1H22.2165V28.6667Z" fill="url(#paint4_linear_1742_1383)"/>
<path d="M37.2669 22.2167V16.4833H35.8336V22.2167H34.4003V15.05H32.9669V22.2167H31.5336V18.6333H30.1003V22.2167H28.6669V17.9167H27.2336V22.2167H25.8003V19.35H24.3669V22.2167H22.9336V23.65H38.7003V22.2167H37.2669Z" fill="url(#paint5_linear_1742_1383)"/>
<path d="M37.9835 0H5.0168C2.64293 0.00232917 0.719126 1.92613 0.716797 4.3V18.3653V18.3717V26.5167V28.6667C0.719126 31.0405 2.64293 32.9643 5.0168 32.9667H13.8906L11.0239 38.7H7.1668C5.97937 38.7 5.0168 39.6626 5.0168 40.85C5.0168 42.0374 5.97937 43 7.1668 43H35.8335C37.0209 43 37.9835 42.0374 37.9835 40.85C37.9835 39.6626 37.0209 38.7 35.8335 38.7H31.9764L29.1097 32.9667H37.9835C40.3573 32.9643 42.2811 31.0405 42.2835 28.6667V4.3C42.2811 1.92613 40.3573 0.00232917 37.9835 0ZM2.15013 10.0835L3.77911 12.0228C3.91528 12.185 4.11631 12.2786 4.32808 12.2786H6.5218C6.73357 12.2786 6.9346 12.185 7.07076 12.0228L8.70046 10.0835L10.3087 10.6059L10.4864 13.1308C10.5011 13.3419 10.6084 13.5358 10.7795 13.6604L12.5547 14.9504C12.7264 15.0744 12.9439 15.1166 13.1495 15.0658L15.6098 14.4544L16.6046 15.8226L15.2637 17.9726C15.1526 18.1528 15.1269 18.3729 15.1935 18.5738L15.8721 20.6601C15.9375 20.8613 16.0882 21.0234 16.2842 21.103L18.6335 22.0554V23.7467L16.2828 24.6992C16.0863 24.7784 15.9353 24.941 15.8707 25.1428L15.6557 25.8H11.527C13.133 22.4374 11.709 18.4095 8.34643 16.8034C6.37139 15.8601 4.06139 15.9334 2.15013 17V10.0835ZM2.15013 18.705C4.46819 16.8966 7.81341 17.3097 9.62174 19.6279C11.018 21.4176 11.1258 23.8958 9.89013 25.8H2.15013V18.705ZM35.8335 40.1333C36.2292 40.1333 36.5501 40.4542 36.5501 40.85C36.5501 41.2458 36.2292 41.5667 35.8335 41.5667H7.1668C6.77102 41.5667 6.45013 41.2458 6.45013 40.85C6.45013 40.4542 6.77102 40.1333 7.1668 40.1333H35.8335ZM30.3739 38.7H12.6264L15.493 32.9667H27.5072L30.3739 38.7ZM40.8501 28.6667C40.8501 30.2499 39.5667 31.5333 37.9835 31.5333H5.0168C3.43359 31.5333 2.15013 30.2499 2.15013 28.6667V27.2333H10.2642H10.2707H40.8501V28.6667ZM40.8501 25.8H17.3829L19.6196 24.8934C19.8898 24.7838 20.0666 24.5214 20.0668 24.2298V21.5717C20.0669 21.2798 19.89 21.0171 19.6196 20.9073L17.1285 19.8997L16.6569 18.4484L18.0773 16.1694C18.2314 15.9218 18.22 15.6056 18.0487 15.3696L16.4863 13.2196C16.3148 12.9834 16.0172 12.8748 15.7338 12.9451L13.128 13.5901L11.8968 12.6957L11.7083 10.0226C11.6878 9.73117 11.4924 9.48132 11.2145 9.3912L8.68828 8.5699C8.4103 8.48139 8.10644 8.56874 7.91786 8.79135L6.19285 10.8446H4.6642L2.93846 8.79135C2.7498 8.56847 2.44549 8.48103 2.16733 8.5699L2.15013 8.57635V4.3C2.15013 2.71679 3.43359 1.43333 5.0168 1.43333H37.9835C39.5667 1.43333 40.8501 2.71679 40.8501 4.3V25.8Z" fill="url(#paint6_linear_1742_1383)"/>
<defs>
<linearGradient id="paint0_linear_1742_1383" x1="27.6755" y1="4" x2="27.6755" y2="5.43333" gradientUnits="userSpaceOnUse">
<stop offset="0.0694443" stop-color="white"/>
<stop offset="1" stop-color="#47F258"/>
</linearGradient>
<linearGradient id="paint1_linear_1742_1383" x1="24.8083" y1="7" x2="24.8083" y2="8.43333" gradientUnits="userSpaceOnUse">
<stop offset="0.0694443" stop-color="white"/>
<stop offset="1" stop-color="#47F258"/>
</linearGradient>
<linearGradient id="paint2_linear_1742_1383" x1="22" y1="10" x2="22" y2="11.4333" gradientUnits="userSpaceOnUse">
<stop offset="0.0694443" stop-color="white"/>
<stop offset="1" stop-color="#47F258"/>
</linearGradient>
<linearGradient id="paint3_linear_1742_1383" x1="18.7167" y1="4" x2="18.7167" y2="5.43333" gradientUnits="userSpaceOnUse">
<stop offset="0.0694443" stop-color="white"/>
<stop offset="1" stop-color="#47F258"/>
</linearGradient>
<linearGradient id="paint4_linear_1742_1383" x1="21.4999" y1="28.6667" x2="21.4999" y2="30.1" gradientUnits="userSpaceOnUse">
<stop offset="0.0694443" stop-color="white"/>
<stop offset="1" stop-color="#47F258"/>
</linearGradient>
<linearGradient id="paint5_linear_1742_1383" x1="30.8169" y1="15.05" x2="30.8169" y2="23.65" gradientUnits="userSpaceOnUse">
<stop offset="0.0694443" stop-color="white"/>
<stop offset="1" stop-color="#47F258"/>
</linearGradient>
<linearGradient id="paint6_linear_1742_1383" x1="21.5001" y1="0" x2="21.5001" y2="43" gradientUnits="userSpaceOnUse">
<stop offset="0.0694443" stop-color="white"/>
<stop offset="1" stop-color="#47F258"/>
</linearGradient>
</defs>
</svg>
