<svg width="29" height="29" viewBox="0 0 29 29" fill="none" xmlns="http://www.w3.org/2000/svg">
<path d="M21.7495 0H7.24982C3.26277 0 0 3.26277 0 7.24982V21.7502C0 25.7362 3.26277 29 7.24982 29H21.7495C25.7365 29 28.9993 25.7362 28.9993 21.7502V7.24982C28.9993 3.26277 25.7365 0 21.7495 0ZM26.5826 21.7502C26.5826 24.4145 24.4153 26.5833 21.7495 26.5833H7.24982C4.58516 26.5833 2.41673 24.4145 2.41673 21.7502V7.24982C2.41673 4.58481 4.58516 2.41673 7.24982 2.41673H21.7495C24.4153 2.41673 26.5826 4.58481 26.5826 7.24982V21.7502Z" fill="white"/>
<path d="M22.3544 8.45804C23.3554 8.45804 24.1669 7.64658 24.1669 6.64559C24.1669 5.64459 23.3554 4.83313 22.3544 4.83313C21.3535 4.83313 20.542 5.64459 20.542 6.64559C20.542 7.64658 21.3535 8.45804 22.3544 8.45804Z" fill="white"/>
<path d="M14.4998 7.24988C10.495 7.24988 7.25 10.4952 7.25 14.4997C7.25 18.5027 10.495 21.7502 14.4998 21.7502C18.5035 21.7502 21.7496 18.5027 21.7496 14.4997C21.7496 10.4952 18.5035 7.24988 14.4998 7.24988ZM14.4998 19.3335C11.8308 19.3335 9.66673 17.1695 9.66673 14.4997C9.66673 11.8299 11.8308 9.6666 14.4998 9.6666C17.1689 9.6666 19.3329 11.8299 19.3329 14.4997C19.3329 17.1695 17.1689 19.3335 14.4998 19.3335Z" fill="white"/>
</svg>
