<svg width="29" height="15" viewBox="0 0 29 15" fill="none" xmlns="http://www.w3.org/2000/svg">
<path d="M0.332254 6.69814C0.332594 6.6978 0.332876 6.6974 0.333273 6.69706L6.25245 0.806438C6.69588 0.365151 7.41313 0.366793 7.85453 0.810289C8.29587 1.25373 8.29417 1.97097 7.85073 2.41231L3.8766 6.36719H27.8672C28.4928 6.36719 29 6.87435 29 7.5C29 8.12565 28.4928 8.63281 27.8672 8.63281H3.87665L7.85067 12.5877C8.29411 13.029 8.29581 13.7463 7.85447 14.1897C7.41307 14.6333 6.69577 14.6348 6.25239 14.1936L0.333216 8.30294C0.332876 8.3026 0.332594 8.3022 0.332197 8.30186C-0.111469 7.85905 -0.110052 7.13948 0.332254 6.69814Z" fill="#181818"/>
</svg>
