<svg width="37" height="37" viewBox="0 0 37 37" fill="none" xmlns="http://www.w3.org/2000/svg">
<g filter="url(#filter0_d_1742_1813)">
<path d="M13.0629 23.959H9.0981V11.1582H13.0629V23.959ZM13.4585 7.07986C13.4585 5.79814 12.4187 4.75781 11.1376 4.75781C9.85168 4.75781 8.81445 5.79814 8.81445 7.07986C8.81445 8.36201 9.85168 9.40234 11.1376 9.40234C12.4187 9.40234 13.4585 8.36201 13.4585 7.07986ZM27.9023 16.9165C27.9023 13.4802 27.1764 10.9316 23.1622 10.9316C21.2334 10.9316 19.9386 11.8963 19.41 12.8995H19.4062V11.1582H15.5547V23.959H19.4062V17.6033C19.4062 15.9388 19.8299 14.3263 21.8931 14.3263C23.9282 14.3263 23.9941 16.2298 23.9941 17.709V23.959H27.9023V16.9165ZM33 25.6016V3.39844C33 1.52443 31.4756 0 29.6016 0H7.39844C5.52443 0 4 1.52443 4 3.39844V25.6016C4 27.4756 5.52443 29 7.39844 29H29.6016C31.4756 29 33 27.4756 33 25.6016ZM29.6016 2.26562C30.2262 2.26562 30.7344 2.77384 30.7344 3.39844V25.6016C30.7344 26.2262 30.2262 26.7344 29.6016 26.7344H7.39844C6.77384 26.7344 6.26562 26.2262 6.26562 25.6016V3.39844C6.26562 2.77384 6.77384 2.26562 7.39844 2.26562H29.6016Z" fill="white"/>
</g>
<defs>
<filter id="filter0_d_1742_1813" x="0" y="0" width="37" height="37" filterUnits="userSpaceOnUse" color-interpolation-filters="sRGB">
<feFlood flood-opacity="0" result="BackgroundImageFix"/>
<feColorMatrix in="SourceAlpha" type="matrix" values="0 0 0 0 0 0 0 0 0 0 0 0 0 0 0 0 0 0 127 0" result="hardAlpha"/>
<feOffset dy="4"/>
<feGaussianBlur stdDeviation="2"/>
<feComposite in2="hardAlpha" operator="out"/>
<feColorMatrix type="matrix" values="0 0 0 0 0 0 0 0 0 0 0 0 0 0 0 0 0 0 0.25 0"/>
<feBlend mode="normal" in2="BackgroundImageFix" result="effect1_dropShadow_1742_1813"/>
<feBlend mode="normal" in="SourceGraphic" in2="effect1_dropShadow_1742_1813" result="shape"/>
</filter>
</defs>
</svg>
