<svg width="29" height="29" viewBox="0 0 29 29" fill="none" xmlns="http://www.w3.org/2000/svg">
<path d="M26.3306 6.3702C23.2866 6.3702 20.8101 3.89365 20.8101 0.849609C20.8101 0.380398 20.4297 0 19.9605 0H15.4103C14.9411 0 14.5607 0.380398 14.5607 0.849609V19.5052C14.5607 21.2947 13.1048 22.7506 11.3152 22.7506C9.52559 22.7506 8.0697 21.2947 8.0697 19.5052C8.0697 17.7155 9.52559 16.2596 11.3152 16.2596C11.7844 16.2596 12.1648 15.8792 12.1648 15.41V10.8598C12.1648 10.3906 11.7844 10.0102 11.3152 10.0102C6.07969 10.0102 1.82031 14.2696 1.82031 19.5052C1.82037 24.7406 6.07969 29 11.3152 29C16.5507 29 20.8102 24.7406 20.8102 19.5052V11.2475C22.5012 12.149 24.3827 12.6196 26.3306 12.6196C26.7999 12.6196 27.1802 12.2392 27.1802 11.77V7.21981C27.1802 6.7506 26.7998 6.3702 26.3306 6.3702ZM25.481 10.8852C23.6672 10.7344 21.9448 10.1007 20.4567 9.03016C20.1979 8.84404 19.8567 8.81838 19.573 8.96372C19.2894 9.10911 19.1109 9.40104 19.1109 9.71981V19.5052C19.1109 23.8037 15.6137 27.3008 11.3152 27.3008C7.01664 27.3008 3.51953 23.8037 3.51953 19.5052C3.51953 15.4936 6.56516 12.1801 10.4655 11.7554V14.6334C8.14231 15.0373 6.37048 17.0682 6.37048 19.5052C6.37048 22.2317 8.58864 24.4498 11.3152 24.4498C14.0417 24.4498 16.2599 22.2317 16.2599 19.5052V1.69922H19.1606C19.5496 5.0025 22.1777 7.63068 25.4809 8.01969V10.8852H25.481Z" fill="white"/>
</svg>
