<svg width="42" height="42" viewBox="0 0 42 42" fill="none" xmlns="http://www.w3.org/2000/svg">
<path d="M35.4375 8.20312C34.9847 8.20312 34.6172 8.57063 34.6172 9.02344C34.6172 9.47625 34.9847 9.84375 35.4375 9.84375C35.8903 9.84375 36.2578 9.47625 36.2578 9.02344C36.2578 8.57063 35.8903 8.20312 35.4375 8.20312Z" fill="url(#paint0_linear_1627_1080)"/>
<path d="M6.5625 8.20312C6.10969 8.20312 5.74219 8.57063 5.74219 9.02344C5.74219 9.47625 6.10969 9.84375 6.5625 9.84375C7.01531 9.84375 7.38281 9.47625 7.38281 9.02344C7.38281 8.57063 7.01531 8.20312 6.5625 8.20312Z" fill="url(#paint1_linear_1627_1080)"/>
<path d="M41.1797 18.0468H40.1986C39.892 15.684 39.1511 13.4323 37.9884 11.3445C37.7679 10.9488 37.2684 10.8064 36.8726 11.0268C36.4768 11.2473 36.3345 11.7468 36.5549 12.1426C37.581 13.9853 38.2486 15.9676 38.5444 18.0468H37.8984C37.4454 18.0468 37.0781 18.4141 37.0781 18.8671V22.1484C37.0781 22.6015 37.4454 22.9687 37.8984 22.9687H41.1797C41.6328 22.9687 42 22.6015 42 22.1484V18.8671C42 18.4141 41.6328 18.0468 41.1797 18.0468ZM40.3594 21.3281H38.7188V19.6875H39.4634C39.4637 19.6875 39.464 19.6875 39.4643 19.6875C39.4646 19.6875 39.4648 19.6875 39.4652 19.6875H40.3594V21.3281Z" fill="url(#paint2_linear_1627_1080)"/>
<path d="M30.0219 24.0041C30.0214 23.9914 30.0211 23.9786 30.02 23.9659C30.0185 23.9485 30.0161 23.9314 30.0136 23.9143C30.012 23.9038 30.0108 23.8933 30.0088 23.8828C30.005 23.8627 30.0001 23.843 29.9949 23.8234C29.9929 23.816 29.9914 23.8085 29.9891 23.8011C29.9818 23.7766 29.9733 23.7526 29.9638 23.729C29.9627 23.7265 29.962 23.7238 29.9609 23.7212C29.9496 23.6938 29.9369 23.6672 29.9228 23.6414L21.7198 8.63002C21.576 8.36686 21.3 8.20312 21 8.20312C20.7 8.20312 20.424 8.36686 20.2802 8.6301L12.0772 23.6415C12.0631 23.6672 12.0504 23.6939 12.0391 23.7213C12.038 23.7238 12.0373 23.7265 12.0362 23.7291C12.0267 23.7526 12.0182 23.7767 12.0109 23.8012C12.0086 23.8086 12.0071 23.8161 12.0051 23.8235C11.9999 23.8431 11.995 23.8627 11.9912 23.8829C11.9893 23.8933 11.988 23.9038 11.9864 23.9144C11.9839 23.9315 11.9815 23.9486 11.98 23.966C11.9789 23.9787 11.9785 23.9914 11.9781 24.0041C11.9777 24.0145 11.9766 24.0247 11.9766 24.0352C11.9766 24.0406 11.9773 24.0457 11.9774 24.0512C11.9776 24.064 11.9784 24.0768 11.9794 24.0897C11.9804 24.106 11.9817 24.1223 11.9838 24.1384C11.9853 24.1497 11.9871 24.1609 11.9889 24.1722C11.9919 24.1899 11.9954 24.2075 11.9995 24.2248C12.0018 24.2346 12.0044 24.2443 12.0071 24.254C12.0122 24.2727 12.0182 24.2911 12.0246 24.3092C12.0264 24.3144 12.0275 24.3196 12.0295 24.3248L14.9878 32.1645C14.7505 32.2821 14.531 32.4384 14.3382 32.6311C13.8732 33.0961 13.6172 33.714 13.6172 34.3711C13.6172 35.4405 14.3031 36.3523 15.2578 36.6909V41.1797C15.2578 41.6327 15.6251 42 16.0781 42H25.9219C26.3749 42 26.7422 41.6327 26.7422 41.1797V36.6923C27.0842 36.5717 27.3978 36.3752 27.6619 36.1111C28.1268 35.6461 28.3828 35.0282 28.3828 34.3711C28.3828 33.4053 27.8234 32.5682 27.0118 32.1655L29.9706 24.3248C29.9726 24.3196 29.9737 24.3144 29.9755 24.3092C29.9819 24.2911 29.9878 24.2727 29.993 24.254C29.9957 24.2443 29.9982 24.2346 30.0006 24.2248C30.0047 24.2075 30.0081 24.1899 30.0111 24.1722C30.013 24.1609 30.0149 24.1497 30.0163 24.1384C30.0184 24.1223 30.0197 24.106 30.0207 24.0897C30.0216 24.0768 30.0225 24.064 30.0227 24.0512C30.0228 24.0458 30.0235 24.0406 30.0235 24.0352C30.0234 24.0247 30.0223 24.0145 30.0219 24.0041ZM21 23.2148C21.4523 23.2148 21.8203 23.5828 21.8203 24.0352C21.8203 24.4875 21.4523 24.8555 21 24.8555C20.5477 24.8555 20.1797 24.4875 20.1797 24.0352C20.1797 23.5828 20.5477 23.2148 21 23.2148ZM25.1016 40.3594H16.8984V36.832H25.1016V40.3594ZM26.5018 34.9509C26.3467 35.106 26.1407 35.1914 25.9219 35.1914H16.0781C15.6258 35.1914 15.2578 34.8234 15.2578 34.3711C15.2578 34.1522 15.3432 33.9463 15.4982 33.7913C15.6534 33.6362 15.8593 33.5508 16.0781 33.5508H25.9164C25.9182 33.5508 25.92 33.551 25.9218 33.551C25.9227 33.551 25.9237 33.5509 25.9246 33.5509C26.3757 33.5524 26.7423 33.9197 26.7423 34.3711C26.7422 34.59 26.6568 34.7959 26.5018 34.9509ZM25.3546 31.9102H16.6454L13.9832 24.8555H16.0781C16.5312 24.8555 16.8984 24.4882 16.8984 24.0352C16.8984 23.5821 16.5312 23.2148 16.0781 23.2148H14.1799L20.1797 12.2353V21.7153C19.2249 22.0539 18.5391 22.9657 18.5391 24.0352C18.5391 25.3921 19.643 26.4961 21 26.4961C22.357 26.4961 23.4609 25.3921 23.4609 24.0352C23.4609 22.9658 22.7751 22.0539 21.8203 21.7153V12.2353L27.8201 23.2148H25.9219C25.4688 23.2148 25.1016 23.5821 25.1016 24.0352C25.1016 24.4882 25.4688 24.8555 25.9219 24.8555H28.0168L25.3546 31.9102Z" fill="url(#paint3_linear_1627_1080)"/>
<path d="M5.12736 11.0269C4.73148 10.8064 4.23191 10.9487 4.01157 11.3445C2.84895 13.4324 2.10796 15.6841 1.80141 18.0469H0.820312C0.367254 18.0469 0 18.4142 0 18.8672V22.1485C0 22.6015 0.367254 22.9688 0.820312 22.9688H4.10156C4.55462 22.9688 4.92188 22.6015 4.92188 22.1485V18.8672C4.92188 18.4142 4.55462 18.0469 4.10156 18.0469H3.45557C3.75145 15.9677 4.41894 13.9854 5.44499 12.1427C5.66541 11.7469 5.52325 11.2473 5.12736 11.0269ZM3.28125 21.3282H1.64062V19.6875H2.53485C2.53518 19.6875 2.53542 19.6875 2.53575 19.6875C2.536 19.6875 2.53632 19.6875 2.53657 19.6875H3.28125V21.3282Z" fill="url(#paint4_linear_1627_1080)"/>
<path d="M39.5391 0C38.4697 0 37.5578 0.685863 37.2192 1.64062H23.4609V0.820312C23.4609 0.367254 23.0937 0 22.6406 0H19.3594C18.9063 0 18.5391 0.367254 18.5391 0.820312V1.64062H4.78078C4.44216 0.685863 3.5303 0 2.46094 0C1.10398 0 0 1.10398 0 2.46094C0 3.8179 1.10398 4.92188 2.46094 4.92188C3.5303 4.92188 4.44216 4.23601 4.78078 3.28125H13.0277C11.2781 4.01338 9.67354 4.96379 8.35283 6.0772C8.00641 6.36923 7.96236 6.88677 8.25439 7.23311C8.41665 7.42563 8.64855 7.52473 8.88193 7.52473C9.06864 7.52473 9.25632 7.4614 9.41021 7.33162C11.7639 5.34745 15.1227 3.93036 18.5391 3.45507V4.10156C18.5391 4.55462 18.9063 4.92188 19.3594 4.92188H22.6406C23.0937 4.92188 23.4609 4.55462 23.4609 4.10156V3.45507C26.8773 3.93036 30.2361 5.34745 32.5898 7.33154C32.7437 7.46132 32.9314 7.52473 33.1181 7.52464C33.3515 7.52464 33.5834 7.42555 33.7456 7.23302C34.0377 6.88677 33.9936 6.36923 33.6472 6.0772C32.3265 4.96379 30.7219 4.01338 28.9723 3.28125H37.2192C37.5578 4.23601 38.4696 4.92188 39.5391 4.92188C40.896 4.92188 42 3.8179 42 2.46094C42 1.10398 40.896 0 39.5391 0ZM2.46094 3.28125C2.00862 3.28125 1.64062 2.91326 1.64062 2.46094C1.64062 2.00862 2.00862 1.64062 2.46094 1.64062C2.91326 1.64062 3.28125 2.00862 3.28125 2.46094C3.28125 2.91326 2.91326 3.28125 2.46094 3.28125ZM21.8203 2.46094V2.53477V3.28125H20.1797V2.53477V2.46094V1.64062H21.8203V2.46094ZM39.5391 3.28125C39.0867 3.28125 38.7188 2.91326 38.7188 2.46094C38.7188 2.00862 39.0867 1.64062 39.5391 1.64062C39.9914 1.64062 40.3594 2.00862 40.3594 2.46094C40.3594 2.91326 39.9914 3.28125 39.5391 3.28125Z" fill="url(#paint5_linear_1627_1080)"/>
<defs>
<linearGradient id="paint0_linear_1627_1080" x1="35.4375" y1="8.20312" x2="35.4375" y2="9.84375" gradientUnits="userSpaceOnUse">
<stop offset="0.0694443" stop-color="white"/>
<stop offset="1" stop-color="#47F258"/>
</linearGradient>
<linearGradient id="paint1_linear_1627_1080" x1="6.5625" y1="8.20312" x2="6.5625" y2="9.84375" gradientUnits="userSpaceOnUse">
<stop offset="0.0694443" stop-color="white"/>
<stop offset="1" stop-color="#47F258"/>
</linearGradient>
<linearGradient id="paint2_linear_1627_1080" x1="39.2256" y1="10.9231" x2="39.2256" y2="22.9687" gradientUnits="userSpaceOnUse">
<stop offset="0.0694443" stop-color="white"/>
<stop offset="1" stop-color="#47F258"/>
</linearGradient>
<linearGradient id="paint3_linear_1627_1080" x1="21" y1="8.20312" x2="21" y2="42" gradientUnits="userSpaceOnUse">
<stop offset="0.0694443" stop-color="white"/>
<stop offset="1" stop-color="#47F258"/>
</linearGradient>
<linearGradient id="paint4_linear_1627_1080" x1="2.77439" y1="10.9231" x2="2.77439" y2="22.9688" gradientUnits="userSpaceOnUse">
<stop offset="0.0694443" stop-color="white"/>
<stop offset="1" stop-color="#47F258"/>
</linearGradient>
<linearGradient id="paint5_linear_1627_1080" x1="21" y1="0" x2="21" y2="7.52473" gradientUnits="userSpaceOnUse">
<stop offset="0.0694443" stop-color="white"/>
<stop offset="1" stop-color="#47F258"/>
</linearGradient>
</defs>
</svg>
