<svg width="29" height="29" viewBox="0 0 29 29" fill="none" xmlns="http://www.w3.org/2000/svg">
<g clip-path="url(#clip0_1742_1809)">
<path d="M24.8809 4.11906C22.2246 1.4627 18.6936 0 14.9368 0C14.9365 0 14.9356 0 14.9354 0C13.0773 0.000221252 11.2666 0.359978 9.5539 1.06953C7.84097 1.77909 6.30636 2.80504 4.99234 4.11906C2.33621 6.77519 0.873508 10.3068 0.873508 14.0632C0.873508 16.3034 1.41403 18.5297 2.43821 20.5132L0.0743441 27.2663C-0.0922589 27.7426 0.0256686 28.2604 0.38277 28.6172C0.632564 28.8672 0.961345 29 1.29942 29C1.44434 29 1.59081 28.9757 1.73374 28.9257L8.4868 26.562C10.4703 27.5862 12.6966 28.1267 14.9368 28.1267C18.6932 28.1267 22.2246 26.6638 24.8809 24.0077C27.5371 21.3515 29 17.8199 29 14.0635C29 10.3068 27.5373 6.77519 24.8809 4.11906ZM23.6782 22.8049C21.3433 25.14 18.2387 26.4257 14.9368 26.4257C12.9167 26.4257 10.91 25.9261 9.1333 24.9805C8.81116 24.8093 8.43038 24.7798 8.08855 24.8995L1.95322 27.0468L4.1007 20.9115C4.22039 20.5692 4.19075 20.1884 4.0195 19.8665C3.07408 18.0903 2.57428 16.0835 2.57428 14.0632C2.57428 10.7613 3.86019 7.65666 6.19507 5.32178C8.52973 2.98713 11.6339 1.70121 14.9356 1.70077H14.9368C18.2389 1.70077 21.3433 2.98669 23.6782 5.32178C26.0133 7.65666 27.2992 10.7611 27.2992 14.0632C27.2992 17.3654 26.0133 20.4701 23.6782 22.8049Z" fill="white"/>
<path d="M20.163 15.3195C19.5161 14.6726 18.4634 14.6726 17.8164 15.3195L17.1089 16.0271C15.3519 15.0697 13.9301 13.648 12.9725 11.891L13.6801 11.1834C14.3273 10.5365 14.3273 9.48379 13.6801 8.83685L11.7734 6.93009C11.1264 6.28315 10.0737 6.28315 9.42675 6.93009L7.90144 8.45541C7.02771 9.32913 6.98412 10.8312 7.77864 12.6851C8.46851 14.2947 9.73097 16.0638 11.3335 17.6664C12.936 19.2689 14.7052 20.5314 16.3148 21.2212C17.1956 21.5987 17.9967 21.787 18.689 21.787C19.4539 21.787 20.0858 21.5571 20.5445 21.0984L22.0698 19.5729V19.5731C22.3833 19.2596 22.5559 18.843 22.5559 18.3998C22.5559 17.9564 22.3833 17.5398 22.0698 17.2265L20.163 15.3195ZM19.3417 19.8957C19.0924 20.1451 18.3255 20.2325 16.985 19.6581C15.5694 19.0514 13.9894 17.9168 12.5362 16.4636C11.083 15.0105 9.94868 13.4307 9.34201 12.0151C8.76742 10.6746 8.85481 9.90749 9.10416 9.65813L10.6003 8.16203L12.4482 10.0101L11.5625 10.896C11.162 11.2965 11.0653 11.9038 11.3222 12.4074C12.4867 14.6907 14.3091 16.5132 16.5925 17.6777C17.0962 17.9345 17.7036 17.8381 18.104 17.4374L18.9897 16.5517L20.8378 18.3998L19.3417 19.8957Z" fill="white"/>
</g>
<defs>
<clipPath id="clip0_1742_1809">
<rect width="29" height="29" fill="white"/>
</clipPath>
</defs>
</svg>
