<svg width="48" height="48" viewBox="0 0 48 48" fill="none" xmlns="http://www.w3.org/2000/svg">
<path d="M47.25 16.152C47.25 14.2762 45.7238 12.75 43.848 12.75C42.9398 12.75 42.0848 13.104 41.4427 13.7467L39.2197 15.9697L36.75 18.4395V11.19C39.2902 10.824 41.25 8.63925 41.25 6C41.25 3.105 38.895 0.75 36 0.75H6C3.105 0.75 0.75 3.105 0.75 6V43.5C0.75 43.914 1.086 44.25 1.5 44.25H5.25V46.5C5.25 46.914 5.586 47.25 6 47.25H36C36.414 47.25 36.75 46.914 36.75 46.5V28.0605L44.0303 20.7803L44.8005 20.01C44.412 21.945 43.4647 23.724 42.0382 25.1512L38.4705 28.719L39.531 29.7795L43.0988 26.2118C45.2272 24.0833 46.4175 21.2723 46.4873 18.273C46.9725 17.6715 47.25 16.9365 47.25 16.152ZM42.5033 14.8073C42.8625 14.448 43.3403 14.25 43.848 14.25C44.8965 14.25 45.75 15.1035 45.75 16.152C45.75 16.6597 45.552 17.1375 45.1927 17.4967L43.5 19.1895L40.8105 16.5L42.5033 14.8073ZM39.75 17.5605L40.5645 18.375L31.125 27.8145L30.3105 27L39.75 17.5605ZM21.9128 37.3522L23.4555 34.266L25.734 36.5445L22.6478 38.0872L21.9128 37.3522ZM24.3105 33L29.25 28.0605L31.9395 30.75L27 35.6895L24.3105 33ZM36 2.25C38.0677 2.25 39.75 3.93225 39.75 6C39.75 8.06775 38.0677 9.75 36 9.75H9.6675C10.6425 8.796 11.25 7.4685 11.25 6C11.25 4.5315 10.6425 3.204 9.6675 2.25H36ZM6.75 9.67425V7.5C6.75 7.08675 7.08675 6.75 7.5 6.75H9.67425C9.375 8.217 8.217 9.375 6.75 9.67425ZM2.25 42.75V6C2.25 3.93225 3.93225 2.25 6 2.25C7.8105 2.25 9.3255 3.54075 9.67425 5.25H7.5C6.2595 5.25 5.25 6.2595 5.25 7.5V42.75H2.25ZM35.25 45.75H6.75V11.25H35.25V19.9395L31.9395 23.25H9.75V24.75H30.4395L28.9395 26.25H9.75V27.75H27.4395L22.7197 32.4697C22.6612 32.5282 22.623 32.598 22.5877 32.6685L22.5795 32.664L20.3295 37.164C20.1855 37.4527 20.2418 37.8015 20.4705 38.0295L20.6895 38.25L18.9697 39.9697L20.0303 41.0303L21.75 39.3105L21.9697 39.5303C22.1137 39.6743 22.3057 39.75 22.5 39.75C22.6133 39.75 22.7288 39.7238 22.8353 39.6712L27.3352 37.4212L27.3308 37.413C27.4013 37.3778 27.471 37.3395 27.5295 37.281L33.5295 31.281L35.25 29.5605V45.75ZM33 29.6895L32.1855 28.875L41.625 19.4355L42.4395 20.25L33 29.6895Z" fill="url(#paint0_linear_1627_1253)"/>
<path d="M9.75 14.25H32.25V15.75H9.75V14.25Z" fill="url(#paint1_linear_1627_1253)"/>
<path d="M9.75 17.25H32.25V18.75H9.75V17.25Z" fill="url(#paint2_linear_1627_1253)"/>
<path d="M9.75 20.25H32.25V21.75H9.75V20.25Z" fill="url(#paint3_linear_1627_1253)"/>
<path d="M9.75 38.25H18V39.75H9.75V38.25Z" fill="url(#paint4_linear_1627_1253)"/>
<path d="M9.75 41.25H32.25V42.75H9.75V41.25Z" fill="url(#paint5_linear_1627_1253)"/>
<defs>
<linearGradient id="paint0_linear_1627_1253" x1="24" y1="0.75" x2="24" y2="47.25" gradientUnits="userSpaceOnUse">
<stop offset="0.0694443" stop-color="white"/>
<stop offset="1" stop-color="#47F258"/>
</linearGradient>
<linearGradient id="paint1_linear_1627_1253" x1="21" y1="14.25" x2="21" y2="15.75" gradientUnits="userSpaceOnUse">
<stop offset="0.0694443" stop-color="white"/>
<stop offset="1" stop-color="#47F258"/>
</linearGradient>
<linearGradient id="paint2_linear_1627_1253" x1="21" y1="17.25" x2="21" y2="18.75" gradientUnits="userSpaceOnUse">
<stop offset="0.0694443" stop-color="white"/>
<stop offset="1" stop-color="#47F258"/>
</linearGradient>
<linearGradient id="paint3_linear_1627_1253" x1="21" y1="20.25" x2="21" y2="21.75" gradientUnits="userSpaceOnUse">
<stop offset="0.0694443" stop-color="white"/>
<stop offset="1" stop-color="#47F258"/>
</linearGradient>
<linearGradient id="paint4_linear_1627_1253" x1="13.875" y1="38.25" x2="13.875" y2="39.75" gradientUnits="userSpaceOnUse">
<stop offset="0.0694443" stop-color="white"/>
<stop offset="1" stop-color="#47F258"/>
</linearGradient>
<linearGradient id="paint5_linear_1627_1253" x1="21" y1="41.25" x2="21" y2="42.75" gradientUnits="userSpaceOnUse">
<stop offset="0.0694443" stop-color="white"/>
<stop offset="1" stop-color="#47F258"/>
</linearGradient>
</defs>
</svg>
