<svg width="179" height="85" viewBox="0 0 179 85" fill="none" xmlns="http://www.w3.org/2000/svg">
<path d="M74.6387 23.9644C74.6387 26.7218 73.514 29.2074 71.73 31.0327C69.946 32.858 67.4251 33.9455 64.6715 33.9455H35.8947C27.7892 33.9455 21.2349 40.5089 21.2349 48.6258C21.2349 49.3637 21.3125 50.0628 21.39 50.7619C19.4509 46.9559 18.3262 42.3731 18.3262 37.402C18.3262 26.1392 24.1436 16.7795 31.9389 14.4882C33.1024 14.1386 34.3434 13.9833 35.5845 13.9833H64.7103C70.1787 13.9833 74.6387 18.4495 74.6387 23.9644Z" fill="#BE123C"/>
<path d="M56.7596 47.6161C56.7596 50.3735 55.6349 52.8591 53.7734 54.6844C51.9506 56.5097 49.3909 57.5972 46.5986 57.5972H40.5873C34.1105 57.5972 28.4095 60.8595 25.1129 65.8306C23.1738 62.9567 22.0879 59.539 22.0879 55.8495C22.0879 53.8688 22.3981 51.9658 22.9799 50.2182C25.3844 42.9168 32.3653 37.6738 40.5873 37.6738H46.5986C51.9506 37.6738 56.3718 41.7905 56.7209 46.9947C56.7596 47.15 56.7596 47.3831 56.7596 47.6161Z" fill="#BE123C"/>
<path d="M31.6672 71.7338C33.8948 71.7338 35.7006 69.9255 35.7006 67.6948C35.7006 65.4641 33.8948 63.6558 31.6672 63.6558C29.4396 63.6558 27.6338 65.4641 27.6338 67.6948C27.6338 69.9255 29.4396 71.7338 31.6672 71.7338Z" fill="#BE123C"/>
<path d="M84.3346 39.6934V44.3926H92.5565V47.6938H84.3346V54.1795H80.2236V36.3922H93.6425V39.6934H84.3346Z" fill="#BE123C"/>
<path d="M98.4512 53.4805C97.3265 52.8979 96.4345 52.0435 95.7752 50.9949C95.1159 49.9463 94.8057 48.7035 94.8057 47.3443C94.8057 45.985 95.1159 44.781 95.7752 43.6936C96.4345 42.645 97.3265 41.7906 98.4512 41.208C99.5759 40.6255 100.895 40.3148 102.33 40.3148C103.764 40.3148 105.044 40.6255 106.169 41.208C107.294 41.7906 108.186 42.645 108.845 43.6936C109.504 44.7422 109.815 45.985 109.815 47.3443C109.815 48.7035 109.504 49.9075 108.845 50.9949C108.186 52.0435 107.332 52.8979 106.169 53.4805C105.044 54.0631 103.764 54.3737 102.33 54.3737C100.856 54.3737 99.5759 54.1019 98.4512 53.4805ZM104.812 50.1017C105.471 49.4026 105.781 48.5094 105.781 47.3443C105.781 46.1791 105.471 45.2859 104.812 44.5868C104.152 43.8878 103.338 43.5771 102.33 43.5771C101.321 43.5771 100.468 43.9266 99.8086 44.5868C99.1493 45.2859 98.8003 46.1791 98.8003 47.3443C98.8003 48.5094 99.1493 49.4026 99.8086 50.1017C100.468 50.8007 101.321 51.1114 102.33 51.1114C103.338 51.1114 104.152 50.8007 104.812 50.1017Z" fill="#BE123C"/>
<path d="M115.051 53.4805C113.926 52.8979 113.034 52.0435 112.375 50.9949C111.716 49.9463 111.405 48.7035 111.405 47.3443C111.405 45.985 111.716 44.781 112.375 43.6936C113.034 42.645 113.926 41.7906 115.051 41.208C116.176 40.6255 117.494 40.3148 118.929 40.3148C120.364 40.3148 121.644 40.6255 122.769 41.208C123.893 41.7906 124.785 42.645 125.445 43.6936C126.104 44.7422 126.414 45.985 126.414 47.3443C126.414 48.7035 126.104 49.9075 125.445 50.9949C124.785 52.0435 123.932 52.8979 122.769 53.4805C121.644 54.0631 120.364 54.3737 118.929 54.3737C117.494 54.3737 116.214 54.1019 115.051 53.4805ZM121.411 50.1017C122.071 49.4026 122.381 48.5094 122.381 47.3443C122.381 46.1791 122.071 45.2859 121.411 44.5868C120.752 43.8878 119.937 43.5771 118.929 43.5771C117.921 43.5771 117.068 43.9266 116.408 44.5868C115.749 45.2859 115.4 46.1791 115.4 47.3443C115.4 48.5094 115.749 49.4026 116.408 50.1017C117.068 50.8007 117.921 51.1114 118.929 51.1114C119.937 51.1114 120.791 50.8007 121.411 50.1017Z" fill="#BE123C"/>
<path d="M142.935 35.3436V54.1796H139.173V52.5872C138.203 53.7912 136.768 54.3737 134.907 54.3737C133.627 54.3737 132.464 54.1019 131.416 53.5193C130.369 52.9368 129.555 52.1212 128.973 51.0726C128.391 50.024 128.081 48.7812 128.081 47.3442C128.081 45.9461 128.391 44.7033 128.973 43.6159C129.555 42.5673 130.369 41.7129 131.416 41.1692C132.464 40.5866 133.627 40.3148 134.907 40.3148C136.652 40.3148 138.009 40.8585 138.979 41.9847V35.3436H142.935ZM138.087 50.1017C138.746 49.4026 139.095 48.5094 139.095 47.3442C139.095 46.1791 138.746 45.2859 138.087 44.5868C137.428 43.8878 136.613 43.5771 135.605 43.5771C134.597 43.5771 133.743 43.9266 133.084 44.5868C132.425 45.2859 132.076 46.1791 132.076 47.3442C132.076 48.5094 132.425 49.4026 133.084 50.1017C133.743 50.8007 134.597 51.1114 135.605 51.1114C136.574 51.1114 137.428 50.8007 138.087 50.1017Z" fill="#BE123C"/>
<path d="M160.155 40.5089L153.988 55.0339C153.368 56.6263 152.592 57.7137 151.661 58.3739C150.731 59.0341 149.645 59.3448 148.326 59.3448C147.628 59.3448 146.93 59.2283 146.232 58.9953C145.534 58.7623 144.991 58.4516 144.525 58.0632L145.96 55.2281C146.271 55.5 146.62 55.6942 147.007 55.8495C147.395 56.0049 147.783 56.0826 148.171 56.0826C148.714 56.0826 149.141 55.966 149.49 55.6942C149.839 55.4223 150.149 54.9951 150.42 54.3737L150.459 54.2572L144.564 40.4701H148.636L152.476 49.7521L156.315 40.4701H160.155V40.5089Z" fill="#BE123C"/>
</svg>
