<svg width="609" height="608" viewBox="0 0 609 608" fill="none" xmlns="http://www.w3.org/2000/svg">
<g filter="url(#filter0_f_1742_1593)">
<path d="M305.62 10.186C295.913 48.4623 301.412 128.858 301.412 264.351H307.021C307.021 128.858 314.753 50.1503 305.62 10.186Z" fill="white" fill-opacity="0.2"/>
<path d="M305.62 597.944C295.913 559.667 301.412 479.271 301.412 343.778H307.021C307.021 479.271 314.753 557.98 305.62 597.944Z" fill="white" fill-opacity="0.2"/>
<path d="M229.497 20.0319C230.033 59.5148 256.163 135.749 291.25 266.626L296.669 265.175C261.582 134.298 248.668 56.2719 229.497 20.0319Z" fill="white" fill-opacity="0.2"/>
<path d="M381.699 587.762C362.412 553.301 346.905 474.221 311.818 343.345L317.237 341.894C352.323 472.77 380.172 546.798 381.699 587.762Z" fill="white" fill-opacity="0.2"/>
<path d="M158.519 49.2332C169.26 87.2327 214.241 154.11 282.023 271.45L286.881 268.646C219.1 151.306 186.42 79.2787 158.519 49.2332Z" fill="white" fill-opacity="0.2"/>
<path d="M452.548 558.247C424.995 529.949 389.538 457.576 321.757 340.235L326.614 337.432C394.396 454.772 440.466 519.073 452.548 558.247Z" fill="white" fill-opacity="0.2"/>
<path d="M97.5176 95.8022C117.735 129.727 178.501 182.69 274.358 278.497L278.325 274.533C182.467 178.725 132.25 117.606 97.5176 95.8022Z" fill="white" fill-opacity="0.2"/>
<path d="M513.343 511.409C479.399 491.203 426.408 430.468 330.552 334.66L334.518 330.696C430.376 426.503 491.526 476.695 513.343 511.409Z" fill="white" fill-opacity="0.2"/>
<path d="M50.6553 156.562C78.9674 184.103 151.379 219.54 268.78 287.287L271.585 282.431C154.184 214.685 89.8495 168.64 50.6553 156.562Z" fill="white" fill-opacity="0.2"/>
<path d="M559.933 450.441C521.913 439.705 455.002 394.746 337.601 327L340.404 322.144C457.805 389.891 529.87 422.554 559.933 450.441Z" fill="white" fill-opacity="0.2"/>
<path d="M21.125 227.375C55.6039 246.653 134.725 262.152 265.668 297.22L267.12 291.804C136.177 256.737 62.1113 228.903 21.125 227.375Z" fill="white" fill-opacity="0.2"/>
<path d="M589.148 379.499C549.645 378.962 473.372 352.845 342.427 317.778L343.878 312.362C474.823 347.43 552.889 360.338 589.148 379.499Z" fill="white" fill-opacity="0.2"/>
<path d="M598.999 304.715C560.703 295.014 480.265 300.51 344.701 300.511V306.117C480.265 306.117 559.014 313.843 598.999 304.715Z" fill="white" fill-opacity="0.2"/>
<path d="M10.9365 304.715C49.2326 295.015 129.672 300.51 265.234 300.511V306.118C129.672 306.118 50.9215 313.843 10.9365 304.715Z" fill="white" fill-opacity="0.2"/>
<path d="M589.148 228.632C549.645 229.167 473.37 255.286 342.427 290.353L343.878 295.769C474.822 260.701 552.889 247.793 589.148 228.632Z" fill="white" fill-opacity="0.2"/>
<path d="M21.123 380.755C55.602 361.478 134.723 345.978 265.666 310.911L267.118 316.325C136.175 351.394 62.1093 379.228 21.123 380.755Z" fill="white" fill-opacity="0.2"/>
<path d="M559.933 157.689C521.913 168.426 455.002 213.384 337.601 281.131L340.404 285.986C457.805 218.24 529.87 185.577 559.933 157.689Z" fill="white" fill-opacity="0.2"/>
<path d="M50.6562 451.568C78.9683 424.028 151.38 388.589 268.781 320.844L271.585 325.7C154.184 393.445 89.8512 439.491 50.6562 451.568Z" fill="white" fill-opacity="0.2"/>
<path d="M513.341 96.7208C479.397 116.927 426.408 177.663 330.55 273.471L334.516 277.435C430.374 181.627 491.524 131.435 513.341 96.7208Z" fill="white" fill-opacity="0.2"/>
<path d="M97.5176 512.329C117.733 478.404 178.5 425.441 274.358 329.634L278.324 333.598C182.467 429.406 132.249 490.525 97.5176 512.329Z" fill="white" fill-opacity="0.2"/>
<path d="M452.548 49.8835C424.993 78.181 389.537 150.555 321.755 267.895L326.613 270.698C394.394 153.358 440.464 89.058 452.548 49.8835Z" fill="white" fill-opacity="0.2"/>
<path d="M158.516 558.897C169.257 520.898 214.24 454.021 282.021 336.681L286.879 339.484C219.098 456.824 186.417 528.851 158.516 558.897Z" fill="white" fill-opacity="0.2"/>
<path d="M381.698 20.3689C362.411 54.8299 346.904 133.91 311.817 264.786L317.236 266.237C352.322 135.361 380.171 61.3339 381.698 20.3689Z" fill="white" fill-opacity="0.2"/>
<path d="M229.496 588.099C230.033 548.616 256.164 472.382 291.249 341.505L296.668 342.956C261.581 473.833 248.667 551.858 229.496 588.099Z" fill="white" fill-opacity="0.2"/>
</g>
<defs>
<filter id="filter0_f_1742_1593" x="0.936523" y="0.186035" width="608.062" height="607.758" filterUnits="userSpaceOnUse" color-interpolation-filters="sRGB">
<feFlood flood-opacity="0" result="BackgroundImageFix"/>
<feBlend mode="normal" in="SourceGraphic" in2="BackgroundImageFix" result="shape"/>
<feGaussianBlur stdDeviation="5" result="effect1_foregroundBlur_1742_1593"/>
</filter>
</defs>
</svg>
