<svg width="720" height="705" viewBox="0 0 720 705" fill="none" xmlns="http://www.w3.org/2000/svg">
<g filter="url(#filter0_f_1742_1590)">
<path d="M359.886 73.1328L408.615 265.876L589.768 183.781L469.38 342.033L646.544 432.406L447.692 436.999L487.46 631.788L359.886 479.264L232.31 631.788L272.078 436.999L73.2256 432.406L250.39 342.033L130.002 183.781L311.156 265.876L359.886 73.1328Z" fill="white" fill-opacity="0.4"/>
</g>
<g filter="url(#filter1_f_1742_1590)">
<path d="M366.62 77.186C356.913 115.462 362.412 195.858 362.412 331.351H368.021C368.021 195.858 375.753 117.15 366.62 77.186Z" fill="white" fill-opacity="0.2"/>
<path d="M366.62 664.944C356.913 626.667 362.412 546.271 362.412 410.778H368.021C368.021 546.271 375.753 624.98 366.62 664.944Z" fill="white" fill-opacity="0.2"/>
<path d="M290.497 87.0319C291.033 126.515 317.163 202.749 352.25 333.626L357.669 332.175C322.582 201.298 309.668 123.272 290.497 87.0319Z" fill="white" fill-opacity="0.2"/>
<path d="M442.699 654.762C423.412 620.301 407.905 541.221 372.818 410.345L378.237 408.894C413.323 539.77 441.172 613.798 442.699 654.762Z" fill="white" fill-opacity="0.2"/>
<path d="M219.519 116.233C230.26 154.233 275.241 221.11 343.023 338.45L347.881 335.646C280.1 218.306 247.42 146.279 219.519 116.233Z" fill="white" fill-opacity="0.2"/>
<path d="M513.548 625.247C485.995 596.949 450.538 524.576 382.757 407.235L387.614 404.432C455.396 521.772 501.466 586.073 513.548 625.247Z" fill="white" fill-opacity="0.2"/>
<path d="M158.518 162.802C178.735 196.727 239.501 249.69 335.358 345.497L339.325 341.533C243.467 245.725 193.25 184.606 158.518 162.802Z" fill="white" fill-opacity="0.2"/>
<path d="M574.343 578.409C540.399 558.203 487.408 497.468 391.552 401.66L395.518 397.696C491.376 493.503 552.526 543.695 574.343 578.409Z" fill="white" fill-opacity="0.2"/>
<path d="M111.655 223.562C139.967 251.103 212.379 286.54 329.78 354.287L332.585 349.431C215.184 281.685 150.849 235.64 111.655 223.562Z" fill="white" fill-opacity="0.2"/>
<path d="M620.933 517.441C582.913 506.705 516.002 461.746 398.601 394L401.404 389.144C518.805 456.891 590.87 489.554 620.933 517.441Z" fill="white" fill-opacity="0.2"/>
<path d="M82.125 294.375C116.604 313.653 195.725 329.152 326.668 364.22L328.12 358.804C197.177 323.737 123.111 295.903 82.125 294.375Z" fill="white" fill-opacity="0.2"/>
<path d="M650.148 446.499C610.645 445.962 534.372 419.845 403.427 384.778L404.878 379.362C535.823 414.43 613.889 427.338 650.148 446.499Z" fill="white" fill-opacity="0.2"/>
<path d="M659.999 371.715C621.703 362.014 541.265 367.51 405.701 367.511V373.117C541.265 373.117 620.014 380.843 659.999 371.715Z" fill="white" fill-opacity="0.2"/>
<path d="M71.9365 371.715C110.233 362.015 190.672 367.51 326.234 367.511V373.118C190.672 373.118 111.922 380.843 71.9365 371.715Z" fill="white" fill-opacity="0.2"/>
<path d="M650.148 295.632C610.645 296.167 534.37 322.286 403.427 357.353L404.878 362.769C535.822 327.701 613.889 314.793 650.148 295.632Z" fill="white" fill-opacity="0.2"/>
<path d="M82.123 447.755C116.602 428.478 195.723 412.978 326.666 377.911L328.118 383.325C197.175 418.394 123.109 446.228 82.123 447.755Z" fill="white" fill-opacity="0.2"/>
<path d="M620.933 224.689C582.913 235.426 516.002 280.384 398.601 348.131L401.404 352.986C518.805 285.24 590.87 252.577 620.933 224.689Z" fill="white" fill-opacity="0.2"/>
<path d="M111.656 518.568C139.968 491.028 212.38 455.589 329.781 387.844L332.585 392.7C215.184 460.445 150.851 506.491 111.656 518.568Z" fill="white" fill-opacity="0.2"/>
<path d="M574.341 163.721C540.397 183.927 487.408 244.663 391.55 340.471L395.516 344.435C491.374 248.627 552.524 198.435 574.341 163.721Z" fill="white" fill-opacity="0.2"/>
<path d="M158.518 579.329C178.733 545.404 239.5 492.441 335.358 396.634L339.324 400.598C243.467 496.406 193.249 557.525 158.518 579.329Z" fill="white" fill-opacity="0.2"/>
<path d="M513.548 116.884C485.993 145.181 450.537 217.555 382.755 334.895L387.613 337.698C455.394 220.358 501.464 156.058 513.548 116.884Z" fill="white" fill-opacity="0.2"/>
<path d="M219.516 625.897C230.257 587.898 275.24 521.021 343.021 403.681L347.879 406.484C280.098 523.824 247.417 595.851 219.516 625.897Z" fill="white" fill-opacity="0.2"/>
<path d="M442.698 87.3689C423.411 121.83 407.904 200.91 372.817 331.786L378.236 333.237C413.322 202.361 441.171 128.334 442.698 87.3689Z" fill="white" fill-opacity="0.2"/>
<path d="M290.496 655.099C291.033 615.616 317.164 539.382 352.249 408.505L357.668 409.956C322.581 540.833 309.667 618.858 290.496 655.099Z" fill="white" fill-opacity="0.2"/>
</g>
<path d="M480.028 110.86L448.241 179.541C446.839 183.278 449.643 185.147 451.513 181.409L480.028 110.86Z" fill="#D9D9D9"/>
<path d="M260.791 633.843L292.578 565.161C293.981 561.424 291.176 559.555 289.306 563.294L260.791 633.843Z" fill="#D9D9D9"/>
<path d="M631.958 262.599L561.125 289.328C557.504 291.011 558.194 294.31 562.148 292.952L631.958 262.599Z" fill="#D9D9D9"/>
<path d="M108.862 482.103L179.696 455.374C183.316 453.691 182.625 450.393 178.671 451.75L108.862 482.103Z" fill="#D9D9D9"/>
<path d="M630.078 486.475L561.928 453.507C558.214 452.04 556.296 454.81 560.001 456.743L630.078 486.475Z" fill="#D9D9D9"/>
<path d="M110.741 258.227L178.89 291.196C182.605 292.663 184.523 289.892 180.818 287.959L110.741 258.227Z" fill="#D9D9D9"/>
<path d="M479.959 633.873L453.287 563.049C451.605 559.429 448.305 560.115 449.659 564.07L479.959 633.873Z" fill="#D9D9D9"/>
<path d="M260.862 110.83L287.533 181.652C289.215 185.273 292.515 184.587 291.161 180.632L260.862 110.83Z" fill="#D9D9D9"/>
<path d="M615.239 335.307C615.15 334.623 614.523 334.14 613.838 334.229C613.837 334.23 613.836 334.23 613.835 334.23C610.986 313.235 605.508 293.075 597.743 274.092C597.744 274.091 597.745 274.091 597.746 274.091C598.384 273.826 598.686 273.095 598.421 272.457C590.014 252.198 579.009 233.287 565.822 216.141C565.402 215.594 564.617 215.492 564.07 215.913C564.069 215.913 564.068 215.914 564.067 215.914C551.287 199.468 536.48 184.673 520.022 171.903C520.022 171.902 520.023 171.901 520.024 171.901C520.444 171.353 520.341 170.568 519.794 170.148C502.64 156.976 483.723 145.984 463.456 137.587C462.819 137.322 462.087 137.625 461.823 138.263C461.823 138.264 461.822 138.265 461.822 138.266C442.836 130.511 422.674 125.041 401.677 122.197C401.677 122.196 401.677 122.195 401.677 122.194C401.767 121.509 401.284 120.882 400.599 120.793C389.945 119.404 379.08 118.688 368.049 118.688C357.017 118.688 346.152 119.404 335.498 120.793C334.813 120.882 334.331 121.509 334.42 122.194C334.42 122.195 334.42 122.196 334.42 122.197C313.424 125.041 293.261 130.511 274.276 138.266C274.275 138.265 274.275 138.264 274.275 138.263C274.01 137.625 273.279 137.322 272.641 137.587C252.375 145.984 233.458 156.976 216.304 170.148C215.756 170.568 215.653 171.353 216.074 171.901C216.074 171.901 216.075 171.902 216.076 171.903C199.617 184.673 184.811 199.468 172.03 215.914C172.03 215.914 172.029 215.913 172.028 215.913C171.481 215.492 170.696 215.594 170.275 216.141C157.089 233.287 146.084 252.198 137.676 272.457C137.412 273.095 137.714 273.826 138.352 274.091C138.353 274.091 138.354 274.091 138.355 274.092C130.589 293.075 125.111 313.235 122.263 334.23C122.262 334.23 122.261 334.23 122.259 334.229C121.575 334.14 120.948 334.623 120.858 335.307C119.467 345.961 118.75 356.826 118.75 367.858C118.75 378.89 119.467 389.755 120.858 400.409C120.948 401.093 121.575 401.576 122.259 401.486C122.261 401.486 122.262 401.486 122.263 401.486C125.111 422.481 130.589 442.641 138.355 461.624C138.354 461.624 138.353 461.625 138.352 461.625C137.714 461.89 137.412 462.621 137.676 463.259C146.084 483.518 157.089 502.428 170.275 519.574C170.696 520.122 171.481 520.224 172.028 519.803C172.029 519.803 172.03 519.802 172.03 519.801C184.811 536.248 199.617 551.043 216.076 563.813C216.075 563.814 216.074 563.814 216.074 563.815C215.653 564.363 215.756 565.147 216.304 565.568C233.458 578.74 252.375 589.732 272.641 598.129C273.279 598.393 274.01 598.091 274.275 597.453C274.275 597.452 274.275 597.451 274.276 597.45C293.262 605.204 313.424 610.675 334.42 613.519C334.42 613.52 334.42 613.521 334.42 613.522C334.331 614.207 334.813 614.834 335.498 614.923C346.152 616.312 357.017 617.028 368.049 617.028C379.081 617.028 389.945 616.312 400.6 614.923C401.284 614.834 401.767 614.207 401.678 613.522C401.677 613.521 401.677 613.52 401.677 613.519C422.674 610.675 442.836 605.204 461.822 597.45C461.822 597.451 461.823 597.452 461.823 597.453C462.087 598.091 462.819 598.393 463.456 598.129C483.723 589.732 502.64 578.74 519.794 565.568C520.341 565.147 520.444 564.363 520.024 563.815C520.023 563.814 520.022 563.814 520.022 563.813C536.48 551.043 551.287 536.248 564.067 519.801C564.068 519.802 564.069 519.803 564.07 519.803C564.617 520.224 565.402 520.122 565.822 519.574C579.009 502.428 590.013 483.518 598.421 463.259C598.686 462.621 598.384 461.89 597.746 461.625C597.745 461.625 597.744 461.624 597.743 461.624C605.508 442.641 610.986 422.481 613.835 401.486C613.836 401.486 613.837 401.486 613.838 401.486C614.523 401.576 615.15 401.093 615.239 400.409C616.63 389.755 617.348 378.89 617.348 367.858C617.348 356.826 616.63 345.961 615.239 335.307Z" stroke="white" stroke-width="2.5" stroke-linecap="round" stroke-dasharray="70 70"/>
<path d="M367.84 604.849C497.519 604.849 602.646 499.777 602.646 370.165C602.646 240.552 497.519 135.48 367.84 135.48C238.16 135.48 133.033 240.552 133.033 370.165C133.033 499.777 238.16 604.849 367.84 604.849Z" stroke="white" stroke-width="3"/>
<path d="M594.929 344.12C595.778 351.454 596.273 358.893 596.396 366.423L595.664 366.435C595.684 367.677 595.695 368.92 595.695 370.165C595.695 371.411 595.684 372.654 595.664 373.894L596.396 373.906C596.273 381.436 595.778 388.875 594.929 396.209L594.204 396.125C593.918 398.591 593.593 401.044 593.227 403.485L593.952 403.594C592.841 411.022 591.366 418.334 589.545 425.51L588.836 425.33C588.225 427.738 587.576 430.129 586.888 432.504L587.59 432.709C585.505 439.905 583.07 446.957 580.303 453.842L579.623 453.568C578.7 455.869 577.737 458.152 576.739 460.415L577.409 460.709C574.39 467.553 571.041 474.219 567.379 480.69L566.743 480.329C565.522 482.486 564.266 484.622 562.977 486.734L563.602 487.116C559.712 493.49 555.514 499.658 551.027 505.602L550.443 505.162C548.95 507.141 547.425 509.093 545.87 511.021L546.439 511.48C541.753 517.283 536.786 522.851 531.558 528.168L531.037 527.656C529.3 529.421 527.533 531.159 525.739 532.869L526.244 533.398C520.851 538.537 515.204 543.416 509.323 548.016L508.872 547.44C506.921 548.965 504.945 550.462 502.944 551.924L503.375 552.515C497.369 556.906 491.138 561.015 484.702 564.819L484.329 564.19C482.198 565.45 480.045 566.675 477.871 567.869L478.222 568.509C471.705 572.081 464.996 575.347 458.11 578.289L457.822 577.617C455.548 578.589 453.255 579.525 450.943 580.424L451.209 581.106C444.296 583.797 437.219 586.165 429.997 588.191L429.799 587.487C427.417 588.156 425.02 588.786 422.606 589.38L422.781 590.089C415.591 591.856 408.266 593.288 400.826 594.365L400.721 593.641C398.277 593.995 395.82 594.311 393.351 594.587L393.433 595.314C386.093 596.136 378.648 596.616 371.115 596.734L371.105 596.004C369.862 596.023 368.618 596.034 367.371 596.034C366.126 596.034 364.882 596.023 363.64 596.004L363.628 596.734C356.096 596.616 348.65 596.136 341.311 595.314L341.393 594.587C338.924 594.311 336.467 593.995 334.022 593.641L333.918 594.365C326.476 593.288 319.153 591.856 311.964 590.089L312.138 589.38C309.725 588.786 307.326 588.156 304.945 587.487L304.747 588.191C297.525 586.165 290.448 583.797 283.535 581.106L283.802 580.424C281.489 579.525 279.196 578.589 276.922 577.617L276.634 578.289C269.748 575.347 263.037 572.081 256.522 568.509L256.873 567.869C254.699 566.675 252.544 565.45 250.414 564.19L250.042 564.819C243.606 561.015 237.375 556.906 231.369 552.515L231.801 551.924C229.799 550.462 227.822 548.965 225.871 547.44L225.42 548.016C219.54 543.416 213.893 538.537 208.499 533.398L209.004 532.869C207.209 531.159 205.444 529.421 203.707 527.656L203.185 528.168C197.956 522.851 192.989 517.283 188.305 511.48L188.874 511.02C187.319 509.093 185.792 507.141 184.3 505.162L183.716 505.602C179.23 499.658 175.032 493.49 171.142 487.116L171.765 486.734C170.476 484.622 169.222 482.486 168.002 480.329L167.364 480.69C163.702 474.219 160.352 467.553 157.335 460.709L158.004 460.415C157.005 458.152 156.044 455.869 155.119 453.568L154.44 453.842C151.674 446.957 149.238 439.905 147.154 432.709L147.856 432.504C147.168 430.129 146.519 427.738 145.907 425.33L145.198 425.51C143.377 418.334 141.903 411.022 140.792 403.594L141.516 403.485C141.151 401.044 140.826 398.591 140.54 396.125L139.814 396.209C138.965 388.875 138.471 381.436 138.348 373.906L139.079 373.894C139.059 372.654 139.049 371.411 139.049 370.165C139.049 368.92 139.059 367.677 139.079 366.435L138.348 366.423C138.471 358.893 138.965 351.454 139.814 344.12L140.54 344.204C140.826 341.739 141.151 339.285 141.516 336.844L140.792 336.736C141.903 329.307 143.377 321.995 145.198 314.819L145.907 314.999C146.519 312.591 147.168 310.2 147.856 307.825L147.154 307.621C149.238 300.424 151.674 293.374 154.44 286.489L155.119 286.761C156.044 284.46 157.005 282.178 158.004 279.916L157.335 279.62C160.352 272.778 163.702 266.111 167.364 259.64L168.002 260C169.222 257.843 170.476 255.707 171.765 253.595L171.142 253.215C175.032 246.841 179.23 240.671 183.716 234.727L184.3 235.167C185.792 233.19 187.319 231.236 188.874 229.309L188.305 228.85C192.989 223.048 197.956 217.478 203.185 212.161L203.707 212.675C205.444 210.908 207.209 209.17 209.004 207.46L208.499 206.931C213.893 201.792 219.54 196.913 225.42 192.313L225.871 192.889C227.822 191.364 229.799 189.869 231.801 188.405L231.369 187.815C237.375 183.423 243.606 179.314 250.042 175.51L250.414 176.14C252.544 174.88 254.699 173.654 256.873 172.462L256.522 171.82C263.037 168.248 269.748 164.982 276.634 162.04L276.922 162.713C279.196 161.74 281.489 160.804 283.8 159.905L283.535 159.223C290.448 156.532 297.525 154.164 304.747 152.138L304.945 152.842C307.326 152.173 309.725 151.543 312.138 150.95L311.962 150.24C319.153 148.473 326.476 147.042 333.918 145.965L334.022 146.688C336.467 146.334 338.924 146.019 341.393 145.742L341.311 145.015C348.65 144.193 356.096 143.714 363.628 143.594L363.64 144.326C364.882 144.306 366.126 144.296 367.371 144.296C368.618 144.296 369.862 144.306 371.105 144.326L371.115 143.594C378.648 143.714 386.093 144.193 393.433 145.015L393.351 145.742C395.82 146.019 398.277 146.334 400.721 146.688L400.826 145.965C408.266 147.042 415.591 148.473 422.781 150.24L422.606 150.95C425.02 151.543 427.417 152.173 429.799 152.842L429.997 152.138C437.219 154.164 444.296 156.532 451.209 159.223L450.943 159.905C453.255 160.804 455.548 161.74 457.822 162.713L458.11 162.04C464.996 164.982 471.705 168.248 478.222 171.82L477.871 172.462C480.045 173.654 482.198 174.88 484.329 176.14L484.702 175.51C491.138 179.314 497.369 183.423 503.375 187.815L502.944 188.405C504.945 189.869 506.921 191.364 508.872 192.889L509.323 192.313C515.204 196.913 520.851 201.792 526.244 206.931L525.739 207.46C527.533 209.17 529.3 210.908 531.037 212.675L531.558 212.161C536.786 217.478 541.753 223.048 546.439 228.85L545.87 229.309C547.425 231.236 548.95 233.19 550.443 235.167L551.027 234.727C555.514 240.671 559.712 246.841 563.602 253.215L562.977 253.595C564.266 255.707 565.522 257.843 566.743 260L567.379 259.64C571.041 266.111 574.39 272.778 577.409 279.62L576.739 279.916C577.737 282.178 578.7 284.46 579.623 286.761L580.303 286.489C583.07 293.374 585.505 300.424 587.59 307.621L586.888 307.825C587.576 310.2 588.225 312.591 588.836 314.999L589.545 314.819C591.366 321.995 592.841 329.307 593.952 336.736L593.227 336.844C593.593 339.285 593.918 341.739 594.204 344.204L594.929 344.12Z" stroke="white" stroke-dasharray="5 15"/>
<path d="M581.946 338.21C583.373 347.777 584.159 357.549 584.261 367.484L583.164 367.494C583.171 368.228 583.175 368.962 583.175 369.698C583.175 370.432 583.171 371.166 583.164 371.901L584.261 371.912C584.159 381.845 583.373 391.617 581.946 401.185L580.86 401.022C580.644 402.472 580.413 403.917 580.167 405.358L581.25 405.542C579.586 415.292 577.256 424.818 574.307 434.072L573.261 433.739C572.816 435.136 572.358 436.525 571.885 437.909L572.923 438.263C569.736 447.587 565.915 456.625 561.513 465.323L560.532 464.828C559.872 466.134 559.199 467.431 558.511 468.721L559.48 469.236C554.863 477.91 549.659 486.231 543.924 494.149L543.034 493.506C542.176 494.691 541.307 495.867 540.426 497.032L541.301 497.693C535.388 505.514 528.947 512.921 522.03 519.863L521.251 519.089C520.219 520.125 519.177 521.15 518.124 522.165L518.885 522.955C511.838 529.745 504.325 536.063 496.398 541.86L495.75 540.975C494.57 541.838 493.38 542.688 492.183 543.527L492.813 544.425C484.814 550.029 476.414 555.107 467.664 559.612L467.16 558.638C465.861 559.306 464.553 559.963 463.238 560.607L463.72 561.593C454.97 565.874 445.887 569.587 436.517 572.685L436.173 571.644C434.782 572.103 433.386 572.548 431.984 572.981L432.308 574.028C423.028 576.888 413.482 579.146 403.713 580.756L403.534 579.674C402.093 579.912 400.645 580.136 399.194 580.345L399.35 581.431C389.775 582.811 379.995 583.573 370.056 583.671L370.044 582.574C369.311 582.582 368.575 582.586 367.84 582.586C367.104 582.586 366.369 582.582 365.635 582.574L365.624 583.671C355.683 583.573 345.903 582.811 336.328 581.431L336.485 580.345C335.033 580.136 333.586 579.912 332.144 579.674L331.966 580.756C322.197 579.146 312.65 576.888 303.371 574.028L303.694 572.981C302.292 572.548 300.896 572.103 299.507 571.644L299.162 572.685C289.792 569.587 280.708 565.874 271.958 561.593L272.441 560.607C271.126 559.963 269.817 559.306 268.518 558.638L268.016 559.612C259.265 555.107 250.865 550.029 242.866 544.425L243.497 543.527C242.298 542.688 241.108 541.838 239.929 540.975L239.28 541.86C231.353 536.063 223.84 529.745 216.794 522.955L217.555 522.165C216.502 521.15 215.459 520.125 214.427 519.089L213.649 519.863C206.731 512.921 200.291 505.514 194.377 497.693L195.254 497.032C194.371 495.867 193.502 494.691 192.644 493.506L191.755 494.149C186.019 486.231 180.816 477.91 176.198 469.236L177.167 468.721C176.479 467.431 175.806 466.134 175.146 464.828L174.166 465.323C169.764 456.625 165.943 447.587 162.756 438.263L163.795 437.909C163.32 436.525 162.862 435.136 162.417 433.739L161.371 434.072C158.422 424.818 156.093 415.292 154.429 405.542L155.512 405.358C155.266 403.918 155.035 402.472 154.818 401.022L153.732 401.185C152.305 391.619 151.519 381.845 151.417 371.912L152.515 371.901C152.507 371.166 152.503 370.432 152.503 369.698C152.503 368.962 152.507 368.228 152.515 367.494L151.417 367.484C151.519 357.549 152.305 347.777 153.732 338.211L154.818 338.372C155.035 336.923 155.266 335.478 155.512 334.037L154.429 333.853C156.093 324.103 158.422 314.576 161.371 305.322L162.417 305.656C162.862 304.26 163.32 302.869 163.795 301.487L162.756 301.132C165.943 291.807 169.764 282.771 174.166 274.071L175.146 274.567C175.806 273.262 176.479 271.963 177.167 270.675L176.198 270.158C180.816 261.485 186.019 253.164 191.755 245.245L192.644 245.889C193.502 244.704 194.371 243.529 195.254 242.364L194.377 241.701C200.291 233.882 206.731 226.473 213.649 219.531L214.427 220.305C215.459 219.27 216.502 218.244 217.555 217.229L216.794 216.439C223.84 209.65 231.353 203.331 239.28 197.535L239.929 198.42C241.108 197.558 242.298 196.707 243.497 195.867L242.866 194.969C250.865 189.366 259.265 184.287 268.016 179.782L268.518 180.758C269.817 180.088 271.126 179.431 272.441 178.788L271.958 177.803C280.708 173.521 289.792 169.807 299.162 166.709L299.507 167.751C300.896 167.291 302.292 166.847 303.694 166.414L303.371 165.366C312.65 162.507 322.197 160.249 331.966 158.638L332.144 159.721C333.586 159.482 335.033 159.258 336.485 159.049L336.328 157.964C345.903 156.583 355.683 155.823 365.624 155.723L365.635 156.82C366.369 156.813 367.104 156.81 367.84 156.81C368.575 156.81 369.311 156.813 370.044 156.82L370.056 155.723C379.995 155.823 389.775 156.583 399.35 157.964L399.194 159.049C400.645 159.258 402.093 159.482 403.534 159.721L403.713 158.638C413.482 160.249 423.028 162.507 432.308 165.366L431.984 166.414C433.386 166.847 434.782 167.291 436.173 167.751L436.517 166.709C445.887 169.807 454.97 173.521 463.72 177.803L463.238 178.788C464.553 179.431 465.861 180.088 467.16 180.758L467.664 179.782C476.414 184.287 484.814 189.366 492.813 194.969L492.183 195.867C493.38 196.707 494.57 197.558 495.75 198.42L496.398 197.535C504.325 203.331 511.838 209.65 518.885 216.439L518.124 217.229C519.177 218.244 520.219 219.27 521.251 220.305L522.03 219.531C528.947 226.473 535.388 233.882 541.301 241.701L540.426 242.364C541.307 243.529 542.176 244.704 543.034 245.889L543.924 245.245C549.659 253.164 554.863 261.485 559.48 270.158L558.511 270.675C559.199 271.963 559.872 273.262 560.532 274.567L561.513 274.071C565.915 282.771 569.736 291.807 572.923 301.132L571.885 301.487C572.358 302.869 572.816 304.26 573.261 305.656L574.307 305.322C577.256 314.576 579.586 324.103 581.25 333.853L580.167 334.037C580.413 335.478 580.644 336.923 580.86 338.372L581.946 338.21Z" stroke="white" stroke-width="1.5" stroke-dasharray="3 20"/>
<path d="M534.397 370.165C534.397 461.05 459.849 534.767 367.84 534.767C275.829 534.767 201.281 461.05 201.281 370.165C201.281 279.281 275.829 205.563 367.84 205.563C459.849 205.563 534.397 279.281 534.397 370.165Z" stroke="white" stroke-width="3"/>
<path d="M161.689 370.164L174.486 362.78V377.548L161.689 370.164Z" fill="white"/>
<path d="M573.989 370.164L561.193 362.78V377.548L573.989 370.164Z" fill="white"/>
<path d="M168.714 423.493L179.161 413.05L182.985 427.315L168.714 423.493Z" fill="white"/>
<path d="M566.964 316.836L552.692 313.014L556.516 327.278L566.964 316.836Z" fill="white"/>
<path d="M189.309 473.185L196.696 460.397L204.083 473.185H189.309Z" fill="white"/>
<path d="M546.37 267.144H531.596L538.983 279.932L546.37 267.144Z" fill="white"/>
<path d="M222.07 515.858L225.894 501.594L236.342 512.036L222.07 515.858Z" fill="white"/>
<path d="M513.609 224.471L499.338 228.293L509.785 238.735L513.609 224.471Z" fill="white"/>
<path d="M264.766 548.603V533.836L277.562 541.219L264.766 548.603Z" fill="white"/>
<path d="M470.914 191.726L458.119 199.11L470.914 206.493V191.726Z" fill="white"/>
<path d="M314.483 569.187L310.659 554.923L324.93 558.745L314.483 569.187Z" fill="white"/>
<path d="M421.194 171.142L410.747 181.584L425.018 185.406L421.194 171.142Z" fill="white"/>
<path d="M367.838 576.207L360.45 563.418H375.226L367.838 576.207Z" fill="white"/>
<path d="M367.838 164.122L360.45 176.911H375.226L367.838 164.122Z" fill="white"/>
<path d="M421.194 569.187L410.747 558.745L425.018 554.923L421.194 569.187Z" fill="white"/>
<path d="M314.483 171.142L310.659 185.406L324.93 181.584L314.483 171.142Z" fill="white"/>
<path d="M470.913 548.603L458.117 541.219L470.913 533.834V548.603Z" fill="white"/>
<path d="M264.766 191.726V206.493L277.56 199.11L264.766 191.726Z" fill="white"/>
<path d="M513.609 515.858L499.336 512.036L509.785 501.594L513.609 515.858Z" fill="white"/>
<path d="M222.068 224.471L225.892 238.735L236.34 228.293L222.068 224.471Z" fill="white"/>
<path d="M546.37 473.185H531.596L538.983 460.397L546.37 473.185Z" fill="white"/>
<path d="M189.309 267.142L196.696 279.932L204.083 267.142H189.309Z" fill="white"/>
<path d="M566.964 423.491L552.692 427.313L556.516 413.05L566.964 423.491Z" fill="white"/>
<path d="M168.714 316.836L179.161 327.278L182.985 313.014L168.714 316.836Z" fill="white"/>
<path d="M349.509 553.451C349.185 553.211 348.726 553.279 348.486 553.603L347.53 554.889L346.894 553.419C346.733 553.049 346.302 552.879 345.932 553.039L344.232 549.117C344.602 548.958 344.773 548.527 344.612 548.156L343.976 546.687L345.566 546.869C345.969 546.916 346.332 546.628 346.377 546.227L350.625 546.717C350.58 547.118 350.867 547.481 351.269 547.528L352.86 547.71L351.906 548.996C351.664 549.321 351.733 549.779 352.057 550.02L349.509 553.451Z" stroke="white" stroke-linecap="round" stroke-dasharray="10 10"/>
<path d="M388.042 187.919C388.366 188.16 388.825 188.092 389.065 187.767L390.02 186.481L390.657 187.951C390.818 188.321 391.248 188.492 391.62 188.332L393.319 192.253C392.948 192.414 392.777 192.844 392.938 193.215L393.575 194.684L391.984 194.501C391.582 194.454 391.219 194.742 391.173 195.143L386.925 194.655C386.972 194.252 386.684 193.89 386.283 193.844L384.69 193.66L385.645 192.374C385.886 192.05 385.817 191.592 385.494 191.352L388.042 187.919Z" stroke="white" stroke-linecap="round" stroke-dasharray="10 10"/>
<path d="M397.332 552.626C396.956 552.477 396.531 552.662 396.382 553.037L395.794 554.526L394.797 553.271C394.547 552.956 394.086 552.903 393.77 553.153L391.112 549.805C391.429 549.555 391.481 549.094 391.231 548.778L390.234 547.523L391.819 547.288C392.22 547.229 392.495 546.858 392.437 546.458L396.666 545.832C396.726 546.232 397.098 546.507 397.497 546.448L399.082 546.213L398.494 547.703C398.345 548.078 398.529 548.503 398.905 548.651L397.332 552.626Z" stroke="white" stroke-linecap="round" stroke-dasharray="10 10"/>
<path d="M339.894 189.581C340.27 189.73 340.694 189.546 340.844 189.17L341.432 187.681L342.428 188.936C342.679 189.252 343.14 189.304 343.456 189.054L346.113 192.402C345.797 192.652 345.745 193.113 345.995 193.429L346.991 194.684L345.406 194.918C345.006 194.978 344.73 195.349 344.789 195.749L340.56 196.375C340.5 195.975 340.128 195.699 339.728 195.759L338.144 195.993L338.732 194.504C338.881 194.128 338.697 193.704 338.321 193.555L339.894 189.581Z" stroke="white" stroke-linecap="round" stroke-dasharray="10 10"/>
<path d="M443.342 538.611C442.939 538.564 442.576 538.853 442.531 539.253L442.346 540.845L441.06 539.891C440.735 539.65 440.277 539.717 440.037 540.042L436.603 537.495C436.844 537.171 436.775 536.713 436.45 536.473L435.164 535.518L436.635 534.881C437.005 534.721 437.176 534.291 437.015 533.919L440.939 532.221C441.1 532.591 441.53 532.761 441.9 532.601L443.371 531.963L443.188 533.555C443.141 533.956 443.429 534.318 443.83 534.365L443.342 538.611Z" stroke="white" stroke-linecap="round" stroke-dasharray="10 10"/>
<path d="M293.85 202.794C294.251 202.84 294.614 202.553 294.66 202.151L294.843 200.561L296.131 201.514C296.454 201.756 296.914 201.687 297.154 201.364L300.589 203.91C300.347 204.234 300.414 204.693 300.739 204.933L302.026 205.888L300.556 206.524C300.185 206.685 300.015 207.115 300.176 207.485L296.253 209.185C296.092 208.815 295.66 208.643 295.29 208.804L293.819 209.441L294.003 207.851C294.049 207.448 293.762 207.086 293.359 207.04L293.85 202.794Z" stroke="white" stroke-linecap="round" stroke-dasharray="10 10"/>
<path d="M484.061 513.686C483.662 513.745 483.385 514.116 483.444 514.515L483.679 516.101L482.19 515.511C481.814 515.362 481.388 515.547 481.24 515.922L477.264 514.352C477.412 513.976 477.227 513.55 476.851 513.402L475.361 512.813L476.617 511.818C476.933 511.567 476.987 511.107 476.736 510.79L480.085 508.134C480.337 508.451 480.796 508.504 481.114 508.252L482.368 507.258L482.604 508.842C482.662 509.241 483.034 509.517 483.435 509.458L484.061 513.686Z" stroke="white" stroke-linecap="round" stroke-dasharray="10 10"/>
<path d="M252.701 227.983C253.102 227.924 253.377 227.553 253.319 227.152L253.083 225.568L254.574 226.157C254.949 226.307 255.375 226.122 255.523 225.746L259.5 227.317C259.351 227.693 259.535 228.119 259.911 228.266L261.401 228.856L260.146 229.851C259.829 230.102 259.775 230.561 260.027 230.879L256.677 233.535C256.426 233.218 255.966 233.165 255.65 233.416L254.394 234.411L254.159 232.827C254.1 232.428 253.728 232.151 253.328 232.211L252.701 227.983Z" stroke="white" stroke-linecap="round" stroke-dasharray="10 10"/>
<path d="M517.052 478.871C516.682 479.031 516.511 479.463 516.672 479.833L517.308 481.303L515.717 481.119C515.315 481.073 514.952 481.36 514.907 481.762L510.658 481.272C510.705 480.871 510.417 480.509 510.016 480.462L508.424 480.279L509.378 478.992C509.619 478.669 509.552 478.211 509.227 477.97L511.775 474.537C512.1 474.778 512.558 474.711 512.798 474.386L513.754 473.1L514.39 474.569C514.551 474.94 514.981 475.11 515.353 474.949L517.052 478.871Z" stroke="white" stroke-linecap="round" stroke-dasharray="10 10"/>
<path d="M219.594 262.753C219.964 262.592 220.135 262.161 219.974 261.791L219.338 260.321L220.929 260.505C221.331 260.55 221.694 260.264 221.739 259.861L225.988 260.351C225.941 260.752 226.229 261.115 226.63 261.162L228.222 261.344L227.268 262.632C227.027 262.955 227.094 263.413 227.419 263.654L224.871 267.087C224.546 266.846 224.088 266.913 223.848 267.237L222.893 268.523L222.256 267.055C222.095 266.683 221.665 266.513 221.293 266.674L219.594 262.753Z" stroke="white" stroke-linecap="round" stroke-dasharray="10 10"/>
<path d="M539.935 437.347C539.618 437.599 539.566 438.058 539.816 438.374L540.813 439.629L539.228 439.864C538.827 439.923 538.552 440.294 538.61 440.695L534.381 441.321C534.321 440.92 533.949 440.645 533.55 440.704L531.965 440.939L532.553 439.449C532.702 439.075 532.518 438.649 532.142 438.501L533.715 434.526C534.091 434.675 534.516 434.491 534.665 434.115L535.253 432.626L536.25 433.881C536.5 434.197 536.961 434.251 537.277 433.999L539.935 437.347Z" stroke="white" stroke-linecap="round" stroke-dasharray="10 10"/>
<path d="M196.646 305.541C196.964 305.29 197.016 304.831 196.765 304.513L195.77 303.258L197.354 303.024C197.754 302.966 198.031 302.593 197.971 302.193L202.201 301.567C202.26 301.967 202.631 302.243 203.032 302.183L204.617 301.949L204.028 303.438C203.88 303.814 204.063 304.238 204.439 304.387L202.867 308.361C202.491 308.214 202.065 308.398 201.917 308.772L201.328 310.263L200.332 309.008C200.081 308.691 199.621 308.638 199.304 308.889L196.646 305.541Z" stroke="white" stroke-linecap="round" stroke-dasharray="10 10"/>
<path d="M551.221 389.417C550.98 389.742 551.049 390.2 551.372 390.44L552.66 391.395L551.189 392.031C550.819 392.192 550.648 392.622 550.809 392.994L546.885 394.692C546.724 394.322 546.294 394.152 545.922 394.311L544.453 394.949L544.636 393.358C544.683 392.957 544.395 392.594 543.992 392.548L544.482 388.301C544.883 388.348 545.246 388.06 545.293 387.659L545.476 386.068L546.764 387.022C547.087 387.263 547.547 387.196 547.787 386.871L551.221 389.417Z" stroke="white" stroke-linecap="round" stroke-dasharray="10 10"/>
<path d="M185.498 350.906C185.74 350.581 185.671 350.123 185.347 349.882L184.06 348.928L185.53 348.292C185.901 348.131 186.072 347.701 185.911 347.33L189.834 345.631C189.995 346.001 190.425 346.171 190.797 346.012L192.266 345.374L192.083 346.965C192.037 347.366 192.325 347.729 192.726 347.776L192.237 352.022C191.835 351.975 191.472 352.263 191.426 352.664L191.242 354.255L189.956 353.3C189.631 353.06 189.173 353.127 188.933 353.452L185.498 350.906Z" stroke="white" stroke-linecap="round" stroke-dasharray="10 10"/>
<path d="M550.286 342.561C550.137 342.937 550.321 343.363 550.697 343.51L552.187 344.1L550.931 345.095C550.615 345.346 550.562 345.807 550.813 346.123L547.463 348.779C547.213 348.462 546.752 348.409 546.436 348.66L545.18 349.655L544.946 348.071C544.886 347.672 544.514 347.395 544.115 347.455L543.488 343.227C543.888 343.168 544.163 342.797 544.104 342.397L543.87 340.812L545.36 341.401C545.736 341.551 546.16 341.366 546.31 340.99L550.286 342.561Z" stroke="white" stroke-linecap="round" stroke-dasharray="10 10"/>
<path d="M187.052 399.969C187.2 399.593 187.017 399.169 186.641 399.02L185.151 398.432L186.406 397.436C186.723 397.186 186.776 396.725 186.524 396.409L189.874 393.753C190.126 394.069 190.586 394.121 190.903 393.871L192.158 392.875L192.392 394.459C192.452 394.86 192.824 395.135 193.224 395.076L193.85 399.303C193.45 399.363 193.174 399.735 193.234 400.134L193.468 401.718L191.978 401.129C191.602 400.981 191.178 401.165 191.028 401.541L187.052 399.969Z" stroke="white" stroke-linecap="round" stroke-dasharray="10 10"/>
<path d="M536.263 296.575C536.217 296.976 536.505 297.339 536.906 297.386L538.498 297.568L537.544 298.856C537.303 299.18 537.37 299.638 537.695 299.878L535.147 303.311C534.822 303.07 534.364 303.138 534.124 303.462L533.168 304.749L532.532 303.279C532.371 302.909 531.941 302.737 531.569 302.898L529.87 298.977C530.24 298.816 530.411 298.386 530.25 298.015L529.612 296.546L531.204 296.729C531.607 296.776 531.97 296.488 532.015 296.087L536.263 296.575Z" stroke="white" stroke-linecap="round" stroke-dasharray="10 10"/>
<path d="M200.273 445.99C200.32 445.588 200.031 445.225 199.63 445.18L198.038 444.995L198.994 443.71C199.234 443.385 199.166 442.927 198.841 442.687L201.389 439.255C201.714 439.496 202.172 439.427 202.414 439.102L203.368 437.817L204.004 439.287C204.165 439.657 204.597 439.828 204.967 439.667L206.668 443.588C206.296 443.749 206.126 444.179 206.287 444.551L206.924 446.019L205.332 445.836C204.931 445.79 204.568 446.078 204.521 446.479L200.273 445.99Z" stroke="white" stroke-linecap="round" stroke-dasharray="10 10"/>
<path d="M511.434 254.937C511.494 255.336 511.865 255.612 512.265 255.552L513.85 255.318L513.261 256.807C513.112 257.183 513.297 257.609 513.673 257.757L512.1 261.731C511.723 261.583 511.299 261.767 511.15 262.142L510.561 263.632L509.565 262.377C509.315 262.06 508.854 262.007 508.538 262.259L505.88 258.911C506.196 258.659 506.249 258.2 505.999 257.882L505.002 256.627L506.587 256.393C506.988 256.335 507.263 255.962 507.204 255.563L511.434 254.937Z" stroke="white" stroke-linecap="round" stroke-dasharray="10 10"/>
<path d="M225.582 486.175C225.524 485.776 225.152 485.501 224.751 485.559L223.166 485.793L223.756 484.304C223.904 483.928 223.721 483.504 223.345 483.355L224.916 479.381C225.292 479.53 225.718 479.346 225.866 478.97L226.456 477.481L227.451 478.736C227.703 479.052 228.162 479.104 228.48 478.854L231.137 482.202C230.82 482.453 230.767 482.913 231.019 483.229L232.014 484.484L230.429 484.718C230.029 484.778 229.753 485.15 229.813 485.549L225.582 486.175Z" stroke="white" stroke-linecap="round" stroke-dasharray="10 10"/>
<path d="M476.602 221.962C476.763 222.332 477.195 222.504 477.565 222.343L479.036 221.706L478.852 223.296C478.806 223.699 479.093 224.061 479.495 224.107L479.005 228.353C478.604 228.307 478.241 228.594 478.194 228.996L478.012 230.586L476.725 229.633C476.4 229.391 475.942 229.46 475.701 229.783L472.268 227.237C472.508 226.913 472.44 226.454 472.115 226.214L470.829 225.259L472.298 224.623C472.67 224.462 472.84 224.032 472.679 223.662L476.602 221.962Z" stroke="white" stroke-linecap="round" stroke-dasharray="10 10"/>
<path d="M260.373 519.266C260.212 518.896 259.78 518.726 259.41 518.886L257.939 519.524L258.123 517.932C258.169 517.531 257.882 517.169 257.479 517.122L257.97 512.876C258.371 512.923 258.734 512.634 258.78 512.234L258.963 510.642L260.251 511.597C260.575 511.837 261.033 511.77 261.274 511.445L264.709 513.992C264.467 514.317 264.535 514.774 264.859 515.016L266.146 515.969L264.677 516.606C264.305 516.766 264.135 517.197 264.296 517.568L260.373 519.266Z" stroke="white" stroke-linecap="round" stroke-dasharray="10 10"/>
<path d="M435.056 199.092C435.308 199.408 435.767 199.461 436.085 199.211L437.339 198.215L437.574 199.799C437.633 200.2 438.006 200.475 438.406 200.416L439.032 204.643C438.633 204.703 438.356 205.075 438.414 205.474L438.65 207.058L437.16 206.468C436.784 206.321 436.358 206.505 436.211 206.881L432.234 205.309C432.382 204.933 432.198 204.509 431.823 204.359L430.332 203.771L431.588 202.775C431.904 202.524 431.958 202.064 431.706 201.748L435.056 199.092Z" stroke="white" stroke-linecap="round" stroke-dasharray="10 10"/>
<path d="M303.181 542.202C302.929 541.886 302.47 541.832 302.152 542.084L300.897 543.078L300.663 541.494C300.604 541.095 300.231 540.82 299.831 540.878L299.205 536.651C299.605 536.591 299.881 536.22 299.821 535.821L299.587 534.236L301.077 534.824C301.453 534.974 301.879 534.789 302.027 534.413L306.003 535.986C305.855 536.36 306.039 536.786 306.414 536.934L307.905 537.523L306.649 538.519C306.332 538.769 306.279 539.23 306.531 539.546L303.181 542.202Z" stroke="white" stroke-linecap="round" stroke-dasharray="10 10"/>
<path d="M495.754 371.336C492.155 371.947 487.991 371.476 483.302 370.227C489.395 374.599 495.757 374.71 502.467 371.63C510.649 367.273 516.631 368.667 521.633 370.227C518.052 368.15 514.168 366.777 509.721 366.901C504.804 367.04 500.604 370.514 495.754 371.336Z" fill="white"/>
<path d="M239.924 371.336C243.522 371.947 247.687 371.476 252.376 370.227C246.282 374.599 239.921 374.71 233.21 371.63C225.029 367.273 219.047 368.667 214.045 370.227C217.626 368.15 221.51 366.777 225.957 366.901C230.873 367.04 235.074 370.514 239.924 371.336Z" fill="white"/>
<path d="M493.987 349.117C490.549 350.343 486.365 350.601 481.53 350.186C488.291 353.433 494.575 352.439 500.648 348.239C507.948 342.529 514.082 342.864 519.281 343.532C515.392 342.109 511.328 341.431 506.97 342.326C502.153 343.315 498.619 347.466 493.987 349.117Z" fill="white"/>
<path d="M242.043 393.519C245.694 393.495 249.715 392.308 254.115 390.264C248.873 395.628 242.627 396.84 235.484 394.971C226.67 392.101 221.021 394.512 216.366 396.918C219.532 394.25 223.118 392.223 227.519 391.575C232.385 390.857 237.126 393.549 242.043 393.519Z" fill="white"/>
<path d="M488.385 327.549C485.212 329.352 481.138 330.334 476.305 330.764C483.527 332.788 489.543 330.718 494.793 325.529C500.991 318.638 507.089 317.904 512.325 317.66C508.248 316.933 504.129 316.969 499.992 318.607C495.42 320.418 492.661 325.119 488.385 327.549Z" fill="white"/>
<path d="M247.985 415.002C251.576 414.345 255.328 412.479 259.307 409.704C255.078 415.894 249.136 418.173 241.777 417.572C232.598 416.275 227.454 419.63 223.288 422.807C225.943 419.632 229.121 417.012 233.343 415.609C238.01 414.059 243.148 415.887 247.985 415.002Z" fill="white"/>
<path d="M479.123 307.276C476.312 309.603 472.469 311.277 467.783 312.539C475.248 313.28 480.813 310.197 485.084 304.175C489.989 296.314 495.866 294.532 500.979 293.384C496.839 293.375 492.789 294.125 489 296.457C484.811 299.033 482.911 304.142 479.123 307.276Z" fill="white"/>
<path d="M257.568 435.125C260.99 433.856 264.362 431.366 267.798 427.942C264.707 434.773 259.254 438.048 251.901 438.734C242.637 439.048 238.153 443.246 234.602 447.097C236.665 443.509 239.34 440.378 243.255 438.264C247.581 435.927 252.957 436.837 257.568 435.125Z" fill="white"/>
<path d="M466.479 288.92C464.114 291.699 460.621 294.014 456.227 296.071C463.706 295.505 468.651 291.501 471.81 284.83C475.276 276.237 480.755 273.462 485.59 271.444C481.511 272.153 477.652 273.596 474.326 276.549C470.648 279.813 469.665 285.174 466.479 288.92Z" fill="white"/>
<path d="M270.502 453.278C273.652 451.434 276.539 448.398 279.328 444.428C277.473 451.691 272.67 455.864 265.549 457.816C256.48 459.733 252.794 464.645 249.965 469.055C251.373 465.163 253.464 461.616 256.951 458.854C260.806 455.802 266.26 455.763 270.502 453.278Z" fill="white"/>
<path d="M450.839 273.037C448.992 276.185 445.954 279.07 441.983 281.858C449.251 280.002 453.426 275.203 455.377 268.084C457.297 259.02 462.211 255.336 466.623 252.51C462.729 253.917 459.179 256.007 456.416 259.493C453.361 263.345 453.325 268.795 450.839 273.037Z" fill="white"/>
<path d="M286.393 468.913C289.174 466.549 291.49 463.058 293.548 458.665C292.981 466.141 288.977 471.083 282.303 474.24C273.704 477.703 270.928 483.179 268.908 488.014C269.618 483.936 271.062 480.08 274.017 476.756C277.282 473.08 282.647 472.097 286.393 468.913Z" fill="white"/>
<path d="M432.673 260.11C431.403 263.531 428.912 266.9 425.486 270.334C432.32 267.246 435.599 261.795 436.283 254.447C436.6 245.186 440.798 240.705 444.653 237.155C441.061 239.217 437.93 241.893 435.814 245.804C433.475 250.129 434.385 255.503 432.673 260.11Z" fill="white"/>
<path d="M304.759 481.55C307.088 478.74 308.762 474.899 310.025 470.217C310.765 477.677 307.682 483.239 301.657 487.507C293.791 492.41 292.007 498.286 290.858 503.396C290.85 499.257 291.602 495.208 293.933 491.422C296.512 487.235 301.622 485.337 304.759 481.55Z" fill="white"/>
<path d="M412.536 250.532C411.879 254.12 410.012 257.872 407.234 261.849C413.429 257.62 415.709 251.684 415.108 244.328C413.81 235.154 417.167 230.011 420.345 225.847C417.167 228.5 414.547 231.679 413.144 235.899C411.592 240.563 413.422 245.697 412.536 250.532Z" fill="white"/>
<path d="M325.038 490.809C326.842 487.638 327.824 483.564 328.253 478.734C330.28 485.953 328.207 491.966 323.017 497.214C316.123 503.408 315.387 509.503 315.144 514.735C314.416 510.661 314.451 506.544 316.09 502.409C317.902 497.84 322.606 495.083 325.038 490.809Z" fill="white"/>
<path d="M391.051 244.593C391.028 248.242 389.839 252.26 387.795 256.658C393.161 251.419 394.374 245.176 392.504 238.037C389.633 229.227 392.045 223.582 394.452 218.927C391.783 222.093 389.754 225.678 389.106 230.076C388.388 234.939 391.082 239.678 391.051 244.593Z" fill="white"/>
<path d="M346.624 496.405C347.85 492.969 348.109 488.787 347.694 483.956C350.943 490.712 349.947 496.994 345.746 503.064C340.033 510.36 340.368 516.49 341.038 521.685C339.613 517.799 338.934 513.737 339.829 509.382C340.819 504.566 344.972 501.036 346.624 496.405Z" fill="white"/>
<path d="M368.853 242.475C369.463 246.071 368.992 250.234 367.744 254.92C372.117 248.83 372.228 242.472 369.146 235.766C364.786 227.588 366.181 221.608 367.744 216.609C365.666 220.188 364.29 224.07 364.416 228.515C364.554 233.43 368.031 237.627 368.853 242.475Z" fill="white"/>
<path d="M368.853 498.172C369.463 494.575 368.992 490.412 367.744 485.726C372.117 491.816 372.228 498.175 369.146 504.881C364.786 513.059 366.181 519.038 367.744 524.037C365.666 520.457 364.29 516.575 364.416 512.131C364.554 507.217 368.031 503.017 368.853 498.172Z" fill="white"/>
<path d="M346.626 244.242C347.852 247.677 348.111 251.859 347.696 256.69C350.945 249.934 349.949 243.652 345.748 237.582C340.035 230.286 340.37 224.156 341.04 218.961C339.615 222.847 338.936 226.909 339.831 231.265C340.821 236.08 344.974 239.611 346.626 244.242Z" fill="white"/>
<path d="M391.051 496.054C391.028 492.406 389.839 488.388 387.795 483.99C393.161 489.228 394.374 495.47 392.504 502.611C389.633 511.419 392.045 517.066 394.452 521.719C391.783 518.554 389.754 514.97 389.106 510.571C388.388 505.707 391.082 500.97 391.051 496.054Z" fill="white"/>
<path d="M325.042 249.838C326.847 253.01 327.828 257.082 328.259 261.913C330.284 254.695 328.213 248.682 323.021 243.433C316.127 237.24 315.392 231.144 315.148 225.912C314.421 229.987 314.457 234.104 316.096 238.237C317.907 242.808 322.61 245.565 325.042 249.838Z" fill="white"/>
<path d="M412.541 490.115C411.884 486.526 410.017 482.776 407.239 478.799C413.434 483.026 415.714 488.963 415.112 496.32C413.814 505.494 417.171 510.635 420.35 514.799C417.171 512.146 414.552 508.969 413.149 504.749C411.597 500.085 413.427 494.949 412.541 490.115Z" fill="white"/>
<path d="M304.759 259.096C307.087 261.906 308.763 265.747 310.024 270.429C310.766 262.969 307.681 257.407 301.657 253.139C293.791 248.236 292.008 242.361 290.859 237.25C290.851 241.389 291.601 245.438 293.934 249.225C296.511 253.411 301.623 255.311 304.759 259.096Z" fill="white"/>
<path d="M432.675 480.536C431.403 477.117 428.912 473.747 425.486 470.312C432.322 473.4 435.599 478.851 436.285 486.201C436.599 495.46 440.8 499.942 444.653 503.491C441.063 501.429 437.93 498.755 435.815 494.843C433.477 490.519 434.385 485.145 432.675 480.536Z" fill="white"/>
<path d="M286.395 271.734C289.176 274.097 291.492 277.589 293.55 281.981C292.983 274.505 288.979 269.563 282.305 266.405C273.706 262.943 270.93 257.465 268.91 252.633C269.62 256.709 271.064 260.566 274.019 263.891C277.284 267.567 282.647 268.549 286.395 271.734Z" fill="white"/>
<path d="M450.839 467.61C448.993 464.462 445.955 461.576 441.983 458.788C449.252 460.643 453.426 465.443 455.378 472.561C457.298 481.626 462.211 485.309 466.623 488.136C462.729 486.729 459.18 484.639 456.417 481.154C453.363 477.301 453.325 471.851 450.839 467.61Z" fill="white"/>
<path d="M270.503 287.366C273.653 289.212 276.54 292.249 279.329 296.217C277.472 288.953 272.671 284.781 265.548 282.829C256.479 280.912 252.793 276 249.966 271.59C251.374 275.482 253.465 279.031 256.952 281.792C260.807 284.845 266.259 284.881 270.503 287.366Z" fill="white"/>
<path d="M466.479 451.727C464.114 448.946 460.621 446.632 456.227 444.576C463.706 445.142 468.651 449.144 471.81 455.815C475.276 464.408 480.755 467.184 485.59 469.202C481.511 468.492 477.652 467.049 474.326 464.096C470.648 460.832 469.665 455.471 466.479 451.727Z" fill="white"/>
<path d="M257.568 305.521C260.99 306.79 264.362 309.28 267.798 312.704C264.707 305.873 259.254 302.597 251.901 301.913C242.637 301.597 238.153 297.4 234.602 293.549C236.665 297.137 239.34 300.269 243.255 302.382C247.581 304.719 252.957 303.81 257.568 305.521Z" fill="white"/>
<path d="M479.123 433.37C476.312 431.043 472.469 429.37 467.783 428.108C475.248 427.366 480.813 430.449 485.084 436.471C489.989 444.333 495.866 446.114 500.979 447.263C496.839 447.271 492.789 446.521 489 444.189C484.811 441.614 482.911 436.505 479.123 433.37Z" fill="white"/>
<path d="M247.982 325.646C251.573 326.301 255.325 328.169 259.304 330.943C255.075 324.753 249.135 322.473 241.774 323.076C232.595 324.373 227.451 321.018 223.285 317.841C225.94 321.016 229.118 323.636 233.34 325.039C238.007 326.589 243.145 324.761 247.982 325.646Z" fill="white"/>
<path d="M488.382 413.098C485.21 411.294 481.135 410.313 476.302 409.883C483.524 407.859 489.54 409.93 494.792 415.118C500.988 422.008 507.086 422.744 512.322 422.987C508.245 423.714 504.126 423.677 499.989 422.04C495.417 420.23 492.658 415.529 488.382 413.098Z" fill="white"/>
<path d="M242.043 347.123C245.693 347.148 249.713 348.334 254.113 350.378C248.873 345.014 242.627 343.802 235.482 345.671C226.668 348.541 221.019 346.13 216.364 343.724C219.531 346.392 223.116 348.419 227.518 349.067C232.383 349.785 237.124 347.093 242.043 347.123Z" fill="white"/>
<path d="M493.985 391.525C490.548 390.299 486.364 390.041 481.53 390.456C488.29 387.209 494.575 388.203 500.648 392.403C507.948 398.113 514.081 397.778 519.279 397.11C515.391 398.533 511.327 399.211 506.97 398.316C502.153 397.327 498.619 393.176 493.985 391.525Z" fill="white"/>
<path d="M456.261 382.082C384.637 358.356 344.492 357.744 272.868 382.082C250.308 430.543 243.211 477.009 252.798 505.555C298.927 559.036 467.318 538.649 493.778 498.36C507.511 477.45 478.461 413.316 456.261 382.082Z" fill="white"/>
<path d="M476.334 420.123C390.899 430.417 342.998 431.115 257.562 420.123L267.484 464.041C313.124 431.219 393.489 427.486 456.986 464.041L476.334 420.123Z" fill="#E8E8E8" fill-opacity="0.5"/>
<path d="M476.839 412.647C405.373 525.79 331.266 531.21 259.546 415.502C237.065 462.209 242.869 478.922 252.4 506.367L252.491 506.627C298.604 558.334 466.938 538.624 493.388 499.671C507.116 479.454 499.032 442.845 476.839 412.647Z" fill="#D0D0D0" fill-opacity="0.5"/>
<path d="M419.746 293.802C373.086 278.962 349.598 279.202 308.958 293.802C267.823 359.212 254.449 399.245 262.68 408.27C299.627 440.449 417.157 446.812 467.895 408.27C481.148 390.884 467.895 355.474 419.746 293.802Z" fill="#0F0F0F"/>
<path d="M357.317 378.547C359.34 378.826 360.138 380.252 362.016 379.893L361.986 379.855C360.536 377.96 359.583 376.714 361.218 372.478C358.557 373.097 357.273 375.976 357.317 378.547Z" fill="#646464"/>
<path d="M279.681 306.846C291.576 287.884 315.576 293.69 309.131 322.264C308.073 323.052 299.266 330.98 300.718 336.749C302.533 343.965 303.608 353.253 302.934 362.72C302.522 368.509 308.244 377.225 313.541 379.604C326.269 385.322 343.431 395.849 345.013 398.631C345.778 395.602 347.072 392.191 352.024 380.877C359.503 370.131 353.894 377.14 357.633 378.073C358.975 377.794 359.618 377.266 361.486 378.797C361.486 378.797 364.274 384.539 364.568 387.371C365.549 396.798 366.302 417.791 365.233 423.715C365.035 424.815 364.36 425.779 363.607 426.602C357.572 433.205 342.714 433.205 338.468 433.205C306.131 431.358 279.84 453.033 246.743 412.96C245.972 412.029 245.432 410.896 245.277 409.699C241.558 381.064 268.039 325.41 279.681 306.846Z" fill="#1E1E1E"/>
<path d="M266.233 359.304C255.713 351.337 239.179 401.489 245.693 412.269C272.309 441.195 289.633 441.302 327.628 433.445C335.248 428.491 335.35 425.488 331.361 422.58C291.783 414.613 291.783 401.489 270.242 403.364C271.243 389.302 270.242 367.273 266.233 359.304Z" fill="#141414"/>
<path d="M308.209 377.497C320.39 382.929 329.523 387.975 344.253 399.565C327.606 389.543 316.742 385.258 301.253 378.851C300.126 378.385 299.403 377.264 299.455 376.046C299.968 363.741 301.12 353.063 300.779 336.025C302.041 342.538 302.269 351.008 302.92 369.714C303.039 373.103 305.111 376.115 308.209 377.497Z" fill="#434343"/>
<path d="M275.716 316.444C257.09 353.519 247.894 373.745 244.235 404.095C244.235 410.311 247.594 406.106 247.828 403.449C250.044 378.335 258.205 357.185 275.716 316.444Z" fill="#434343"/>
<path d="M257.305 423.861C266.587 432.223 282.832 442.346 322.749 433.544C291.382 437.748 276.509 435.779 261.019 425.621L257.305 423.861Z" fill="#434343"/>
<path d="M351.378 414.66C354.922 408.333 359.201 401.256 360.293 378.073C366.983 379.689 364.592 401.234 364.939 423.544C364.332 424.256 363.727 424.906 363.126 425.497C356.39 432.131 346.758 422.908 351.378 414.66Z" fill="#141414"/>
<path d="M365.081 424.796C363.211 427.599 359.004 429.935 359.004 429.935C362.083 427.166 363.031 425.94 363.521 424.809C364.045 423.601 364.177 422.267 364.239 420.951L364.241 420.907C364.808 409.023 366.154 380.741 360.874 378.541C366.952 379.942 364.732 402.1 365.081 424.796Z" fill="#272727"/>
<path d="M279.681 306.846C291.576 287.884 315.576 293.69 309.131 322.264C308.073 323.052 299.266 330.98 300.718 336.749C302.533 343.965 303.608 353.253 302.934 362.72C302.522 368.509 308.244 377.225 313.541 379.604C326.269 385.322 343.431 395.849 345.013 398.631C345.778 395.602 347.072 392.191 352.024 380.877C359.503 370.131 353.894 377.14 357.633 378.073C358.975 377.794 359.618 377.266 361.486 378.797C361.486 378.797 364.274 384.539 364.568 387.371C365.549 396.798 366.302 417.791 365.233 423.715C365.035 424.815 364.36 425.779 363.607 426.602C357.572 433.205 342.714 433.205 338.468 433.205C306.131 431.358 279.84 453.033 246.743 412.96C245.972 412.029 245.432 410.896 245.277 409.699C241.558 381.064 268.039 325.41 279.681 306.846Z" stroke="#161616" stroke-width="0.3"/>
<path d="M364.662 385.875C364.577 383.665 364.046 383.115 363.21 382.746C361.342 391.623 364.146 383.681 362.138 389.287C362.322 389.439 362.492 389.54 362.651 389.594C364.172 390.119 364.724 387.481 364.662 385.875Z" fill="#CE8974"/>
<path d="M364.776 392.177C364.683 391.998 364.567 391.85 364.431 391.727C363.846 391.196 362.981 391.78 362.81 392.552C362.131 395.628 363.787 390.294 362.275 395.518C363.985 396.273 365.644 393.832 364.776 392.177Z" fill="#9A6454"/>
<path d="M360.886 409.485C358.006 413.531 357.701 417.83 360.378 418.722C364.773 417.843 365.449 409.949 362.023 409.002C361.587 408.882 361.148 409.116 360.886 409.485Z" fill="#9A6454"/>
<path d="M372.584 378.547C370.56 378.826 369.762 380.252 367.885 379.893L367.915 379.855C369.364 377.96 370.317 376.714 368.682 372.478C371.343 373.097 372.628 375.976 372.584 378.547Z" fill="#646464"/>
<path d="M450.216 306.846C438.323 287.884 414.323 293.69 420.767 322.264C421.825 323.052 430.632 330.98 429.181 336.749C427.365 343.965 426.29 353.253 426.964 362.72C427.375 368.509 421.653 377.225 416.357 379.604C403.629 385.322 386.469 395.849 384.885 398.631C384.12 395.602 382.826 392.191 377.874 380.877C370.394 370.131 376.004 377.14 372.265 378.073C370.924 377.794 370.28 377.266 368.412 378.797C368.412 378.797 365.624 384.539 365.33 387.371C364.349 396.798 363.595 417.791 364.665 423.715C364.864 424.815 365.537 425.779 366.291 426.602C372.326 433.205 387.186 433.205 391.43 433.205C423.767 431.358 450.058 453.033 483.156 412.96C483.926 412.029 484.466 410.896 484.623 409.699C488.34 381.064 461.859 325.41 450.216 306.846Z" fill="#1E1E1E"/>
<path d="M463.666 359.304C474.187 351.337 490.719 401.489 484.207 412.269C457.59 441.195 440.266 441.302 402.272 433.445C394.652 428.491 394.549 425.488 398.537 422.58C438.115 414.613 438.115 401.489 459.658 403.364C458.656 389.302 459.658 367.273 463.666 359.304Z" fill="#141414"/>
<path d="M421.69 377.497C409.509 382.929 400.377 387.975 385.646 399.565C402.293 389.543 413.157 385.258 428.646 378.851C429.773 378.385 430.496 377.264 430.445 376.046C429.931 363.741 428.779 353.063 429.12 336.025C427.859 342.538 427.63 351.008 426.979 369.714C426.861 373.103 424.788 376.115 421.69 377.497Z" fill="#434343"/>
<path d="M454.184 316.444C472.81 353.519 482.005 373.745 485.665 404.095C485.665 410.311 482.305 406.106 482.07 403.449C479.856 378.335 471.695 357.185 454.184 316.444Z" fill="#434343"/>
<path d="M472.593 423.861C463.311 432.223 447.066 442.346 407.149 433.544C438.516 437.748 453.389 435.779 468.881 425.621L472.593 423.861Z" fill="#434343"/>
<path d="M378.524 414.66C374.978 408.333 370.699 401.256 369.608 378.073C362.917 379.689 365.309 401.234 364.961 423.544C365.568 424.256 366.173 424.906 366.774 425.497C373.51 432.131 383.143 422.908 378.524 414.66Z" fill="#141414"/>
<path d="M364.819 424.796C366.689 427.599 370.896 429.935 370.896 429.935C367.817 427.166 366.869 425.94 366.379 424.809C365.855 423.601 365.723 422.267 365.662 420.951L365.659 420.907C365.093 409.023 363.746 380.741 369.026 378.541C362.949 379.942 365.169 402.1 364.819 424.796Z" fill="#272727"/>
<path d="M450.216 306.846C438.323 287.884 414.323 293.69 420.767 322.264C421.825 323.052 430.632 330.98 429.181 336.749C427.365 343.965 426.29 353.253 426.964 362.72C427.375 368.509 421.653 377.225 416.357 379.604C403.629 385.322 386.469 395.849 384.885 398.631C384.12 395.602 382.826 392.191 377.874 380.877C370.394 370.131 376.004 377.14 372.265 378.073C370.924 377.794 370.28 377.266 368.412 378.797C368.412 378.797 365.624 384.539 365.33 387.371C364.349 396.798 363.595 417.791 364.665 423.715C364.864 424.815 365.537 425.779 366.291 426.602C372.326 433.205 387.186 433.205 391.43 433.205C423.767 431.358 450.058 453.033 483.156 412.96C483.926 412.029 484.466 410.896 484.623 409.699C488.34 381.064 461.859 325.41 450.216 306.846Z" stroke="#161616" stroke-width="0.3"/>
<path d="M365.238 385.875C365.323 383.665 365.854 383.115 366.69 382.746C368.56 391.623 365.755 383.681 367.762 389.287C367.579 389.439 367.408 389.54 367.249 389.594C365.73 390.119 365.177 387.481 365.238 385.875Z" fill="#CE8974"/>
<path d="M365.124 392.177C365.219 391.998 365.334 391.85 365.469 391.727C366.054 391.196 366.919 391.78 367.091 392.552C367.77 395.628 366.113 390.294 367.625 395.518C365.915 396.273 364.256 393.832 365.124 392.177Z" fill="#9A6454"/>
<path d="M369.015 409.485C371.895 413.531 372.199 417.83 369.521 418.722C365.128 417.843 364.45 409.949 367.878 409.002C368.312 408.882 368.753 409.116 369.015 409.485Z" fill="#9A6454"/>
<path d="M421.658 171.637C414.926 184.344 406.387 190.014 402.96 191.26C414.178 191.26 423.217 210.883 426.332 220.694C442.787 223.684 448.771 211.661 449.706 205.276C451.949 199.296 447.836 181.603 445.499 173.505C438.767 160.797 426.8 166.964 421.658 171.637Z" fill="#1E1E1E"/>
<path d="M320.22 182.849C320.594 186.961 323.492 188.924 324.895 189.39C314.798 191.26 307.287 211.038 304.794 220.694H299.651C284.931 222.293 280.115 208.269 279.226 197.944C278.954 194.777 279.668 192.137 280.346 189.034C281.801 182.364 283.636 174.792 288.961 170.519C296.871 164.173 301.836 168.14 304.794 169.301C308.552 170.774 319.753 177.71 320.22 182.849Z" fill="#1E1E1E"/>
<path d="M323.959 189.859C315.315 193.735 311.447 201.596 305.261 219.76C296.361 238.844 271.401 287.764 314.61 309.932C327.931 316.418 332.273 320.437 339.385 327.686C359.019 342.099 367.416 342.405 386.598 327.686C397.931 318.992 405.595 316.111 417.9 309.932C448.754 294.443 435.197 248.656 426.315 216.957C417.865 197.735 413.087 193.041 403.894 189.859C394.528 185.114 372.558 183.878 365.545 185.114C359.696 186.145 358.066 184.647 361.338 183.244C352.973 182.699 338.466 182.806 323.959 189.859Z" fill="white"/>
<path d="M344.156 265.304C335.181 272.032 330.132 282.434 328.73 286.796C322.953 290.08 320.698 290.339 318.914 287.263C311.434 287.263 316.108 284.927 314.706 285.393C316.95 283.526 314.706 281.5 313.304 280.722C313.771 282.279 314.425 284.552 313.304 281.188C311.902 276.985 313.304 265.304 314.706 263.903C316.108 262.5 327.435 250.692 326.393 246.615C332.469 241.476 337.145 244.278 336.21 244.278C338.453 246.895 341.819 249.418 343.221 250.352C342.473 258.576 343.533 263.746 344.156 265.304Z" fill="#1E1E1E"/>
<path d="M333.394 262.962C331.232 262.434 327.34 261.162 327.707 258.245C328 255.911 331.357 259.225 333.394 262.349C333.404 262.364 334.591 262.381 333.76 262.671L333.394 262.962Z" fill="#727272"/>
<path d="M339.369 262.014C339.969 259.572 338.375 254.638 332.356 255.94C334.85 257.186 338.994 260.145 339.369 262.014Z" fill="#727272"/>
<path d="M338.9 262.671C338.433 260.024 336.002 255.195 330.019 257.065C330.019 259.557 331.795 264.167 338.9 262.671Z" fill="white"/>
<path d="M338.9 262.671C338.745 260.335 336.75 256.139 330.019 256.886C330.901 261.774 332.566 263.326 338.9 262.671Z" stroke="#181818"/>
<path d="M334.694 253.328C336.251 253.016 339.648 253.328 340.77 257.065" stroke="#181818"/>
<path d="M390.789 243.516C388.919 243.889 384.712 249.901 382.843 252.859C381.346 255.103 380.973 261.893 380.973 265.008C384.339 266.129 383.621 267.967 382.843 268.745C383.964 271.735 387.05 275.286 388.452 276.688C391.818 277.435 393.283 280.738 393.595 282.294C393.22 287.902 396.555 288.68 398.269 288.368C400.512 285.752 404.501 285.409 406.215 285.564C406.739 284.519 407.554 283.77 408.387 283.253C409.373 282.642 409.878 281.138 409.113 280.265L408.145 279.159C407.818 278.785 407.708 278.267 407.822 277.782C409.881 269.016 403.935 259.444 400.606 255.663C401.728 252.674 397.645 247.876 395.463 245.852C394.342 243.235 391.879 243.204 390.789 243.516Z" fill="#1E1E1E"/>
<path d="M385.602 262.204C384.667 257.531 389.808 254.729 391.211 256.597C390.276 257.531 386.723 260.708 385.602 262.204Z" fill="#727272"/>
<path d="M391.679 264.074C392.302 262.204 394.016 258.466 395.886 258.466C395.886 259.712 395.045 262.577 391.679 264.074Z" fill="#727272"/>
<path d="M390.743 253.861C389.305 253.633 386.17 253.861 385.134 256.598" stroke="#181818"/>
<path d="M386.069 262.624C386.538 259.975 388.968 255.149 394.951 257.016C394.951 259.509 393.174 264.119 386.069 262.624Z" fill="white"/>
<path d="M386.069 262.624C386.226 260.287 388.221 256.092 394.951 256.839C394.07 261.726 392.404 263.279 386.069 262.624Z" stroke="#181818"/>
<path d="M379.569 304.721C363.597 313.642 347.52 305.895 346.38 305.895L354.366 288.054C361.668 283.547 371.1 286.176 373.762 288.054L379.569 304.721Z" fill="url(#paint0_linear_1742_1590)"/>
<path d="M348.249 305.951C352.825 296.109 349.266 302.843 350.283 303.361C356.384 292.481 351.808 300.252 352.317 302.843C352.317 304.224 351.707 305.641 353.334 302.325C359.945 284.71 354.859 298.698 356.384 302.843C362.437 278.175 357.483 297.349 360.877 302.21C360.924 302.275 361.013 302.286 361.071 302.23C362.912 300.491 361.538 292.879 362.931 301.423C362.953 301.554 363.122 301.6 363.182 301.48C364.923 298.018 364.118 287.333 365.907 301.722C365.929 301.892 366.171 301.908 366.192 301.737C367.468 291.516 366.092 285.563 368.35 298.648C371.112 297.728 367.187 283.098 371.434 299.957C371.473 300.116 371.693 300.122 371.7 299.96C371.908 295.505 370.153 290.763 373.868 301.646C373.904 301.758 374.046 301.785 374.089 301.676C375.066 299.188 372.095 287.365 376.579 303.584C376.67 302.863 376.682 300.876 376.455 299.296C376.297 298.192 378.998 303.6 379.332 305.951H377.232C370.791 308.196 355.977 311.339 348.249 305.951Z" fill="url(#paint1_linear_1742_1590)"/>
<path d="M366.947 310.329C364.765 308.459 363.862 304.908 377.699 305.656C376.452 308.614 372.931 313.691 366.947 310.329Z" fill="#181818"/>
<path d="M359.001 310.898C361.183 309.028 362.087 305.477 348.249 306.224C349.496 309.183 353.018 314.26 359.001 310.898Z" fill="#181818"/>
<path d="M348.249 305.208L350.118 307.077C355.354 305.582 357.909 308.635 358.533 310.348C356.289 310.348 351.988 308.48 350.118 307.545L347.781 305.208H346.379C348.716 311.282 352.767 312.995 355.727 313.618C358.345 313.618 361.493 316.422 362.74 317.823C366.106 314.086 370.063 313.463 371.621 313.618C376.483 311.376 378.789 307.077 379.568 305.208H377.699L375.362 307.545C372.286 309.426 370.423 309.96 366.947 310.348C368.817 306.236 373.958 306.454 375.362 307.077L377.231 305.208C370.874 299.976 364.922 302.094 362.74 303.807C356.756 298.948 350.586 302.717 348.249 305.208Z" fill="#181818"/>
<path d="M366.034 310.849C368.043 309.802 370.044 309.842 371.166 309.871C371.308 309.875 371.364 310.061 371.245 310.139C369.111 311.547 367.289 311.807 366.155 311.711C365.63 311.667 365.566 311.094 366.034 310.849Z" fill="#D9D9D9"/>
<path d="M358.989 310.661C356.772 309.404 354.328 308.993 353.195 308.933C353.079 308.928 353.012 309.056 353.082 309.148C354.537 311.067 357.274 311.511 358.839 311.455C359.366 311.436 359.45 310.921 358.989 310.661Z" fill="#D9D9D9"/>
<path d="M362.542 303.65C361.279 302.765 360.575 301.94 354.793 302.385C358.595 302.385 360.97 303.555 362.337 305.481C362.532 305.756 362.96 305.764 363.165 305.496C364.697 303.497 367.061 302.901 371.621 302.385C367.582 301.936 364.403 302.35 362.915 303.624C362.81 303.715 362.656 303.731 362.542 303.65Z" fill="#D9D9D9"/>
<path d="M350.118 307.077L349.601 307.595L349.906 307.899L350.32 307.781L350.118 307.077ZM348.249 305.208L347.793 304.636L347.152 305.147L347.731 305.726L348.249 305.208ZM362.74 303.807L362.318 304.405L362.763 304.718L363.192 304.382L362.74 303.807ZM377.231 305.208L377.749 305.726L378.318 305.155L377.696 304.643L377.231 305.208ZM375.362 307.077L375.063 307.746L375.523 307.949L375.878 307.595L375.362 307.077ZM366.947 310.348L366.281 310.045L365.814 311.07L366.941 311.079L366.947 310.348ZM377.699 305.208V304.477H377.396L377.181 304.692L377.699 305.208ZM379.568 305.208L380.244 305.49L380.665 304.477H379.568V305.208ZM371.621 313.618L371.548 314.347L371.747 314.366L371.929 314.282L371.621 313.618ZM362.74 317.823L362.192 318.309L362.737 318.92L363.284 318.312L362.74 317.823ZM355.727 313.618L355.576 314.334L355.651 314.35H355.727V313.618ZM346.379 305.208V304.477H345.313L345.695 305.471L346.379 305.208ZM347.781 305.208L348.299 304.692L348.084 304.477H347.781V305.208ZM350.118 307.544L349.601 308.062L349.685 308.145L349.792 308.199L350.118 307.544ZM358.532 310.348V311.079H359.577L359.22 310.098L358.532 310.348ZM363.472 308.947C363.472 308.543 363.144 308.215 362.74 308.215C362.336 308.215 362.008 308.543 362.008 308.947H363.472ZM350.636 306.56L348.766 304.692L347.731 305.726L349.601 307.595L350.636 306.56ZM348.704 305.78C349.884 304.842 351.962 303.535 354.414 302.951C356.848 302.373 359.627 302.508 362.318 304.405L363.161 303.209C360.056 301.02 356.823 300.876 354.076 301.529C351.35 302.177 349.08 303.612 347.793 304.636L348.704 305.78ZM363.192 304.382C365.15 302.844 370.717 300.794 376.765 305.773L377.696 304.643C371.03 299.157 364.692 301.344 362.288 303.232L363.192 304.382ZM376.714 304.692L374.844 306.56L375.878 307.595L377.749 305.726L376.714 304.692ZM375.659 306.409C375.199 306.204 374.519 306.064 373.762 306.017C372.993 305.97 372.091 306.015 371.169 306.223C369.321 306.64 367.336 307.724 366.281 310.045L367.613 310.651C368.427 308.86 369.949 307.997 371.49 307.651C372.262 307.477 373.025 307.437 373.673 307.477C374.333 307.518 374.822 307.639 375.063 307.746L375.659 306.409ZM366.941 311.079C368.612 311.092 370.708 310.463 372.388 309.812C373.24 309.482 374.012 309.134 374.607 308.837C374.902 308.689 375.16 308.55 375.363 308.429C375.543 308.323 375.747 308.193 375.878 308.062L374.844 307.028C374.858 307.013 374.807 307.058 374.618 307.171C374.452 307.269 374.226 307.39 373.951 307.529C373.399 307.806 372.669 308.133 371.858 308.448C370.211 309.087 368.332 309.627 366.953 309.616L366.941 311.079ZM375.878 308.062C376.113 307.828 376.696 307.244 377.222 306.719C377.485 306.456 377.734 306.207 377.917 306.024C378.008 305.933 378.082 305.859 378.135 305.806C378.161 305.781 378.18 305.761 378.195 305.746C378.202 305.739 378.207 305.735 378.211 305.73C378.212 305.729 378.214 305.727 378.214 305.727C378.215 305.726 378.215 305.726 378.215 305.726C378.215 305.726 378.215 305.726 377.699 305.208C377.181 304.692 377.181 304.692 377.181 304.692C377.181 304.692 377.181 304.692 377.179 304.693C377.179 304.693 377.178 304.695 377.175 304.696C377.172 304.7 377.166 304.705 377.16 304.712C377.146 304.727 377.125 304.746 377.1 304.772C377.048 304.825 376.973 304.899 376.882 304.99C376.699 305.173 376.451 305.422 376.187 305.683C375.662 306.21 375.078 306.794 374.844 307.028L375.878 308.062ZM377.699 305.939H379.568V304.477H377.699V305.939ZM378.893 304.927C378.145 306.722 375.935 310.823 371.315 312.954L371.929 314.282C377.03 311.929 379.433 307.433 380.244 305.49L378.893 304.927ZM371.694 312.891C369.915 312.713 365.724 313.416 362.195 317.333L363.284 318.312C366.486 314.755 370.212 314.212 371.548 314.347L371.694 312.891ZM363.287 317.338C362.63 316.599 361.489 315.507 360.164 314.594C358.862 313.694 357.267 312.887 355.727 312.887V314.35C356.807 314.35 358.095 314.943 359.333 315.798C360.548 316.636 361.603 317.645 362.192 318.309L363.287 317.338ZM355.879 312.903C354.466 312.605 352.824 312.055 351.261 310.874C349.704 309.697 348.185 307.866 347.062 304.946L345.695 305.471C346.91 308.625 348.586 310.687 350.378 312.042C352.165 313.392 354.03 314.009 355.576 314.334L355.879 312.903ZM346.379 305.939H347.781V304.477H346.379V305.939ZM347.264 305.726L349.601 308.062L350.636 307.028L348.299 304.692L347.264 305.726ZM349.792 308.199C350.746 308.676 352.314 309.388 353.933 309.984C355.522 310.567 357.268 311.079 358.532 311.079V309.616C357.553 309.616 356.027 309.194 354.438 308.61C352.878 308.037 351.36 307.348 350.446 306.89L349.792 308.199ZM359.22 310.098C358.856 309.096 357.956 307.76 356.421 306.875C354.861 305.977 352.707 305.578 349.917 306.374L350.32 307.781C352.767 307.082 354.507 307.46 355.689 308.144C356.896 308.838 357.586 309.887 357.845 310.598L359.22 310.098ZM362.008 308.947V317.823H363.472V308.947H362.008Z" fill="#181818"/>
<path d="M364.145 321.073C362.648 319.953 361.339 320.607 360.873 321.073C355.332 328.103 341.522 323.945 339.836 322.943C340.209 323.446 349.474 338.45 355.262 334.623C358.067 333.221 370.576 332.097 373.961 333.689C378.011 335.593 381.908 328.082 385.18 322.475C378.167 324.812 366.682 325.52 364.145 321.073Z" fill="url(#paint2_radial_1742_1590)" fill-opacity="0.7"/>
<path d="M364.145 321.073C362.648 319.953 361.339 320.607 360.873 321.073C355.332 328.103 341.522 323.945 339.836 322.943C340.209 323.446 353.681 328.638 359.469 324.812C362.274 323.409 362.542 323.221 365.926 324.812C369.975 326.716 374.428 327.614 385.18 322.475C378.167 324.812 366.682 325.52 364.145 321.073Z" fill="#181818"/>
<path d="M295.714 460.005C305.105 473.314 314.642 491.372 326.28 515.902L321.226 538.367C320.049 543.597 316.108 547.839 310.86 548.943C265.71 558.432 228.631 539.331 212.867 507.934C188.346 459.098 264.207 415.353 295.714 460.005Z" fill="#1E1E1E"/>
<path d="M306.652 548.783C295.214 515.697 228.289 527.7 221.25 490.232C221.005 488.934 219.347 488.46 218.683 489.602C215.601 494.906 214.96 501.172 217.414 509.139C224.048 534.567 256.907 555.961 305.46 550.623C306.35 550.525 306.943 549.628 306.652 548.783Z" fill="#141414"/>
<path d="M331.757 534.058C334.008 496.422 307.772 485.011 287.796 481.742C275.048 479.656 264.229 489.488 264.629 502.393C265.292 523.898 272.938 553.77 310.182 554.323C321.569 554.491 331.077 545.418 331.757 534.058Z" fill="#181818"/>
<path d="M298.536 492.488C300.336 492.225 300.702 491.632 300.222 489.465C299.743 487.309 298.132 485.502 295.996 484.939C292.535 484.026 290.577 484.767 291.911 488.675C292.826 491.351 295.737 492.896 298.536 492.488Z" fill="#CE8974"/>
<path d="M289.002 495.688C290.064 495.543 290.635 494.939 290.844 493.639C291.225 491.268 289.598 488.951 287.31 488.217C284.647 487.361 283.156 488.101 284.104 491.78C284.682 494.028 286.702 496.003 289.002 495.688Z" fill="#CE8974"/>
<path d="M281.369 499.718C281.911 499.741 282.302 499.469 282.643 498.811C283.658 496.848 282.976 494.313 281.246 492.935C279.742 491.736 278.538 491.736 277.967 493.817C277.285 496.31 278.786 499.607 281.369 499.718Z" fill="#CE8974"/>
<path d="M278.274 506.937C278.814 506.961 279.205 506.689 279.546 506.031C280.561 504.068 279.88 501.531 278.151 500.155C276.645 498.954 275.441 498.954 274.87 501.037C274.188 503.529 275.69 506.826 278.274 506.937Z" fill="#CE8974"/>
<path d="M276.617 514.653C276.736 514.583 276.847 514.477 276.953 514.333C278.259 512.55 277.674 509.829 276.007 508.378C274.997 507.501 274.111 507.366 273.465 508.4C271.965 510.799 274.175 516.082 276.617 514.653Z" fill="#CE8974"/>
<path d="M301.415 496.244C288.929 502.247 288.303 502.656 280.811 515.444C280.743 515.561 280.689 515.691 280.656 515.823C279.733 519.601 279.92 524.602 281.738 526.97C286.722 533.467 296.041 526.928 288.755 520.186C288.282 519.747 288.088 519.066 288.347 518.476C292.249 509.548 299.183 505.124 310.487 500.493C311.85 499.934 311.672 497.916 310.225 497.638L302.334 496.121C302.025 496.061 301.697 496.108 301.415 496.244Z" fill="#9A6454"/>
<path d="M315.359 523.873C319.395 523.909 322.702 519.971 322.745 515.078C322.788 510.185 319.55 506.19 315.513 506.155C311.477 506.12 308.169 510.058 308.127 514.95C308.084 519.843 311.322 523.838 315.359 523.873Z" fill="#9A6454"/>
<path d="M307.07 532.88C306.369 529.438 302.956 527.227 299.446 527.941C295.936 528.655 293.658 532.023 294.359 535.464C295.059 538.906 298.472 541.117 301.983 540.403C305.493 539.69 307.77 536.321 307.07 532.88Z" fill="#9A6454"/>
<path d="M435.379 460.005C425.988 473.314 416.451 491.372 404.812 515.902L409.867 538.367C411.044 543.597 414.985 547.839 420.232 548.943C465.383 558.432 502.462 539.331 518.227 507.934C542.747 459.098 466.886 415.353 435.379 460.005Z" fill="#1E1E1E"/>
<path d="M425.338 548.886C436.227 520.297 498.079 530.527 504.907 498.142C505.175 496.874 506.789 496.395 507.461 497.503C510.245 502.108 510.803 507.542 508.539 514.428C502.356 536.651 471.75 555.354 426.521 550.741C425.615 550.649 425.013 549.736 425.338 548.886Z" fill="#141414"/>
<path d="M402.612 528.801C400.361 491.167 426.596 479.755 446.572 476.486C459.319 474.399 470.139 484.233 469.74 497.138C469.076 518.643 461.43 548.513 424.186 549.068C412.8 549.236 403.291 540.163 402.612 528.801Z" fill="#181818"/>
<path d="M432.554 492.488C430.754 492.225 430.388 491.632 430.868 489.465C431.347 487.309 432.958 485.502 435.095 484.939C438.556 484.026 440.514 484.767 439.179 488.675C438.264 491.351 435.355 492.896 432.554 492.488Z" fill="#CE8974"/>
<path d="M442.089 495.688C441.028 495.543 440.456 494.939 440.247 493.639C439.866 491.268 441.494 488.951 443.781 488.217C446.444 487.361 447.935 488.101 446.987 491.78C446.409 494.028 444.39 496.003 442.089 495.688Z" fill="#CE8974"/>
<path d="M449.722 499.718C449.182 499.741 448.791 499.469 448.45 498.811C447.435 496.848 448.117 494.313 449.845 492.935C451.351 491.736 452.555 491.736 453.125 493.817C453.808 496.31 452.307 499.607 449.722 499.718Z" fill="#CE8974"/>
<path d="M452.818 506.937C452.277 506.961 451.888 506.689 451.547 506.031C450.53 504.068 451.213 501.531 452.941 500.155C454.446 498.954 455.652 498.954 456.221 501.037C456.904 503.529 455.401 506.826 452.818 506.937Z" fill="#CE8974"/>
<path d="M454.475 514.653C454.355 514.583 454.245 514.477 454.14 514.333C452.831 512.55 453.417 509.829 455.085 508.378C456.093 507.501 456.98 507.366 457.627 508.4C459.125 510.799 456.917 516.082 454.475 514.653Z" fill="#CE8974"/>
<path d="M429.677 496.244C442.163 502.247 442.789 502.656 450.281 515.444C450.349 515.561 450.404 515.691 450.436 515.823C451.359 519.601 451.172 524.602 449.354 526.97C444.37 533.467 435.051 526.928 442.337 520.186C442.81 519.747 443.004 519.066 442.745 518.476C438.843 509.548 431.91 505.124 420.605 500.493C419.242 499.934 419.42 497.916 420.867 497.638L428.758 496.121C429.067 496.061 429.395 496.108 429.677 496.244Z" fill="#9A6454"/>
<path d="M415.734 523.873C411.697 523.909 408.39 519.971 408.348 515.078C408.305 510.185 411.543 506.19 415.579 506.155C419.616 506.12 422.923 510.058 422.966 514.95C423.009 519.843 419.771 523.838 415.734 523.873Z" fill="#9A6454"/>
<path d="M424.023 532.88C424.724 529.438 428.137 527.227 431.647 527.941C435.157 528.655 437.435 532.023 436.734 535.464C436.034 538.906 432.62 541.117 429.11 540.403C425.6 539.69 423.323 536.321 424.023 532.88Z" fill="#9A6454"/>
<defs>
<filter id="filter0_f_1742_1590" x="23.2256" y="23.1328" width="673.318" height="658.655" filterUnits="userSpaceOnUse" color-interpolation-filters="sRGB">
<feFlood flood-opacity="0" result="BackgroundImageFix"/>
<feBlend mode="normal" in="SourceGraphic" in2="BackgroundImageFix" result="shape"/>
<feGaussianBlur stdDeviation="25" result="effect1_foregroundBlur_1742_1590"/>
</filter>
<filter id="filter1_f_1742_1590" x="61.9365" y="67.186" width="608.062" height="607.758" filterUnits="userSpaceOnUse" color-interpolation-filters="sRGB">
<feFlood flood-opacity="0" result="BackgroundImageFix"/>
<feBlend mode="normal" in="SourceGraphic" in2="BackgroundImageFix" result="shape"/>
<feGaussianBlur stdDeviation="5" result="effect1_foregroundBlur_1742_1590"/>
</filter>
<linearGradient id="paint0_linear_1742_1590" x1="363.208" y1="285.566" x2="363.208" y2="309.861" gradientUnits="userSpaceOnUse">
<stop offset="0.219444" stop-color="#858585" stop-opacity="0"/>
<stop offset="1" stop-color="#858585"/>
</linearGradient>
<linearGradient id="paint1_linear_1742_1590" x1="362.487" y1="309.059" x2="362.487" y2="290.409" gradientUnits="userSpaceOnUse">
<stop stop-color="#6D6D6D"/>
<stop offset="1" stop-color="#6D6D6D" stop-opacity="0"/>
</linearGradient>
<radialGradient id="paint2_radial_1742_1590" cx="0" cy="0" r="1" gradientUnits="userSpaceOnUse" gradientTransform="translate(362.741 322.008) rotate(90) scale(9.81153 20.5285)">
<stop/>
<stop offset="1" stop-opacity="0"/>
</radialGradient>
</defs>
</svg>
