<svg width="1175" height="369" viewBox="0 0 1175 369" fill="none" xmlns="http://www.w3.org/2000/svg">
<path d="M1022.45 57.2163C1007.74 61.1591 992.894 53.2314 989.241 39.5992C985.588 25.967 994.481 11.6784 1009.2 7.73559C1023.91 3.79279 1038.76 11.7205 1042.41 25.3527C1046.06 38.9849 1037.17 53.2735 1022.45 57.2163Z" stroke="url(#paint0_linear_1634_1628)"/>
<path d="M1131.57 116.236C1155.1 138.18 1156 175.488 1133.55 199.568C1111.09 223.648 1073.81 225.353 1050.28 203.41C1026.75 181.466 1025.85 144.158 1048.31 120.078C1070.76 95.9982 1108.04 94.2931 1131.57 116.236Z" stroke="url(#paint1_linear_1634_1628)"/>
<path d="M213.106 305.99C163.637 339.988 96.127 327.662 62.3154 278.466C28.5039 229.269 41.1897 161.826 90.6579 127.827C140.126 93.8286 207.636 106.155 241.448 155.351C275.259 204.547 262.574 271.991 213.106 305.99Z" stroke="url(#paint2_linear_1634_1628)"/>
<defs>
<linearGradient id="paint0_linear_1634_1628" x1="1042.89" y1="25.2233" x2="988.758" y2="39.7286" gradientUnits="userSpaceOnUse">
<stop stop-color="#00B76F"/>
<stop offset="1" stop-color="white" stop-opacity="0"/>
</linearGradient>
<linearGradient id="paint1_linear_1634_1628" x1="1047.94" y1="119.737" x2="1133.91" y2="199.909" gradientUnits="userSpaceOnUse">
<stop stop-color="#00B76F"/>
<stop offset="1" stop-color="white" stop-opacity="0"/>
</linearGradient>
<linearGradient id="paint2_linear_1634_1628" x1="241.86" y1="155.068" x2="61.9034" y2="278.749" gradientUnits="userSpaceOnUse">
<stop stop-color="#00B76F"/>
<stop offset="1" stop-color="white" stop-opacity="0"/>
</linearGradient>
</defs>
</svg>
