<svg width="640" height="513" viewBox="0 0 640 513" fill="none" xmlns="http://www.w3.org/2000/svg">
<mask id="path-1-inside-1_1635_2642" fill="white">
<path d="M653 279.5C653 217.572 618.759 158.18 557.81 114.391C496.86 70.6008 414.195 46 328 46C241.805 46 159.14 70.6008 98.1903 114.391C37.241 158.18 3.00001 217.572 3 279.5H6.95642C6.95643 218.326 40.7806 159.657 100.988 116.401C161.195 73.1439 242.854 48.8425 328 48.8425C413.146 48.8425 494.805 73.1439 555.012 116.401C615.219 159.657 649.044 218.326 649.044 279.5H653Z"/>
</mask>
<path d="M653 279.5C653 217.572 618.759 158.18 557.81 114.391C496.86 70.6008 414.195 46 328 46C241.805 46 159.14 70.6008 98.1903 114.391C37.241 158.18 3.00001 217.572 3 279.5H6.95642C6.95643 218.326 40.7806 159.657 100.988 116.401C161.195 73.1439 242.854 48.8425 328 48.8425C413.146 48.8425 494.805 73.1439 555.012 116.401C615.219 159.657 649.044 218.326 649.044 279.5H653Z" stroke="white" mask="url(#path-1-inside-1_1635_2642)"/>
<mask id="mask0_1635_2642" style="mask-type:alpha" maskUnits="userSpaceOnUse" x="-47" y="0" width="640" height="225">
<rect x="-47" width="640" height="225" fill="#D9D9D9"/>
</mask>
<g mask="url(#mask0_1635_2642)">
<path d="M25.3604 184.5C24.439 185.755 23.3222 186.682 22.0099 187.28C20.6931 187.849 19.3042 188.047 17.8431 187.874C16.382 187.702 14.9807 187.123 13.6392 186.139C12.2805 185.142 11.3083 183.978 10.7227 182.649C10.1199 181.307 9.90075 179.929 10.0652 178.515C10.2252 177.071 10.7658 175.721 11.6872 174.466C12.5581 173.279 13.6158 172.414 14.8604 171.872C16.1175 171.313 17.4554 171.131 18.8741 171.325C20.3053 171.502 21.7347 172.114 23.1622 173.162C24.5553 174.184 25.5659 175.349 26.194 176.657C26.822 177.965 27.0578 179.302 26.9014 180.669C26.7576 182.019 26.2439 183.296 25.3604 184.5ZM24.2562 183.57C25.0135 182.538 25.4566 181.448 25.5855 180.299C25.7097 179.12 25.5123 177.983 24.9931 176.887C24.4866 175.775 23.6743 174.808 22.5564 173.988C21.4213 173.155 20.2556 172.67 19.0595 172.533C17.8587 172.366 16.7232 172.525 15.653 173.01C14.5782 173.465 13.6622 174.208 12.9049 175.24C12.1476 176.272 11.7068 177.378 11.5826 178.556C11.4537 179.706 11.6426 180.837 12.1491 181.949C12.6511 183.032 13.4696 183.99 14.6048 184.823C15.7227 185.643 16.882 186.137 18.0828 186.304C19.2961 186.453 20.4402 186.3 21.515 185.845C22.5852 185.361 23.4989 184.602 24.2562 183.57ZM29.3087 178.903L24.8972 175.666L22.7199 173.711L20.1829 172.246L10.1473 164.881L11.0939 163.591L30.2364 177.639L29.3087 178.903Z" fill="white"/>
<path d="M38.8264 167.351C37.7563 168.653 36.5279 169.577 35.1413 170.121C33.7682 170.65 32.3502 170.796 30.8872 170.56C29.4378 170.308 28.0786 169.66 26.8095 168.617C25.5239 167.561 24.6117 166.369 24.0727 165.042C23.5309 163.686 23.3658 162.307 23.5775 160.907C23.7892 159.508 24.3759 158.222 25.3377 157.052C26.2994 155.882 27.4314 155.059 28.7339 154.583C30.0498 154.091 31.419 153.987 32.8413 154.272C34.2607 154.528 35.6132 155.184 36.8987 156.24C36.9482 156.281 36.9991 156.336 37.0515 156.407C37.1009 156.448 37.1586 156.495 37.2245 156.549L27.8579 167.946L26.8938 167.154L35.7118 156.424L35.7751 157.305C34.7833 156.462 33.709 155.938 32.5522 155.733C31.3924 155.498 30.2852 155.568 29.2307 155.944C28.1597 156.306 27.2246 156.974 26.4254 157.946C25.6398 158.902 25.1662 159.949 25.0046 161.086C24.84 162.194 24.9855 163.293 25.4409 164.386C25.8798 165.464 26.6102 166.424 27.632 167.263L27.8545 167.446C28.9093 168.313 30.0384 168.855 31.2417 169.07C32.4421 169.256 33.6117 169.127 34.7504 168.682C35.8727 168.223 36.8673 167.467 37.7342 166.412C38.4115 165.588 38.893 164.7 39.1788 163.747C39.4781 162.778 39.526 161.796 39.3226 160.8L40.7276 160.754C40.9593 161.883 40.9043 163.025 40.5625 164.18C40.2178 165.305 39.6391 166.362 38.8264 167.351Z" fill="white"/>
<path d="M50.4608 153.847L33.0545 148.138L34.198 146.886L50.6189 152.345L50.1011 152.912L43.2168 137.007L44.3172 135.802L51.5611 152.642L50.4608 153.847Z" fill="white"/>
<path d="M117.582 95.6611L114.151 71.2447L115.525 70.363L136.297 83.6462L134.816 84.5971L115.082 71.8643L115.674 71.484L119.063 94.7103L117.582 95.6611ZM117.354 88.3163L117.068 86.8645L128.351 79.621L129.552 80.485L117.354 88.3163Z" fill="white"/>
<path d="M140.203 62.2411C141.394 61.5743 142.558 61.2287 143.693 61.2044C144.837 61.1511 145.911 61.4543 146.916 62.1142C147.929 62.7451 148.816 63.74 149.577 65.0989L154.343 73.6157L152.947 74.3971L148.243 65.9921C147.326 64.3539 146.209 63.3411 144.892 62.9536C143.594 62.5557 142.2 62.7735 140.711 63.6071C139.575 64.2427 138.719 65.0276 138.141 65.9618C137.564 66.8961 137.287 67.9071 137.309 68.9949C137.349 70.0723 137.698 71.1973 138.354 72.3701L142.699 80.1329L141.303 80.9144L133.145 66.3382L134.485 65.588L136.751 69.6369L136.306 69.2996C136.107 67.8953 136.337 66.5809 136.996 65.3563C137.645 64.113 138.714 63.0747 140.203 62.2411Z" fill="white"/>
<path d="M166.017 68.0235C164.618 68.7065 163.198 69.0076 161.758 68.927C160.328 68.8178 159.006 68.3471 157.793 67.5149C156.58 66.6827 155.608 65.5189 154.879 64.0234C154.14 62.5088 153.82 61.0269 153.92 59.5776C154.01 58.1092 154.457 56.7873 155.26 55.612C156.073 54.4081 157.18 53.4646 158.579 52.7816C159.902 52.136 161.24 51.8627 162.594 51.9616C163.967 52.0512 165.237 52.5118 166.402 53.3436C167.587 54.166 168.567 55.3728 169.344 56.9641C170.102 58.517 170.455 60.0184 170.403 61.4681C170.351 62.9178 169.937 64.2114 169.163 65.3489C168.408 66.477 167.359 67.3685 166.017 68.0235ZM165.472 66.6872C166.622 66.1259 167.522 65.3665 168.17 64.4091C168.829 63.4232 169.183 62.3246 169.233 61.1134C169.302 59.8928 169.032 58.6594 168.424 57.4132C167.806 56.1478 167 55.1764 166.005 54.499C165.019 53.793 163.94 53.4057 162.767 53.3372C161.604 53.2401 160.447 53.4723 159.297 54.0336C158.147 54.595 157.242 55.3687 156.584 56.3546C155.936 57.312 155.577 58.401 155.508 59.6216C155.449 60.8136 155.728 62.0423 156.345 63.3077C156.954 64.5539 157.75 65.53 158.736 66.2359C159.74 66.9326 160.824 67.3294 161.987 67.4265C163.16 67.495 164.322 67.2486 165.472 66.6872ZM172.116 64.905L169.716 59.9874L168.697 57.2441L167.133 54.7674L161.673 43.5805L163.111 42.8788L173.525 64.2174L172.116 64.905Z" fill="white"/>
<path d="M179.673 61.6197L173.072 46.275L174.483 45.6681L176.291 49.8717L175.942 49.4646C175.842 48.0445 176.159 46.7821 176.891 45.6775C177.623 44.5729 178.754 43.6918 180.283 43.0343L180.902 44.4747C180.843 44.5 180.785 44.5253 180.726 44.5506C180.659 44.5563 180.596 44.5717 180.537 44.597C178.832 45.3304 177.731 46.4425 177.234 47.9334C176.729 49.4047 176.886 51.0908 177.703 52.9918L181.142 60.9875L179.673 61.6197Z" fill="white"/>
<path d="M199.653 53.7262C198.155 54.2896 196.689 54.4534 195.256 54.2177C193.843 53.9745 192.561 53.3853 191.411 52.4502C190.282 51.5075 189.428 50.2674 188.85 48.73C188.264 47.1725 188.089 45.6771 188.324 44.2436C188.572 42.7827 189.148 41.495 190.051 40.3804C190.973 39.2584 192.183 38.4157 193.681 37.8523C195.179 37.2889 196.644 37.1251 198.077 37.3608C199.511 37.5966 200.792 38.1857 201.922 39.1284C203.044 40.0511 203.898 41.2911 204.484 42.8486C205.062 44.386 205.237 45.8815 205.009 47.3349C204.781 48.7883 204.206 50.0761 203.283 51.1981C202.36 52.3202 201.15 53.1629 199.653 53.7262ZM199.145 52.3785C200.344 51.9278 201.32 51.2526 202.076 50.3529C202.824 49.4333 203.28 48.3729 203.443 47.1717C203.607 45.9706 203.445 44.7211 202.956 43.4232C202.461 42.1054 201.759 41.0586 200.852 40.2831C199.937 39.4875 198.899 39.0004 197.738 38.8219C196.569 38.6233 195.386 38.7494 194.188 39.2001C192.99 39.6508 192.017 40.3359 191.269 41.2556C190.533 42.1477 190.074 43.1981 189.89 44.4068C189.719 45.588 189.881 46.8375 190.377 48.1554C190.865 49.4532 191.567 50.4999 192.481 51.2955C193.416 52.0835 194.458 52.5806 195.607 52.7866C196.768 52.9652 197.947 52.8291 199.145 52.3785Z" fill="white"/>
<path d="M212.771 49.0211L207.554 33.1526L209.074 32.6529L214.291 48.5214L212.771 49.0211ZM207.045 29.0421C206.701 29.1553 206.367 29.1303 206.044 28.9671C205.72 28.8039 205.506 28.5601 205.399 28.2359C205.286 27.8913 205.311 27.5575 205.474 27.2343C205.637 26.9112 205.891 26.693 206.236 26.5797C206.6 26.4598 206.934 26.4848 207.237 26.6547C207.554 26.7977 207.768 27.0414 207.882 27.3859C207.995 27.7305 207.97 28.0643 207.807 28.3875C207.664 28.7039 207.41 28.9221 207.045 29.0421Z" fill="white"/>
<path d="M230.156 43.8957C228.657 44.3172 227.206 44.3593 225.804 44.0222C224.416 43.6588 223.2 42.9591 222.155 41.9232C221.111 40.8872 220.363 39.5683 219.913 37.9664C219.457 36.344 219.408 34.8287 219.765 33.4207C220.117 31.9922 220.793 30.7717 221.794 29.7591C222.809 28.7202 224.067 27.99 225.566 27.5686C226.983 27.1702 228.349 27.1409 229.663 27.4805C230.998 27.8144 232.164 28.4949 233.162 29.5218C234.18 30.543 234.929 31.9059 235.408 33.6105C235.876 35.274 235.954 36.8142 235.644 38.2312C235.333 39.6482 234.695 40.8469 233.729 41.8274C232.785 42.8022 231.593 43.4916 230.156 43.8957ZM229.858 42.4835C231.091 42.1371 232.112 41.551 232.921 40.7251C233.745 39.8729 234.29 38.8555 234.556 37.6727C234.842 36.4842 234.798 35.2225 234.423 33.8876C234.042 32.5321 233.422 31.4321 232.564 30.5874C231.721 29.7164 230.728 29.1422 229.587 28.8648C228.46 28.5611 227.28 28.5825 226.048 28.9289C224.816 29.2753 223.788 29.8745 222.964 30.7267C222.154 31.5525 221.606 32.5597 221.32 33.7482C221.048 34.9104 221.103 36.1693 221.484 37.5247C221.859 38.8597 222.469 39.9626 223.312 40.8336C224.175 41.6988 225.171 42.2833 226.298 42.587C227.439 42.8644 228.626 42.8299 229.858 42.4835ZM236.714 41.9193L235.233 36.6515L234.722 33.7702L233.626 31.0534L230.257 19.0699L231.797 18.6369L238.223 41.4949L236.714 41.9193Z" fill="white"/>
<path d="M263.592 36.2498C262.061 36.5348 260.612 36.4464 259.246 35.9847C257.897 35.498 256.748 34.6919 255.801 33.5663C254.854 32.4406 254.228 31.0598 253.923 29.424C253.615 27.7671 253.702 26.2536 254.185 24.8834C254.663 23.4923 255.447 22.3375 256.534 21.4189C257.639 20.4755 258.957 19.8612 260.488 19.5762C261.935 19.3068 263.298 19.4003 264.576 19.8567C265.876 20.3092 266.976 21.0917 267.878 22.2042C268.8 23.3128 269.423 24.7374 269.747 26.4782C270.064 28.177 270.003 29.7181 269.566 31.1014C269.13 32.4847 268.386 33.6212 267.337 34.511C266.308 35.3969 265.06 35.9765 263.592 36.2498ZM263.423 34.8165C264.681 34.5823 265.75 34.0903 266.631 33.3405C267.528 32.5658 268.162 31.6015 268.533 30.4474C268.925 29.2894 268.994 28.0288 268.741 26.6656C268.483 25.2814 267.965 24.1301 267.186 23.2117C266.425 22.2685 265.488 21.6074 264.376 21.2286C263.281 20.8248 262.104 20.7401 260.846 20.9743C259.587 21.2086 258.509 21.713 257.612 22.4877C256.732 23.2375 256.096 24.1913 255.704 25.3493C255.329 26.4824 255.27 27.7411 255.528 29.1253C255.781 30.4885 256.289 31.6418 257.051 32.585C257.833 33.5243 258.772 34.1959 259.867 34.5996C260.979 34.9785 262.164 35.0508 263.423 34.8165ZM270.301 34.8707L269.299 29.4911L269.049 26.5756L268.202 23.7713L265.924 11.5336L267.497 11.2407L271.842 34.5837L270.301 34.8707Z" fill="white"/>
<path d="M285.146 32.9606C283.474 33.1778 281.947 33.0105 280.563 32.4589C279.2 31.9046 278.066 31.0408 277.16 29.8677C276.276 28.6919 275.728 27.2894 275.517 25.6605C275.302 24.0103 275.452 22.5172 275.967 21.1811C276.5 19.821 277.323 18.703 278.436 17.827C279.548 16.9511 280.855 16.4155 282.357 16.2203C283.859 16.0252 285.248 16.1997 286.523 16.7439C287.82 17.2853 288.889 18.1467 289.731 19.3281C290.592 20.4855 291.129 21.8893 291.343 23.5395C291.352 23.6029 291.351 23.6784 291.34 23.7657C291.349 23.8292 291.358 23.9032 291.369 23.9879L276.74 25.8887L276.579 24.6511L290.352 22.8616L289.795 23.547C289.649 22.2538 289.224 21.1365 288.521 20.1953C287.836 19.2301 286.981 18.5238 285.954 18.0763C284.925 17.6076 283.787 17.4544 282.539 17.6166C281.312 17.776 280.25 18.2151 279.354 18.934C278.476 19.6288 277.83 20.5303 277.414 21.6384C276.996 22.7254 276.872 23.9247 277.043 25.2363L277.08 25.5219C277.256 26.8758 277.709 28.0432 278.438 29.024C279.187 29.9809 280.128 30.6868 281.263 31.1417C282.395 31.5755 283.638 31.7044 284.992 31.5285C286.05 31.391 287.009 31.0728 287.869 30.5738C288.75 30.0721 289.457 29.3886 289.99 28.5234L291.047 29.451C290.443 30.433 289.621 31.2282 288.581 31.8365C287.56 32.421 286.415 32.7957 285.146 32.9606Z" fill="white"/>
<path d="M302.871 31.0741L294.085 14.9997L295.776 14.869L304.014 30.087L303.249 30.1463L309.112 13.8375L310.74 13.7117L304.498 30.9483L302.871 31.0741Z" fill="white"/>
<path d="M400.131 36.1054L397.013 12.6524L398.708 12.9882L401.642 35.3935L400.795 35.2256L412.269 15.6748L413.807 15.9796L416.898 38.416L416.081 38.2543L427.399 18.6724L428.968 18.9834L417.176 39.4824L415.481 39.1465L412.473 17.4442L412.881 17.5251L401.826 36.4412L400.131 36.1054Z" fill="white"/>
<path d="M433.483 31.2395L445.175 34.4593L444.793 35.8476L433.1 32.6278L433.483 31.2395ZM430.847 41.5332L444.175 45.2033L443.784 46.6224L428.883 42.5191L434.83 20.9229L449.268 24.8988L448.878 26.318L436.013 22.7754L430.847 41.5332Z" fill="white"/>
<path d="M449.447 48.5411L456.658 27.3335L465.505 30.3416C467.787 31.1177 469.417 32.19 470.393 33.5586C471.37 34.9272 471.56 36.4902 470.962 38.2474C470.571 39.3986 469.968 40.2754 469.155 40.8777C468.342 41.48 467.382 41.8182 466.275 41.8925C465.195 41.9535 464.06 41.7814 462.868 41.3762L463.619 40.9557C465.074 41.4502 466.244 42.0846 467.129 42.859C468.015 43.6334 468.584 44.5139 468.834 45.5003C469.105 46.4937 469.034 47.5963 468.622 48.8081C468.017 50.5855 466.901 51.7493 465.271 52.2994C463.649 52.8294 461.525 52.648 458.899 51.7552L449.447 48.5411ZM451.445 47.7334L459.353 50.4221C461.393 51.1158 463.065 51.3012 464.369 50.9785C465.68 50.6356 466.596 49.6966 467.118 48.1616C467.633 46.6467 467.472 45.364 466.635 44.3133C465.805 43.2424 464.37 42.3601 462.33 41.6664L454.241 38.9159L454.694 37.5829L462.117 40.1068C463.955 40.7317 465.499 40.8624 466.749 40.4989C467.999 40.1354 468.865 39.2467 469.346 37.8329C469.819 36.4392 469.672 35.2172 468.902 34.1669C468.133 33.1166 466.829 32.279 464.991 31.654L457.75 29.192L451.445 47.7334Z" fill="white"/>
<path d="M540.157 91.8865L552.658 73.2997L560.412 78.5146C562.412 79.86 563.705 81.3209 564.29 82.8972C564.875 84.4734 564.65 86.0316 563.614 87.5717C562.935 88.5807 562.125 89.2696 561.183 89.6385C560.24 90.0074 559.225 90.0831 558.138 89.8656C557.079 89.6424 556.028 89.1795 554.984 88.477L555.819 88.2675C557.093 89.1247 558.057 90.0428 558.71 91.0218C559.362 92.0007 559.681 92.999 559.665 94.0167C559.667 95.0462 559.31 96.092 558.596 97.1541C557.548 98.7119 556.166 99.5434 554.45 99.6488C552.745 99.7365 550.742 99.0064 548.441 97.4586L540.157 91.8865ZM542.297 91.629L549.227 96.2903C551.015 97.4928 552.58 98.1087 553.923 98.1379C555.278 98.1493 556.408 97.4824 557.313 96.1371C558.206 94.8095 558.386 93.5292 557.852 92.2963C557.331 91.0457 556.176 89.8191 554.388 88.6166L547.299 83.8481L548.085 82.6798L554.59 87.0554C556.201 88.1389 557.657 88.6685 558.959 88.6442C560.261 88.62 561.329 87.9883 562.162 86.7492C562.984 85.5278 563.16 84.3096 562.692 83.0947C562.223 81.8799 561.184 80.7307 559.573 79.6472L553.227 75.3788L542.297 91.629Z" fill="white"/>
<path d="M567.488 111.476L569.796 108.448L570.095 107.951L573.896 102.962C574.84 101.723 575.218 100.523 575.031 99.361C574.861 98.212 574.131 97.1461 572.841 96.1634C571.925 95.4651 570.945 94.9734 569.902 94.688C568.889 94.3987 567.914 94.2867 566.98 94.352L567.041 92.9509C568.156 92.8613 569.302 93.0109 570.481 93.3996C571.673 93.7714 572.778 94.3452 573.796 95.1211C575.442 96.3753 576.389 97.7543 576.638 99.2581C576.887 100.762 576.384 102.337 575.13 103.983L568.71 112.407L567.488 111.476ZM562.626 107.932C561.642 107.182 560.901 106.376 560.404 105.515C559.937 104.649 559.728 103.779 559.778 102.905C559.844 102.044 560.162 101.24 560.731 100.493C561.248 99.8144 561.866 99.32 562.585 99.0097C563.334 98.6955 564.203 98.6466 565.191 98.8633C566.193 99.063 567.304 99.6283 568.526 100.559L573.412 104.283L572.656 105.276L567.795 101.571C566.42 100.524 565.259 100.041 564.311 100.124C563.38 100.219 562.624 100.648 562.042 101.412C561.396 102.26 561.201 103.185 561.458 104.185C561.715 105.186 562.428 106.132 563.599 107.024C564.719 107.878 565.855 108.341 567.006 108.413C568.175 108.499 569.314 108.201 570.424 107.518L570.121 108.655C569.028 109.351 567.829 109.657 566.524 109.575C565.249 109.488 563.949 108.94 562.626 107.932Z" fill="white"/>
<path d="M580.957 122.774C579.72 121.726 578.848 120.511 578.34 119.13C577.849 117.763 577.733 116.35 577.991 114.891C578.266 113.445 578.934 112.096 579.996 110.843C581.072 109.574 582.301 108.686 583.682 108.178C585.079 107.685 586.485 107.576 587.9 107.853C589.346 108.128 590.687 108.789 591.924 109.838C592.949 110.707 593.711 111.688 594.21 112.782C594.725 113.89 594.912 115.055 594.77 116.278L593.308 116.171C593.405 115.134 593.242 114.171 592.821 113.283C592.399 112.394 591.79 111.612 590.993 110.936C590 110.094 588.912 109.564 587.728 109.343C586.575 109.12 585.425 109.223 584.28 109.65C583.164 110.075 582.151 110.824 581.241 111.898C580.33 112.972 579.75 114.102 579.5 115.289C579.279 116.472 579.367 117.623 579.761 118.741C580.186 119.856 580.895 120.834 581.888 121.676C582.685 122.352 583.557 122.825 584.502 123.095C585.448 123.365 586.424 123.368 587.432 123.104L587.776 124.528C586.593 124.868 585.413 124.874 584.236 124.548C583.075 124.235 581.982 123.644 580.957 122.774Z" fill="white"/>
<path d="M593.74 127.854L595.141 126.404L610.09 126.589L611.585 127.989L601.533 128.004L600.286 127.932L593.74 127.854ZM589.703 130.387L605.93 113.052L607.098 114.146L590.871 131.48L589.703 130.387ZM599.235 139.309L600.163 127.641L601.766 127.521L600.683 140.665L599.235 139.309Z" fill="white"/>
</g>
</svg>
