<svg width="44" height="43" viewBox="0 0 44 43" fill="none" xmlns="http://www.w3.org/2000/svg">
<g clip-path="url(#clip0_1635_5404)">
<path d="M31.9634 35.0482H23.6776L22.8106 34.201L24.9862 32.0749C25.2251 31.8413 25.3249 31.509 25.2529 31.1862C25.1809 30.8634 24.9488 30.602 24.6321 30.4868L13.2764 26.3567C12.8778 26.2116 12.4431 26.3041 12.1422 26.5983C11.8413 26.8923 11.7466 27.3171 11.895 27.7067L14.6908 35.0482H3.30567C2.19364 35.0482 1.28906 34.1642 1.28906 33.0775V19.4895C1.28906 19.1416 1.00057 18.8596 0.644531 18.8596C0.288492 18.8596 0 19.1416 0 19.4895V33.0775C0 34.8588 1.48294 36.308 3.30567 36.308H15.1706L16.1212 38.8041C16.239 39.1139 16.5066 39.3407 16.837 39.4111C17.1672 39.4816 17.5074 39.384 17.7462 39.1504L19.9217 37.0244L22.1363 39.1887C22.3457 39.3933 22.6207 39.4954 22.8957 39.4954C23.1708 39.4954 23.4459 39.3931 23.6553 39.1886L25.0253 37.8499C25.4439 37.4406 25.4439 36.7746 25.0252 36.3653C25.0252 36.3653 25.0252 36.3653 25.0251 36.3653L24.9666 36.3082H31.9633C32.3194 36.3082 32.6079 36.0263 32.6079 35.6783C32.6079 35.3304 32.3194 35.0482 31.9634 35.0482ZM22.8958 38.1491L20.3775 35.688C20.2516 35.565 20.0867 35.5036 19.9217 35.5036C19.7568 35.5036 19.5918 35.565 19.4659 35.688L17.1658 37.9357L13.2669 27.6974L23.7432 31.5078L21.4432 33.7556C21.1915 34.0017 21.1915 34.4004 21.4433 34.6464L23.9616 37.1074L22.8958 38.1491Z" fill="url(#paint0_linear_1635_5404)"/>
<path d="M40.6943 3.50488H38.4409C38.0848 3.50488 37.7963 3.78682 37.7963 4.13477C37.7963 4.48271 38.0848 4.76465 38.4409 4.76465H40.6943C41.8063 4.76465 42.7109 5.64867 42.7109 6.73543V10.6819H1.28906V6.73543C1.28906 5.64875 2.19364 4.76465 3.30567 4.76465H35.46C35.816 4.76465 36.1045 4.48271 36.1045 4.13477C36.1045 3.78682 35.816 3.50488 35.46 3.50488H3.30567C1.48294 3.50488 0 4.95412 0 6.73543V16.655C0 17.0029 0.288492 17.2849 0.644531 17.2849C1.00057 17.2849 1.28906 17.0029 1.28906 16.655V11.9418H42.7109V33.0775C42.7109 34.1641 41.8064 35.0482 40.6943 35.0482H35.0518C34.6957 35.0482 34.4072 35.3302 34.4072 35.6781C34.4072 36.0261 34.6957 36.308 35.0518 36.308H40.6943C42.5171 36.308 44 34.8588 44 33.0775V6.73543C44 4.95412 42.5171 3.50488 40.6943 3.50488Z" fill="url(#paint1_linear_1635_5404)"/>
<path d="M4.271 7.72335C4.271 8.36776 4.80553 8.89015 5.46484 8.89015C6.12415 8.89015 6.65868 8.36776 6.65868 7.72335C6.65868 7.07894 6.12415 6.55664 5.46484 6.55664C4.80553 6.55664 4.271 7.07894 4.271 7.72335Z" fill="url(#paint2_linear_1635_5404)"/>
<path d="M7.9436 7.72335C7.9436 8.36776 8.47813 8.89015 9.13745 8.89015C9.79676 8.89015 10.3313 8.36776 10.3313 7.72335C10.3313 7.07894 9.79676 6.55664 9.13745 6.55664C8.47813 6.55664 7.9436 7.07894 7.9436 7.72335Z" fill="url(#paint3_linear_1635_5404)"/>
<path d="M11.6162 7.72335C11.6162 8.36776 12.1507 8.89015 12.8101 8.89015C13.4694 8.89015 14.0039 8.36776 14.0039 7.72335C14.0039 7.07894 13.4694 6.55664 12.8101 6.55664C12.1507 6.55664 11.6162 7.07894 11.6162 7.72335Z" fill="url(#paint4_linear_1635_5404)"/>
<path d="M7.88966 25.8093H7.89336C8.16578 25.8093 8.40899 25.6418 8.50042 25.3909L10.097 21.0126L11.6225 25.3829C11.7112 25.637 11.9551 25.8082 12.2299 25.8094H12.2325C12.5062 25.8094 12.7501 25.6404 12.8408 25.3878L15.005 19.3538C15.1228 19.0256 14.9459 18.6662 14.6099 18.551C14.2742 18.436 13.9062 18.6088 13.7884 18.9372L12.2407 23.2522L10.7203 18.8964C10.5479 18.3428 9.68284 18.3377 9.50314 18.8883L7.90436 23.2727L6.38361 18.9478C6.26794 18.6187 5.90133 18.4434 5.56463 18.5568C5.22801 18.6699 5.04883 19.0282 5.16459 19.3572L7.28381 25.3841C7.37275 25.6372 7.61578 25.8077 7.88966 25.8093Z" fill="url(#paint5_linear_1635_5404)"/>
<path d="M19.815 25.8093H19.8187C20.0911 25.8093 20.3343 25.6419 20.4257 25.3909L22.0223 21.0126L23.5478 25.3829C23.6365 25.637 23.8804 25.8082 24.1551 25.8094H24.1578C24.4315 25.8094 24.6754 25.6404 24.7661 25.3878L26.9303 19.3539C27.0481 19.0257 26.8712 18.6662 26.5352 18.5511C26.1995 18.436 25.8315 18.6088 25.7137 18.9372L24.166 23.2523L22.6456 18.8964C22.4731 18.3428 21.6081 18.3377 21.4284 18.8883L19.8297 23.2727L18.3089 18.9479C18.1932 18.6188 17.8265 18.4436 17.4899 18.5569C17.1533 18.67 16.9741 19.0283 17.0899 19.3573L19.2091 25.3842C19.2981 25.6372 19.5412 25.8077 19.815 25.8093Z" fill="url(#paint6_linear_1635_5404)"/>
<path d="M31.5471 25.8093H31.5507C31.8231 25.8093 32.0663 25.6418 32.1577 25.3909L33.7543 21.0126L35.2798 25.3829C35.3685 25.637 35.6124 25.8082 35.8872 25.8094H35.8898C36.1635 25.8094 36.4074 25.6404 36.4981 25.3878L38.6623 19.3538C38.78 19.0256 38.6031 18.6662 38.2671 18.551C37.9314 18.436 37.5635 18.6088 37.4456 18.9372L35.898 23.2522L34.3776 18.8964C34.2053 18.3428 33.3401 18.3377 33.1605 18.8883L31.5617 23.2727L30.0408 18.9479C29.9252 18.6189 29.559 18.4437 29.2219 18.5569C28.8852 18.6699 28.7061 19.0283 28.8218 19.3573L30.9411 25.3842C31.0301 25.6372 31.2731 25.8077 31.5471 25.8093Z" fill="url(#paint7_linear_1635_5404)"/>
</g>
<defs>
<linearGradient id="paint0_linear_1635_5404" x1="16.3039" y1="18.8596" x2="16.3039" y2="39.4954" gradientUnits="userSpaceOnUse">
<stop offset="0.0694443" stop-color="white"/>
<stop offset="1" stop-color="#47F258"/>
</linearGradient>
<linearGradient id="paint1_linear_1635_5404" x1="22" y1="3.50488" x2="22" y2="36.308" gradientUnits="userSpaceOnUse">
<stop offset="0.0694443" stop-color="white"/>
<stop offset="1" stop-color="#47F258"/>
</linearGradient>
<linearGradient id="paint2_linear_1635_5404" x1="5.46484" y1="6.55664" x2="5.46484" y2="8.89015" gradientUnits="userSpaceOnUse">
<stop offset="0.0694443" stop-color="white"/>
<stop offset="1" stop-color="#47F258"/>
</linearGradient>
<linearGradient id="paint3_linear_1635_5404" x1="9.13745" y1="6.55664" x2="9.13745" y2="8.89015" gradientUnits="userSpaceOnUse">
<stop offset="0.0694443" stop-color="white"/>
<stop offset="1" stop-color="#47F258"/>
</linearGradient>
<linearGradient id="paint4_linear_1635_5404" x1="12.8101" y1="6.55664" x2="12.8101" y2="8.89015" gradientUnits="userSpaceOnUse">
<stop offset="0.0694443" stop-color="white"/>
<stop offset="1" stop-color="#47F258"/>
</linearGradient>
<linearGradient id="paint5_linear_1635_5404" x1="10.0854" y1="18.4783" x2="10.0854" y2="25.8094" gradientUnits="userSpaceOnUse">
<stop offset="0.0694443" stop-color="white"/>
<stop offset="1" stop-color="#47F258"/>
</linearGradient>
<linearGradient id="paint6_linear_1635_5404" x1="22.0107" y1="18.4783" x2="22.0107" y2="25.8094" gradientUnits="userSpaceOnUse">
<stop offset="0.0694443" stop-color="white"/>
<stop offset="1" stop-color="#47F258"/>
</linearGradient>
<linearGradient id="paint7_linear_1635_5404" x1="33.7427" y1="18.4783" x2="33.7427" y2="25.8094" gradientUnits="userSpaceOnUse">
<stop offset="0.0694443" stop-color="white"/>
<stop offset="1" stop-color="#47F258"/>
</linearGradient>
<clipPath id="clip0_1635_5404">
<rect width="44" height="43" fill="white"/>
</clipPath>
</defs>
</svg>
