<svg width="52" height="52" viewBox="0 0 52 52" fill="none" xmlns="http://www.w3.org/2000/svg">
<path d="M26.0002 34.6666C30.7865 34.6666 34.6668 30.7863 34.6668 25.9999C34.6668 21.2134 30.7865 17.3333 26.0002 17.3333C21.2137 17.3333 17.3335 21.2134 17.3335 25.9999C17.3335 30.7863 21.2137 34.6666 26.0002 34.6666Z" stroke="url(#paint0_linear_1736_732)" stroke-width="1.5" stroke-linecap="round" stroke-linejoin="round"/>
<path d="M6.5 34.6667V17.3333C6.5 11.3503 11.3503 6.5 17.3333 6.5H34.6667C40.6497 6.5 45.5 11.3503 45.5 17.3333V34.6667C45.5 40.6497 40.6497 45.5 34.6667 45.5H17.3333C11.3503 45.5 6.5 40.6497 6.5 34.6667Z" stroke="url(#paint1_linear_1736_732)" stroke-width="1.5"/>
<path d="M37.9165 14.1043L37.9377 14.0808" stroke="url(#paint2_linear_1736_732)" stroke-width="1.5" stroke-linecap="round" stroke-linejoin="round"/>
<defs>
<linearGradient id="paint0_linear_1736_732" x1="26.0002" y1="17.3333" x2="26.0002" y2="34.6666" gradientUnits="userSpaceOnUse">
<stop offset="0.705555" stop-color="#00D185"/>
<stop offset="1" stop-color="#47F258"/>
</linearGradient>
<linearGradient id="paint1_linear_1736_732" x1="26" y1="6.5" x2="26" y2="45.5" gradientUnits="userSpaceOnUse">
<stop offset="0.705555" stop-color="#00D185"/>
<stop offset="1" stop-color="#47F258"/>
</linearGradient>
<linearGradient id="paint2_linear_1736_732" x1="37.9271" y1="14.0808" x2="37.9271" y2="14.1043" gradientUnits="userSpaceOnUse">
<stop offset="0.705555" stop-color="#00D185"/>
<stop offset="1" stop-color="#47F258"/>
</linearGradient>
</defs>
</svg>
