<svg width="41" height="41" viewBox="0 0 41 41" fill="none" xmlns="http://www.w3.org/2000/svg">
<g clip-path="url(#clip0_1635_5421)">
<path d="M19.9398 10.8477C20.0039 10.8496 20.0684 10.8506 20.1326 10.8506C20.1327 10.8506 20.1327 10.8506 20.1329 10.8506C22.4097 10.8506 24.8802 9.56694 26.4261 7.58086C28.0217 5.53366 28.7467 3.07786 28.4152 0.842955C28.3394 0.332538 27.8821 -0.0345674 27.3689 0.00244612C25.1251 0.159589 22.5848 1.52395 21.0481 3.39715C19.376 5.43342 18.6099 7.91609 18.9989 10.0382C19.0828 10.496 19.4747 10.833 19.9398 10.8477ZM22.5754 4.65086C23.5285 3.48909 25.0713 2.52937 26.517 2.14449C26.4482 4.11028 25.3807 5.70832 24.8674 6.36692C23.8695 7.64882 22.3351 8.57126 20.8713 8.81244C20.9004 6.85758 22.1475 5.17195 22.5754 4.65086Z" fill="url(#paint0_linear_1635_5421)"/>
<path d="M37.2253 29.8125C37.1207 29.5609 36.9167 29.3637 36.6617 29.2676C32.5932 27.7336 31.3191 23.3243 32.472 20.1181C33.042 18.5279 34.1633 17.2354 35.7147 16.3806C35.97 16.2399 36.1502 15.9936 36.207 15.7076C36.2637 15.4216 36.1912 15.1251 36.009 14.8976C33.947 12.3244 31.016 10.7881 28.1683 10.7881C26.1746 10.7881 24.825 11.3 23.6342 11.7515C22.7571 12.0841 21.9997 12.3714 21.1314 12.3714C20.1709 12.3714 19.295 12.0576 18.2805 11.6942C17.0946 11.2694 15.7506 10.788 14.0709 10.788C10.8336 10.788 7.55274 12.7457 5.50738 15.8991C4.75052 17.0721 4.21981 18.521 3.92937 20.2074C3.11231 25.005 4.49669 30.7216 7.63309 35.5003C9.41171 38.2045 11.6531 40.9728 14.7891 40.9995L14.8531 40.9998C16.1594 40.9998 17.0382 40.6073 17.8881 40.2276C18.7861 39.8266 19.6344 39.4476 21.1709 39.44L21.2215 39.4398C22.7291 39.4398 23.5505 39.8167 24.4201 40.2157C25.2532 40.5979 26.1148 40.9932 27.4176 40.9932L27.4773 40.9928C30.5506 40.9667 32.8781 38.0548 34.7516 35.207C35.9031 33.4431 36.3416 32.5416 37.2146 30.5964C37.3261 30.3478 37.3299 30.0641 37.2253 29.8125ZM33.0989 34.1241C31.6066 36.3926 29.6171 38.9988 27.4594 39.0173L27.4175 39.0174C26.5462 39.0174 25.9714 38.7536 25.2437 38.4198C24.3156 37.9939 23.1606 37.464 21.2213 37.464L21.1603 37.4641C19.2083 37.4739 18.0293 38.0005 17.0821 38.4237C16.3311 38.7592 15.738 39.0241 14.853 39.0241L14.8071 39.024C12.586 39.0049 10.6886 36.5507 9.28421 34.4155C6.41533 30.0445 5.14159 24.8572 5.87673 20.5411C6.12146 19.1199 6.55575 17.9187 7.16627 16.9724C8.85005 14.3764 11.4958 12.7638 14.0709 12.7638C15.4074 12.7638 16.4793 13.1477 17.6142 13.5542C18.7025 13.9441 19.8278 14.3472 21.1314 14.3472C22.3618 14.3472 23.3649 13.9668 24.3349 13.5989C25.4173 13.1883 26.5368 12.7638 28.1685 12.7638C30.1099 12.7638 32.1263 13.6986 33.7285 15.3062C32.2793 16.3626 31.2124 17.7768 30.6127 19.4503C29.0489 23.7992 31.006 28.621 35.0034 30.6882C34.4092 31.9769 33.9871 32.7633 33.0989 34.1241Z" fill="url(#paint1_linear_1635_5421)"/>
</g>
<defs>
<linearGradient id="paint0_linear_1635_5421" x1="23.6967" y1="-0.00012207" x2="23.6967" y2="10.8506" gradientUnits="userSpaceOnUse">
<stop offset="0.0694443" stop-color="white"/>
<stop offset="1" stop-color="#47F258"/>
</linearGradient>
<linearGradient id="paint1_linear_1635_5421" x1="20.5" y1="10.788" x2="20.5" y2="40.9998" gradientUnits="userSpaceOnUse">
<stop offset="0.0694443" stop-color="white"/>
<stop offset="1" stop-color="#47F258"/>
</linearGradient>
<clipPath id="clip0_1635_5421">
<rect width="41" height="41" fill="white"/>
</clipPath>
</defs>
</svg>
