<svg width="52" height="52" viewBox="0 0 52 52" fill="none" xmlns="http://www.w3.org/2000/svg">
<g clip-path="url(#clip0_1627_1206)">
<path d="M25.5298 43.9552C25.3409 43.7662 25.0789 43.6575 24.8118 43.6575C24.5447 43.6575 24.2826 43.7661 24.0937 43.9552C23.9048 44.144 23.7961 44.406 23.7961 44.6731C23.7961 44.9413 23.9048 45.2022 24.0937 45.3911C24.2826 45.5811 24.5447 45.6887 24.8118 45.6887C25.0789 45.6887 25.3409 45.5811 25.5298 45.3911C25.7187 45.2022 25.8274 44.9403 25.8274 44.6731C25.8274 44.406 25.7186 44.144 25.5298 43.9552Z" fill="url(#paint0_linear_1627_1206)"/>
<path d="M30.3655 34.5859V27.1127C30.3655 26.7753 30.1979 26.4599 29.9183 26.2711C29.6387 26.0823 29.2835 26.0447 28.9704 26.1706L11.4699 33.2188H5.83316C2.61688 33.2188 0.00012207 35.8355 0.00012207 39.052C0.00012207 42.2685 2.61688 44.8852 5.83336 44.8852H6.50459V50.9843C6.50459 51.5451 6.95929 51.9999 7.52022 51.9999H11.6664C12.2273 51.9999 12.682 51.5451 12.682 50.9843V45.3752L28.9709 51.9266C29.0931 51.9757 29.2218 52 29.3498 52C29.5496 52 29.7481 51.941 29.9185 51.8259C30.198 51.6371 30.3655 51.3217 30.3655 50.9844V43.5113C32.4022 43.0479 33.9275 41.2236 33.9275 39.0487C33.9275 36.8737 32.4022 35.0493 30.3655 34.5859ZM10.6507 49.9687H8.53584V44.8851H10.6508V49.9687H10.6507ZM10.6509 42.8539H5.83336C3.73691 42.8539 2.03137 41.1484 2.03137 39.052C2.03137 36.9556 3.73691 35.25 5.83336 35.25H10.6513L10.6509 42.8539ZM28.3343 49.4811H28.3342L12.6825 43.1859V34.9201L23.7962 30.4443V40.5233C23.7962 41.0842 24.2509 41.539 24.8118 41.539C25.3728 41.539 25.8275 41.0842 25.8275 40.5233V29.6262L28.3343 28.6166V49.4811ZM30.3655 41.383V36.7141C31.2654 37.1072 31.8962 38.0054 31.8962 39.0486C31.8962 40.0917 31.2655 40.9899 30.3655 41.383Z" fill="url(#paint1_linear_1627_1206)"/>
<path d="M43.6162 38.063H37.866C37.305 38.063 36.8503 38.5178 36.8503 39.0786C36.8503 39.6394 37.305 40.0942 37.866 40.0942H43.6162C44.1772 40.0942 44.6319 39.6394 44.6319 39.0786C44.6319 38.5178 44.1772 38.063 43.6162 38.063Z" fill="url(#paint2_linear_1627_1206)"/>
<path d="M38.9003 30.6209C38.5037 30.2244 37.8607 30.2244 37.464 30.6209L35.4804 32.6044C35.0838 33.001 35.0838 33.6441 35.4804 34.0408C35.6789 34.239 35.9388 34.3383 36.1987 34.3383C36.4586 34.3383 36.7186 34.239 36.9168 34.0408L38.9003 32.0573C39.297 31.6607 39.297 31.0176 38.9003 30.6209Z" fill="url(#paint3_linear_1627_1206)"/>
<path d="M38.975 46.0053L36.9251 43.9553C36.5285 43.5588 35.8854 43.5588 35.4887 43.9553C35.0921 44.3519 35.0921 44.995 35.4887 45.3917L37.5387 47.4417C37.737 47.6399 37.9969 47.7391 38.2568 47.7391C38.5167 47.7391 38.7767 47.6399 38.975 47.4417C39.3716 47.0451 39.3716 46.402 38.975 46.0053Z" fill="url(#paint4_linear_1627_1206)"/>
<path d="M47.9376 0H29.047C26.8069 0 24.9845 1.82244 24.9845 4.0625V4.46875H7.922C6.57792 4.46875 5.4845 5.56227 5.4845 6.90625V22.9531C5.4845 24.2971 6.57792 25.3906 7.922 25.3906H8.97144V28.5052C8.97144 28.9161 9.21895 29.2864 9.59839 29.4436C9.72402 29.4956 9.85595 29.5209 9.98686 29.5209C10.2511 29.5209 10.5109 29.4177 10.7052 29.2234L14.538 25.3906H34.7122C36.0562 25.3906 37.1497 24.2971 37.1497 22.9531V19.9062H47.9376C50.1777 19.9062 52.0001 18.0838 52.0001 15.8438V4.0625C52 1.82244 50.1777 0 47.9376 0ZM35.1184 22.9531C35.1184 23.1772 34.9362 23.3594 34.7122 23.3594H14.1173C13.848 23.3594 13.5896 23.4664 13.3992 23.6569L11.0028 26.0533V24.375C11.0028 23.8142 10.5481 23.3594 9.98717 23.3594H7.922C7.69795 23.3594 7.51575 23.1772 7.51575 22.9531V6.90625C7.51575 6.6822 7.69795 6.5 7.922 6.5H24.9845V15.8438C24.9845 18.0838 26.8069 19.9062 29.047 19.9062H35.1184V22.9531ZM49.9689 15.8438C49.9689 16.9638 49.0577 17.875 47.9376 17.875H29.047C27.927 17.875 27.0157 16.9638 27.0157 15.8438V4.0625C27.0157 2.94247 27.927 2.03125 29.047 2.03125H47.9376C49.0577 2.03125 49.9689 2.94247 49.9689 4.0625V15.8438Z" fill="url(#paint5_linear_1627_1206)"/>
<path d="M42.5725 9.07358L35.6216 5.06044C35.3073 4.87894 34.9202 4.87894 34.606 5.06044C34.2917 5.24183 34.0981 5.57719 34.0981 5.93997V13.9661C34.0981 14.3289 34.2917 14.6643 34.606 14.8457C34.7631 14.9365 34.9384 14.9818 35.1138 14.9818C35.2892 14.9818 35.4645 14.9365 35.6216 14.8457L42.5725 10.8325C42.8868 10.6511 43.0803 10.3158 43.0803 9.95301C43.0803 9.59022 42.8869 9.25497 42.5725 9.07358ZM36.1294 12.2071V7.69913L40.0335 9.95311L36.1294 12.2071Z" fill="url(#paint6_linear_1627_1206)"/>
<path d="M21.7864 10.6641H11.6301C11.0692 10.6641 10.6145 11.1189 10.6145 11.6797C10.6145 12.2405 11.0692 12.6953 11.6301 12.6953H21.7864C22.3473 12.6953 22.802 12.2405 22.802 11.6797C22.802 11.1189 22.3473 10.6641 21.7864 10.6641Z" fill="url(#paint7_linear_1627_1206)"/>
<path d="M22.5043 16.6491C22.3154 16.4601 22.0534 16.3516 21.7863 16.3516C21.5191 16.3516 21.2571 16.4601 21.0682 16.6491C20.8793 16.838 20.7706 17.1001 20.7706 17.3672C20.7706 17.6343 20.8793 17.8963 21.0682 18.0851C21.2571 18.274 21.5191 18.3828 21.7863 18.3828C22.0544 18.3828 22.3154 18.2741 22.5043 18.0851C22.6932 17.8963 22.8019 17.6343 22.8019 17.3672C22.8019 17.1001 22.6932 16.838 22.5043 16.6491Z" fill="url(#paint8_linear_1627_1206)"/>
<path d="M17.9767 16.3516H11.6301C11.0692 16.3516 10.6145 16.8064 10.6145 17.3672C10.6145 17.928 11.0692 18.3828 11.6301 18.3828H17.9767C18.5376 18.3828 18.9923 17.928 18.9923 17.3672C18.9923 16.8064 18.5376 16.3516 17.9767 16.3516Z" fill="url(#paint9_linear_1627_1206)"/>
</g>
<defs>
<linearGradient id="paint0_linear_1627_1206" x1="24.8118" y1="43.6575" x2="24.8118" y2="45.6887" gradientUnits="userSpaceOnUse">
<stop offset="0.0694443" stop-color="white"/>
<stop offset="1" stop-color="#47F258"/>
</linearGradient>
<linearGradient id="paint1_linear_1627_1206" x1="16.9638" y1="26.0972" x2="16.9638" y2="52" gradientUnits="userSpaceOnUse">
<stop offset="0.0694443" stop-color="white"/>
<stop offset="1" stop-color="#47F258"/>
</linearGradient>
<linearGradient id="paint2_linear_1627_1206" x1="40.7411" y1="38.063" x2="40.7411" y2="40.0942" gradientUnits="userSpaceOnUse">
<stop offset="0.0694443" stop-color="white"/>
<stop offset="1" stop-color="#47F258"/>
</linearGradient>
<linearGradient id="paint3_linear_1627_1206" x1="37.1904" y1="30.3235" x2="37.1904" y2="34.3383" gradientUnits="userSpaceOnUse">
<stop offset="0.0694443" stop-color="white"/>
<stop offset="1" stop-color="#47F258"/>
</linearGradient>
<linearGradient id="paint4_linear_1627_1206" x1="37.2319" y1="43.658" x2="37.2319" y2="47.7391" gradientUnits="userSpaceOnUse">
<stop offset="0.0694443" stop-color="white"/>
<stop offset="1" stop-color="#47F258"/>
</linearGradient>
<linearGradient id="paint5_linear_1627_1206" x1="28.7423" y1="0" x2="28.7423" y2="29.5209" gradientUnits="userSpaceOnUse">
<stop offset="0.0694443" stop-color="white"/>
<stop offset="1" stop-color="#47F258"/>
</linearGradient>
<linearGradient id="paint6_linear_1627_1206" x1="38.5892" y1="4.92432" x2="38.5892" y2="14.9818" gradientUnits="userSpaceOnUse">
<stop offset="0.0694443" stop-color="white"/>
<stop offset="1" stop-color="#47F258"/>
</linearGradient>
<linearGradient id="paint7_linear_1627_1206" x1="16.7083" y1="10.6641" x2="16.7083" y2="12.6953" gradientUnits="userSpaceOnUse">
<stop offset="0.0694443" stop-color="white"/>
<stop offset="1" stop-color="#47F258"/>
</linearGradient>
<linearGradient id="paint8_linear_1627_1206" x1="21.7863" y1="16.3516" x2="21.7863" y2="18.3828" gradientUnits="userSpaceOnUse">
<stop offset="0.0694443" stop-color="white"/>
<stop offset="1" stop-color="#47F258"/>
</linearGradient>
<linearGradient id="paint9_linear_1627_1206" x1="14.8034" y1="16.3516" x2="14.8034" y2="18.3828" gradientUnits="userSpaceOnUse">
<stop offset="0.0694443" stop-color="white"/>
<stop offset="1" stop-color="#47F258"/>
</linearGradient>
<clipPath id="clip0_1627_1206">
<rect width="52" height="52" fill="white"/>
</clipPath>
</defs>
</svg>
