<svg width="52" height="52" viewBox="0 0 52 52" fill="none" xmlns="http://www.w3.org/2000/svg">
<path d="M17.0625 8.9375C17.0625 11.18 18.8825 13 21.125 13C23.3675 13 25.1875 11.18 25.1875 8.9375C25.1875 6.695 23.3675 4.875 21.125 4.875C18.8825 4.875 17.0625 6.695 17.0625 8.9375ZM23.5625 8.9375C23.5625 10.2781 22.4656 11.375 21.125 11.375C19.7844 11.375 18.6875 10.2781 18.6875 8.9375C18.6875 7.59687 19.7844 6.5 21.125 6.5C22.4656 6.5 23.5625 7.59687 23.5625 8.9375Z" fill="url(#paint0_linear_1627_1196)"/>
<path d="M2.4375 34.125C2.4375 34.5719 2.80312 34.9375 3.25 34.9375H13C13.4469 34.9375 13.8125 34.5719 13.8125 34.125V27.625C13.8125 27.1781 13.4469 26.8125 13 26.8125H11.375V24.375C11.375 24.2775 11.3506 24.1881 11.3181 24.0988L14.625 21.2631V26.8125C14.625 27.2594 14.9906 27.625 15.4375 27.625V46.3125C15.4375 46.7594 15.8031 47.125 16.25 47.125H19.0369C19.4431 47.125 19.7925 46.8244 19.8412 46.4181L21.125 36.4325L22.4088 46.4181C22.4575 46.8244 22.8069 47.125 23.2131 47.125H26C26.4469 47.125 26.8125 46.7594 26.8125 46.3125V27.625C27.2594 27.625 27.625 27.2594 27.625 26.8125V18.6875H37.375C37.8219 18.6875 38.1875 18.3219 38.1875 17.875V14.625C38.1875 14.1781 37.8219 13.8125 37.375 13.8125H17.4606C15.9412 13.8125 14.5113 14.4056 13.4388 15.4781L5.11063 23.7981C4.96438 23.9444 4.875 24.1475 4.875 24.375V26.8125H3.25C2.80312 26.8125 2.4375 27.1781 2.4375 27.625V34.125ZM25.1875 45.5H23.9281L21.9294 29.9569C21.8806 29.5506 21.5312 29.25 21.125 29.25C20.7188 29.25 20.3694 29.5506 20.3206 29.9569L18.3219 45.5H17.0625V27.625H25.1875V45.5ZM14.5844 16.6237C15.3481 15.86 16.3719 15.4375 17.4606 15.4375H36.5625V17.0625H26.8125C26.3656 17.0625 26 17.4281 26 17.875V26H16.25V19.5C16.25 19.1831 16.0631 18.8906 15.7788 18.7606C15.4862 18.6306 15.1531 18.6712 14.9094 18.8825L9.44938 23.5625H7.64563L14.5844 16.6237ZM6.5 25.1875H9.75V26.8125H6.5V25.1875ZM11.375 28.4375L10.1562 30.0625H6.09375L4.875 28.4375H11.375ZM4.0625 30.0625L5.0375 31.3625C5.19187 31.5656 5.4275 31.6875 5.6875 31.6875H10.5625C10.8144 31.6875 11.0581 31.5656 11.2125 31.3625L12.1875 30.0625V33.3125H4.0625V30.0625Z" fill="url(#paint1_linear_1627_1196)"/>
<path d="M38.2282 24.5862C38.3257 24.895 38.4476 25.1793 38.5857 25.4475C38.7401 25.7481 39.0651 25.9187 39.3901 25.8862C39.772 25.8537 40.1295 25.9756 40.3895 26.2356C40.6495 26.4956 40.7795 26.8612 40.7388 27.235C40.7063 27.5681 40.877 27.885 41.1776 28.0393C41.4538 28.1775 41.7301 28.2912 42.0388 28.3968C42.3557 28.5025 42.7051 28.3968 42.9163 28.145C43.4038 27.56 44.3463 27.56 44.8257 28.145C44.9801 28.3318 45.2157 28.4375 45.4513 28.4375C45.5326 28.4375 45.622 28.4212 45.7032 28.3968C46.012 28.2993 46.2963 28.1775 46.5645 28.0393C46.8651 27.885 47.0357 27.5681 47.0032 27.235C46.9707 26.8612 47.0926 26.4956 47.3526 26.2356C47.6126 25.9756 47.9782 25.8456 48.352 25.8862C48.6851 25.9106 49.002 25.7481 49.1563 25.4475C49.2945 25.1712 49.4163 24.8868 49.5138 24.5862C49.6195 24.2693 49.5138 23.92 49.262 23.7087C48.9695 23.465 48.7988 23.1156 48.7988 22.75C48.7988 22.3843 48.9695 22.035 49.262 21.7912C49.522 21.58 49.6195 21.2306 49.5138 20.9137C49.4163 20.605 49.2945 20.3206 49.1563 20.0525C49.002 19.7518 48.6851 19.5893 48.352 19.6137C47.9782 19.6462 47.6126 19.5243 47.3526 19.2643C47.0926 19.0043 46.9626 18.6387 47.0032 18.265C47.0357 17.9318 46.8651 17.615 46.5645 17.4606C46.2882 17.3225 46.012 17.2087 45.7032 17.1031C45.3863 16.9975 45.037 17.1031 44.8257 17.355C44.3382 17.94 43.3957 17.94 42.9163 17.355C42.7051 17.095 42.3557 16.9975 42.0388 17.1031C41.7301 17.2006 41.4457 17.3225 41.1776 17.4606C40.877 17.615 40.7063 17.9318 40.7388 18.265C40.7713 18.6387 40.6495 19.0043 40.3895 19.2643C40.1295 19.5243 39.7638 19.6462 39.3901 19.6137C39.057 19.5812 38.7401 19.7518 38.5857 20.0525C38.4476 20.3287 38.3257 20.6131 38.2282 20.9137C38.1226 21.2306 38.2282 21.58 38.4801 21.7912C38.7726 22.035 38.9432 22.3843 38.9432 22.75C38.9432 23.1156 38.7726 23.465 38.4801 23.7087C38.2201 23.92 38.1226 24.2693 38.2282 24.5862ZM40.097 21.19C40.6413 21.0762 41.137 20.8162 41.5351 20.4181C41.9332 20.02 42.2013 19.5243 42.307 18.98C43.2332 19.5893 44.5088 19.5893 45.4351 18.98C45.5488 19.5243 45.8088 20.02 46.207 20.4181C46.6051 20.8162 47.1088 21.0843 47.6451 21.19C47.3363 21.6531 47.1738 22.1893 47.1738 22.7581C47.1738 23.3268 47.3445 23.8631 47.6451 24.3262C47.1007 24.44 46.6051 24.7 46.207 25.0981C45.8088 25.4962 45.5407 25.9918 45.4351 26.5362C44.972 26.2275 44.4357 26.065 43.867 26.065C43.2982 26.065 42.762 26.2356 42.2988 26.5362C42.1851 25.9918 41.9251 25.4962 41.527 25.0981C41.1288 24.7 40.6251 24.4318 40.0888 24.3262C40.3976 23.8631 40.5601 23.3268 40.5601 22.7581C40.5601 22.1893 40.3895 21.6531 40.0888 21.19H40.097Z" fill="url(#paint2_linear_1627_1196)"/>
<path d="M43.875 25.1875C45.2156 25.1875 46.3125 24.0906 46.3125 22.75C46.3125 21.4094 45.2156 20.3125 43.875 20.3125C42.5344 20.3125 41.4375 21.4094 41.4375 22.75C41.4375 24.0906 42.5344 25.1875 43.875 25.1875ZM43.875 21.9375C44.3219 21.9375 44.6875 22.3031 44.6875 22.75C44.6875 23.1969 44.3219 23.5625 43.875 23.5625C43.4281 23.5625 43.0625 23.1969 43.0625 22.75C43.0625 22.3031 43.4281 21.9375 43.875 21.9375Z" fill="url(#paint3_linear_1627_1196)"/>
<path d="M37.2613 26.3819C37.2938 26.0488 37.1231 25.7319 36.8225 25.5775C36.5463 25.4394 36.27 25.3257 35.9613 25.22C35.6444 25.1144 35.295 25.22 35.0838 25.4719C34.5963 26.0569 33.6538 26.0569 33.1744 25.4719C32.9631 25.2119 32.6138 25.1144 32.2969 25.22C31.9881 25.3175 31.7038 25.4394 31.4356 25.5775C31.135 25.7319 30.9644 26.0488 30.9969 26.3819C31.0294 26.7557 30.9075 27.1213 30.6475 27.3813C30.3875 27.6413 30.0219 27.7632 29.6481 27.7307C29.3069 27.6982 28.9981 27.8688 28.8438 28.1694C28.7056 28.4457 28.5838 28.73 28.4863 29.0307C28.3806 29.3475 28.4863 29.6969 28.7381 29.9082C29.0306 30.1519 29.2013 30.5013 29.2013 30.8669C29.2013 31.2325 29.0306 31.5819 28.7381 31.8257C28.4781 32.0369 28.3806 32.3863 28.4863 32.7032C28.5838 33.0119 28.7056 33.2963 28.8438 33.5644C28.9981 33.865 29.315 34.0357 29.6481 34.0032C30.0219 33.9707 30.3875 34.0925 30.6475 34.3525C30.9075 34.6125 31.0375 34.9782 30.9969 35.3519C30.9644 35.685 31.135 36.0019 31.4356 36.1563C31.7119 36.2944 31.9881 36.4082 32.2969 36.5138C32.6138 36.6194 32.9631 36.5138 33.1744 36.2619C33.6619 35.6769 34.6044 35.6769 35.0838 36.2619C35.2381 36.4488 35.4738 36.5544 35.7094 36.5544C35.7906 36.5544 35.88 36.5382 35.9613 36.5138C36.27 36.4163 36.5544 36.2944 36.8225 36.1563C37.1231 36.0019 37.2938 35.685 37.2613 35.3519C37.2288 34.9782 37.3506 34.6125 37.6106 34.3525C37.8706 34.0925 38.2363 33.9707 38.61 34.0032C38.9431 34.0275 39.26 33.865 39.4144 33.5644C39.5525 33.2882 39.6744 33.0038 39.7719 32.7032C39.8775 32.3863 39.7719 32.0369 39.52 31.8257C39.2275 31.5819 39.0569 31.2325 39.0569 30.8669C39.0569 30.5013 39.2275 30.1519 39.52 29.9082C39.78 29.6969 39.8775 29.3475 39.7719 29.0307C39.6744 28.7219 39.5525 28.4375 39.4144 28.1694C39.26 27.8688 38.9431 27.7063 38.61 27.7307C38.2363 27.7632 37.8706 27.6413 37.6106 27.3813C37.3506 27.1213 37.2206 26.7557 37.2613 26.3819ZM37.9031 32.435C37.3588 32.5488 36.8631 32.8088 36.465 33.2069C36.0669 33.605 35.7988 34.1007 35.6931 34.645C35.23 34.3363 34.6938 34.1738 34.125 34.1738C33.5563 34.1738 33.02 34.3444 32.5569 34.645C32.4431 34.1007 32.1831 33.605 31.785 33.2069C31.3869 32.8088 30.8831 32.5407 30.3469 32.435C30.6556 31.9719 30.8181 31.4357 30.8181 30.8669C30.8181 30.2982 30.6475 29.7619 30.3469 29.2988C30.8913 29.185 31.3869 28.925 31.785 28.5269C32.1831 28.1288 32.4513 27.6332 32.5569 27.0888C33.4831 27.6982 34.7588 27.6982 35.685 27.0888C35.7988 27.6332 36.0588 28.1288 36.4569 28.5269C36.855 28.925 37.3588 29.1932 37.895 29.2988C37.5863 29.7619 37.4238 30.2982 37.4238 30.8669C37.4238 31.4357 37.5944 31.9719 37.895 32.435H37.9031Z" fill="url(#paint4_linear_1627_1196)"/>
<path d="M34.125 28.4375C32.7844 28.4375 31.6875 29.5344 31.6875 30.875C31.6875 32.2156 32.7844 33.3125 34.125 33.3125C35.4656 33.3125 36.5625 32.2156 36.5625 30.875C36.5625 29.5344 35.4656 28.4375 34.125 28.4375ZM34.125 31.6875C33.6781 31.6875 33.3125 31.3219 33.3125 30.875C33.3125 30.4281 33.6781 30.0625 34.125 30.0625C34.5719 30.0625 34.9375 30.4281 34.9375 30.875C34.9375 31.3219 34.5719 31.6875 34.125 31.6875Z" fill="url(#paint5_linear_1627_1196)"/>
<path d="M49.5219 37.1637C49.4244 36.855 49.3025 36.5706 49.1644 36.3025C49.01 36.0018 48.6931 35.8312 48.36 35.8637C47.9863 35.8962 47.6206 35.7743 47.3606 35.5143C47.1006 35.2543 46.9706 34.8887 47.0113 34.515C47.0438 34.1818 46.8731 33.865 46.5725 33.7106C46.2963 33.5725 46.02 33.4587 45.7113 33.3531C45.3944 33.2475 45.045 33.3531 44.8338 33.605C44.3463 34.19 43.4038 34.19 42.9244 33.605C42.7131 33.345 42.3638 33.2475 42.0469 33.3531C41.7381 33.4506 41.4538 33.5725 41.1856 33.7106C40.885 33.865 40.7144 34.1818 40.7469 34.515C40.7794 34.8887 40.6575 35.2543 40.3975 35.5143C40.1375 35.7743 39.7719 35.8962 39.3981 35.8637C39.065 35.8312 38.7481 36.0018 38.5938 36.3025C38.4556 36.5787 38.3338 36.8631 38.2363 37.1637C38.1306 37.4806 38.2363 37.83 38.4881 38.0412C38.7806 38.285 38.9513 38.6343 38.9513 39C38.9513 39.3656 38.7806 39.715 38.4881 39.9587C38.2281 40.17 38.1306 40.5193 38.2363 40.8362C38.3338 41.145 38.4556 41.4293 38.5938 41.6975C38.7481 41.9981 39.0731 42.1687 39.3981 42.1362C39.78 42.1037 40.1375 42.2256 40.3975 42.4856C40.6575 42.7456 40.7875 43.1112 40.7469 43.485C40.7144 43.8181 40.885 44.135 41.1856 44.2893C41.4619 44.4275 41.7381 44.5412 42.0469 44.6468C42.3638 44.7525 42.7131 44.6468 42.9244 44.395C43.4119 43.81 44.3544 43.81 44.8338 44.395C44.9881 44.5818 45.2238 44.6875 45.4594 44.6875C45.5406 44.6875 45.63 44.6712 45.7113 44.6468C46.02 44.5493 46.3044 44.4275 46.5725 44.2893C46.8731 44.135 47.0438 43.8181 47.0113 43.485C46.9788 43.1112 47.1006 42.7456 47.3606 42.4856C47.6206 42.2256 47.9863 42.1037 48.36 42.1362C48.6931 42.1687 49.01 41.9981 49.1644 41.6975C49.3025 41.4212 49.4244 41.1368 49.5219 40.8362C49.6275 40.5193 49.5219 40.17 49.27 39.9587C48.9775 39.715 48.8069 39.3656 48.8069 39C48.8069 38.6343 48.9775 38.285 49.27 38.0412C49.53 37.83 49.6275 37.4806 49.5219 37.1637ZM47.6531 40.56C47.1088 40.6737 46.6131 40.9337 46.215 41.3318C45.8169 41.73 45.5488 42.2256 45.4431 42.77C44.98 42.4612 44.4438 42.2987 43.875 42.2987C43.3063 42.2987 42.77 42.4693 42.3069 42.77C42.1931 42.2256 41.9331 41.73 41.535 41.3318C41.1369 40.9337 40.6331 40.6656 40.0969 40.56C40.4056 40.0968 40.5681 39.5606 40.5681 38.9918C40.5681 38.4231 40.3975 37.8868 40.0969 37.4237C40.6413 37.31 41.1369 37.05 41.535 36.6518C41.9331 36.2537 42.2013 35.7581 42.3069 35.2137C43.2331 35.8231 44.5088 35.8231 45.435 35.2137C45.5488 35.7581 45.8088 36.2537 46.2069 36.6518C46.605 37.05 47.1088 37.3181 47.645 37.4237C47.3363 37.8868 47.1738 38.4231 47.1738 38.9918C47.1738 39.5606 47.3444 40.0968 47.645 40.56H47.6531Z" fill="url(#paint6_linear_1627_1196)"/>
<path d="M43.875 36.5625C42.5344 36.5625 41.4375 37.6594 41.4375 39C41.4375 40.3406 42.5344 41.4375 43.875 41.4375C45.2156 41.4375 46.3125 40.3406 46.3125 39C46.3125 37.6594 45.2156 36.5625 43.875 36.5625ZM43.875 39.8125C43.4281 39.8125 43.0625 39.4469 43.0625 39C43.0625 38.5531 43.4281 38.1875 43.875 38.1875C44.3219 38.1875 44.6875 38.5531 44.6875 39C44.6875 39.4469 44.3219 39.8125 43.875 39.8125Z" fill="url(#paint7_linear_1627_1196)"/>
<defs>
<linearGradient id="paint0_linear_1627_1196" x1="21.125" y1="4.875" x2="21.125" y2="13" gradientUnits="userSpaceOnUse">
<stop offset="0.0694443" stop-color="white"/>
<stop offset="1" stop-color="#47F258"/>
</linearGradient>
<linearGradient id="paint1_linear_1627_1196" x1="20.3125" y1="13.8125" x2="20.3125" y2="47.125" gradientUnits="userSpaceOnUse">
<stop offset="0.0694443" stop-color="white"/>
<stop offset="1" stop-color="#47F258"/>
</linearGradient>
<linearGradient id="paint2_linear_1627_1196" x1="43.871" y1="17.0612" x2="43.871" y2="28.4375" gradientUnits="userSpaceOnUse">
<stop offset="0.0694443" stop-color="white"/>
<stop offset="1" stop-color="#47F258"/>
</linearGradient>
<linearGradient id="paint3_linear_1627_1196" x1="43.875" y1="20.3125" x2="43.875" y2="25.1875" gradientUnits="userSpaceOnUse">
<stop offset="0.0694443" stop-color="white"/>
<stop offset="1" stop-color="#47F258"/>
</linearGradient>
<linearGradient id="paint4_linear_1627_1196" x1="34.1291" y1="25.1781" x2="34.1291" y2="36.5545" gradientUnits="userSpaceOnUse">
<stop offset="0.0694443" stop-color="white"/>
<stop offset="1" stop-color="#47F258"/>
</linearGradient>
<linearGradient id="paint5_linear_1627_1196" x1="34.125" y1="28.4375" x2="34.125" y2="33.3125" gradientUnits="userSpaceOnUse">
<stop offset="0.0694443" stop-color="white"/>
<stop offset="1" stop-color="#47F258"/>
</linearGradient>
<linearGradient id="paint6_linear_1627_1196" x1="43.8791" y1="33.3112" x2="43.8791" y2="44.6875" gradientUnits="userSpaceOnUse">
<stop offset="0.0694443" stop-color="white"/>
<stop offset="1" stop-color="#47F258"/>
</linearGradient>
<linearGradient id="paint7_linear_1627_1196" x1="43.875" y1="36.5625" x2="43.875" y2="41.4375" gradientUnits="userSpaceOnUse">
<stop offset="0.0694443" stop-color="white"/>
<stop offset="1" stop-color="#47F258"/>
</linearGradient>
</defs>
</svg>
