<svg width="29" height="29" viewBox="0 0 29 29" fill="none" xmlns="http://www.w3.org/2000/svg">
<g clip-path="url(#clip0_1742_1804)">
<path d="M28.4321 2.37599C27.9656 1.94853 27.3025 1.80607 26.7015 2.00415L1.20255 10.4097C0.507626 10.6387 0.0363762 11.2591 0.0019953 11.9899C-0.0323289 12.7208 0.378599 13.3826 1.04888 13.676L7.35497 16.435C7.38572 16.5778 9.19602 24.974 9.25758 25.2594C9.3366 25.626 9.52266 25.9525 9.91682 26.0529C10.3155 26.1545 10.5972 25.9366 10.8947 25.7139C11.0602 25.5899 15.5743 22.2098 15.5743 22.2098L21.0452 26.6866C21.3638 26.9475 21.7533 27.0835 22.1504 27.0835C22.3395 27.0835 22.5303 27.0527 22.716 26.9897C23.2918 26.7944 23.7187 26.3245 23.8578 25.7327L28.9536 4.06751C29.0984 3.45154 28.8987 2.80346 28.4321 2.37599ZM11.3023 18.0161C11.2992 18.0234 11.2961 18.0317 11.2932 18.0417L10.2384 21.7272L9.06115 16.2673L17.1561 11.7698L11.4965 17.6875C11.4073 17.7807 11.3417 17.8934 11.3023 18.0161ZM11.6371 23.0302L12.1162 21.3562L12.5745 19.755L14.2166 21.0987L11.6371 23.0302ZM27.2956 3.67748L22.1999 25.3426C22.1974 25.3534 22.194 25.3682 22.169 25.3767C22.1443 25.3851 22.1323 25.3755 22.1238 25.3685L16.1374 20.4697C16.1373 20.4696 16.1372 20.4694 16.137 20.4693L13.3633 18.1996L22.2742 8.88236C22.5652 8.57803 22.5902 8.10672 22.3328 7.77339C22.0754 7.44 21.6131 7.34479 21.2451 7.54938L8.05063 14.8803L1.73163 12.1155C1.71237 12.1071 1.70178 12.1024 1.70331 12.0699C1.70484 12.0374 1.71583 12.0337 1.73576 12.0272L27.2347 3.62169C27.247 3.61767 27.261 3.61302 27.2815 3.63172C27.302 3.65052 27.2986 3.66479 27.2956 3.67748Z" fill="white"/>
</g>
<defs>
<clipPath id="clip0_1742_1804">
<rect width="29" height="29" fill="white"/>
</clipPath>
</defs>
</svg>
